SplineFontDB: 3.0
FontName: Jura-Medium
FullName: Jura Medium
FamilyName: Jura
Weight: Medium
Copyright: Copyright (c) 2009, 2010, 2011 Daniel Johnson (<il.basso.buffo@gmail.com>).
Version: 2.61
ItalicAngle: 0
UnderlinePosition: -102
UnderlineWidth: 51
Ascent: 819
Descent: 205
LayerCount: 2
Layer: 0 1 "Back"  1
Layer: 1 1 "Fore"  0
NeedsXUIDChange: 1
XUID: [1021 288 713564382 14994198]
FSType: 0
OS2Version: 2
OS2_WeightWidthSlopeOnly: 0
OS2_UseTypoMetrics: 1
CreationTime: 1232036477
ModificationTime: 1315437061
PfmFamily: 33
TTFWeight: 500
TTFWidth: 5
LineGap: 0
VLineGap: 0
Panose: 2 0 6 3 0 0 0 0 0 0
OS2TypoAscent: 830
OS2TypoAOffset: 0
OS2TypoDescent: -257
OS2TypoDOffset: 0
OS2TypoLinegap: 0
OS2WinAscent: 830
OS2WinAOffset: 0
OS2WinDescent: 257
OS2WinDOffset: 0
HheadAscent: 830
HheadAOffset: 0
HheadDescent: -257
HheadDOffset: 0
OS2SubXSize: 665
OS2SubYSize: 716
OS2SubXOff: 0
OS2SubYOff: 143
OS2SupXSize: 665
OS2SupYSize: 716
OS2SupXOff: 0
OS2SupYOff: 491
OS2StrikeYSize: 51
OS2StrikeYPos: 265
OS2Vendor: 'PfEd'
OS2CodePages: 2000009f.00000000
OS2UnicodeRanges: a00002ef.5000204b.00000020.00000000
Lookup: 260 0 0 "'abvm' Above Base Mark lookup 0"  {"'abvm' Above Base Mark lookup 0 subtable"  } ['abvm' ('DFLT' <'dflt' > 'cyrl' <'dflt' > 'grek' <'dflt' > 'latn' <'dflt' > ) ]
Lookup: 260 0 0 "'blwm' Below Base Mark lookup 1"  {"'blwm' Below Base Mark lookup 1 subtable"  } ['blwm' ('DFLT' <'dflt' > 'cyrl' <'dflt' > 'grek' <'dflt' > 'latn' <'dflt' > ) ]
Lookup: 258 0 0 "'kern' Horizontal Kerning in Latin lookup 2"  {"'kern' Horizontal Kerning in Latin lookup 2 per glyph data 0"  "'kern' Horizontal Kerning in Latin lookup 2 kerning class 1"  } ['kern' ('latn' <'dflt' > ) ]
MarkAttachClasses: 1
DEI: 91125
KernClass2: 158+ 128 "'kern' Horizontal Kerning in Latin lookup 2 kerning class 1" 
 5 space
 2 Xi
 29 Alphatonos Alpha Delta Lambda
 5 Gamma
 20 Epsilontonos Epsilon
 4 Zeta
 49 Etatonos Iotatonos Eta Iota Mu Nu Pi Iotadieresis
 5 Kappa
 26 Omicrontonos Theta Omicron

StartChar: .notdef
Encoding: 65536 -1 0
Width: 538
Flags: HW
LayerCount: 2
Fore
SplineSet
156 546 m 2,0,-1
 156 130 l 2,1,2
 156 98 156 98 167.5 84.5 c 128,-1,3
 179 71 179 71 210 71 c 2,4,-1
 328 71 l 2,5,6
 359 71 359 71 370.5 84.5 c 128,-1,7
 382 98 382 98 382 130 c 2,8,-1
 382 546 l 2,9,10
 382 578 382 578 370.5 592 c 128,-1,11
 359 606 359 606 328 606 c 2,12,-1
 210 606 l 2,13,14
 179 606 179 606 167.5 592 c 128,-1,15
 156 578 156 578 156 546 c 2,0,-1
85 0 m 1,16,-1
 85 678 l 1,17,-1
 453 678 l 1,18,-1
 453 0 l 1,19,-1
 85 0 l 1,16,-1
EndSplineSet
EndChar

StartChar: exclam
Encoding: 33 33 4
Width: 253
GlyphClass: 2
Flags: HW
LayerCount: 2
Fore
SplineSet
70 29 m 128,-1,1
 70 48 70 48 89 61.5 c 128,-1,2
 108 75 108 75 126.5 75 c 0,3,4
 145 75 145 75 164 61.5 c 128,-1,5
 183 48 183 48 183 28.5 c 0,6,7
 183 9 183 9 164.5 -4 c 128,-1,8
 146 -17 146 -17 126.5 -17 c 0,9,10
 107 -17 107 -17 88.5 -3.5 c 128,-1,0
 70 10 70 10 70 29 c 128,-1,1
157 616 m 2,11,-1
 157 197 l 2,12,13
 157 159 157 159 126 159 c 0,14,15
 95 159 95 159 95 197 c 2,16,-1
 95 616 l 2,17,18
 95 654 95 654 126 654 c 128,-1,19
 157 654 157 654 157 616 c 2,11,-1
EndSplineSet
EndChar

StartChar: quotedbl
Encoding: 34 34 5
Width: 305
GlyphClass: 2
Flags: HW
LayerCount: 2
Fore
SplineSet
172 466 m 2,0,-1
 172 615 l 2,1,2
 172 653 172 653 203 653 c 128,-1,3
 234 653 234 653 234 615 c 2,4,-1
 234 466 l 2,5,6
 234 428 234 428 203 428 c 0,7,8
 172 428 172 428 172 466 c 2,0,-1
71 466 m 2,9,-1
 71 615 l 2,10,11
 71 653 71 653 101.5 653 c 0,12,13
 132 653 132 653 132 615 c 2,14,-1
 132 466 l 2,15,16
 132 428 132 428 101.5 428 c 0,17,18
 71 428 71 428 71 466 c 2,9,-1
EndSplineSet
EndChar

StartChar: numbersign
Encoding: 35 35 6
Width: 613
GlyphClass: 2
Flags: HW
LayerCount: 2
Fore
SplineSet
350 587 m 2,0,-1
 295 441 l 1,1,-1
 409 441 l 1,2,-1
 469 608 l 1,3,4
 480 635 480 635 497.5 635 c 128,-1,5
 515 635 515 635 523.5 625.5 c 128,-1,6
 532 616 532 616 532 606 c 128,-1,7
 532 596 532 596 529 586 c 2,8,-1
 475 441 l 1,9,-1
 531 441 l 2,10,11
 569 441 569 441 569 410 c 128,-1,12
 569 379 569 379 531 379 c 2,13,-1
 453 379 l 1,14,-1
 408 257 l 1,15,-1
 500 257 l 2,16,17
 538 257 538 257 538 226 c 128,-1,18
 538 195 538 195 500 195 c 2,19,-1
 385 195 l 1,20,-1
 325 28 l 2,21,22
 315 1 315 1 293 1 c 0,23,24
 262 1 262 1 262 32 c 0,25,26
 262 40 262 40 265 50 c 2,27,-1
 320 195 l 1,28,-1
 206 195 l 1,29,-1
 146 28 l 2,30,31
 136 1 136 1 118 1 c 0,32,33
 84 1 84 1 84 31 c 0,34,35
 84 40 84 40 87 49 c 2,36,-1
 141 195 l 1,37,-1
 82 195 l 2,38,39
 44 195 44 195 44 226 c 128,-1,40
 44 257 44 257 82 257 c 2,41,-1
 163 257 l 1,42,-1
 208 379 l 1,43,-1
 112 379 l 2,44,45
 75 379 75 379 75 410 c 128,-1,46
 75 441 75 441 112 441 c 2,47,-1
 231 441 l 1,48,-1
 291 608 l 1,49,50
 304 635 304 635 320 635 c 0,51,52
 353 635 353 635 353 605 c 0,53,54
 353 594 353 594 350 587 c 2,0,-1
274 379 m 1,55,-1
 229 257 l 1,56,-1
 341 257 l 1,57,-1
 386 379 l 1,58,-1
 274 379 l 1,55,-1
EndSplineSet
EndChar

StartChar: dollar
Encoding: 36 36 7
Width: 608
GlyphClass: 2
Flags: HW
LayerCount: 2
Fore
SplineSet
166 87 m 2,0,1
 103 87 103 87 82 118 c 128,-1,2
 61 149 61 149 61 202 c 0,3,4
 61 240 61 240 92 240 c 128,-1,5
 123 240 123 240 123 205.5 c 0,6,7
 123 171 123 171 134 160 c 128,-1,8
 145 149 145 149 173 149 c 2,9,-1
 278 149 l 1,10,-1
 278 296 l 1,11,-1
 195 296 l 2,12,13
 61 296 61 296 61 430 c 0,14,15
 61 490 61 490 91.5 522 c 128,-1,16
 122 554 122 554 195 554 c 2,17,-1
 278 554 l 1,18,-1
 278 606 l 2,19,20
 278 643 278 643 309 643 c 0,21,22
 340 643 340 643 340 607 c 2,23,-1
 340 554 l 1,24,-1
 442 554 l 2,25,26
 505 554 505 554 526 524 c 128,-1,27
 547 494 547 494 547 442 c 0,28,29
 547 403 547 403 516 403 c 128,-1,30
 485 403 485 403 485 437.5 c 0,31,32
 485 472 485 472 474.5 482 c 128,-1,33
 464 492 464 492 435 492 c 2,34,-1
 340 492 l 1,35,-1
 340 358 l 1,36,-1
 416 358 l 2,37,38
 547 358 547 358 547 218 c 0,39,40
 547 87 547 87 414 87 c 2,41,-1
 340 87 l 1,42,-1
 340 30 l 2,43,44
 340 -7 340 -7 307 -7 c 0,45,46
 278 -7 278 -7 278 28 c 2,47,-1
 278 87 l 1,48,-1
 166 87 l 2,0,1
431 296 m 2,49,-1
 340 296 l 1,50,-1
 340 149 l 1,51,-1
 431 149 l 2,52,53
 485 149 485 149 485 214 c 0,54,55
 485 250 485 250 470 273 c 128,-1,56
 455 296 455 296 431 296 c 2,49,-1
177 358 m 2,57,-1
 278 358 l 1,58,-1
 278 492 l 1,59,-1
 177 492 l 2,60,61
 150 492 150 492 136.5 480 c 128,-1,62
 123 468 123 468 123 432.5 c 0,63,64
 123 397 123 397 138 377.5 c 128,-1,65
 153 358 153 358 177 358 c 2,57,-1
EndSplineSet
EndChar

StartChar: percent
Encoding: 37 37 8
Width: 578
GlyphClass: 2
Flags: HW
LayerCount: 2
Fore
SplineSet
386 183 m 128,-1,1
 386 173 386 173 393.5 165.5 c 128,-1,2
 401 158 401 158 411 158 c 128,-1,3
 421 158 421 158 428.5 165.5 c 128,-1,4
 436 173 436 173 436 183.5 c 128,-1,5
 436 194 436 194 429 201 c 128,-1,6
 422 208 422 208 411.5 208 c 128,-1,7
 401 208 401 208 393.5 200.5 c 128,-1,0
 386 193 386 193 386 183 c 128,-1,1
317 183 m 128,-1,9
 317 219 317 219 345 244.5 c 128,-1,10
 373 270 373 270 410 270 c 128,-1,11
 447 270 447 270 472.5 244.5 c 128,-1,12
 498 219 498 219 498 183 c 128,-1,13
 498 147 498 147 472.5 121.5 c 128,-1,14
 447 96 447 96 410 96 c 128,-1,15
 373 96 373 96 345 121.5 c 128,-1,8
 317 147 317 147 317 183 c 128,-1,9
143 461 m 128,-1,17
 143 451 143 451 151 443.5 c 128,-1,18
 159 436 159 436 167.5 436 c 128,-1,19
 176 436 176 436 184.5 443.5 c 128,-1,20
 193 451 193 451 193 461 c 128,-1,21
 193 471 193 471 184.5 478.5 c 128,-1,22
 176 486 176 486 167 486 c 128,-1,23
 158 486 158 486 150.5 478.5 c 128,-1,16
 143 471 143 471 143 461 c 128,-1,17
80 461 m 128,-1,25
 80 497 80 497 105.5 522.5 c 128,-1,26
 131 548 131 548 168.5 548 c 128,-1,27
 206 548 206 548 233.5 522.5 c 128,-1,28
 261 497 261 497 261 461 c 128,-1,29
 261 425 261 425 233.5 399.5 c 128,-1,30
 206 374 206 374 168.5 374 c 128,-1,31
 131 374 131 374 105.5 399.5 c 128,-1,24
 80 425 80 425 80 461 c 128,-1,25
453 515 m 1,32,33
 469 528 469 528 479.5 528 c 128,-1,34
 490 528 490 528 500 519.5 c 128,-1,35
 510 511 510 511 510 499 c 128,-1,36
 510 487 510 487 497 471 c 1,37,-1
 126 124 l 2,38,39
 112 111 112 111 100 111 c 128,-1,40
 88 111 88 111 78 119.5 c 128,-1,41
 68 128 68 128 68 141.5 c 128,-1,42
 68 155 68 155 82 169 c 2,43,-1
 453 515 l 1,32,33
EndSplineSet
EndChar

StartChar: ampersand
Encoding: 38 38 9
Width: 520
GlyphClass: 2
Flags: HW
LayerCount: 2
Fore
SplineSet
358 85 m 1,0,-1
 162 312 l 1,1,2
 102 271 102 271 102 190 c 128,-1,3
 102 109 102 109 148.5 76 c 128,-1,4
 195 43 195 43 252.5 43 c 128,-1,5
 310 43 310 43 358 85 c 1,0,-1
397 528 m 128,-1,7
 397 516 397 516 388 507 c 128,-1,8
 379 498 379 498 366 498 c 128,-1,9
 353 498 353 498 340.5 513 c 128,-1,10
 328 528 328 528 319 546.5 c 128,-1,11
 310 565 310 565 291 580 c 128,-1,12
 272 595 272 595 248 595 c 0,13,14
 203 595 203 595 166 562.5 c 128,-1,15
 129 530 129 530 129 476 c 0,16,17
 129 442 129 442 166 400 c 2,18,-1
 397 133 l 1,19,20
 422 174 422 174 422 227 c 0,21,22
 422 268 422 268 454 268 c 0,23,24
 483 268 483 268 483 227 c 0,25,26
 483 148 483 148 439 84 c 1,27,-1
 483 35 l 2,28,29
 491 26 491 26 491 11 c 128,-1,30
 491 -4 491 -4 482 -10.5 c 128,-1,31
 473 -17 473 -17 459.5 -17 c 128,-1,32
 446 -17 446 -17 430 1 c 2,33,-1
 398 38 l 1,34,35
 332 -19 332 -19 254 -19 c 0,36,37
 182.5 -19 182.5 -19 115.5 25 c 0,38,39
 82 47 82 47 61 88 c 128,-1,40
 40 129 40 129 40 180 c 128,-1,41
 40 231 40 231 60 279 c 128,-1,42
 80 327 80 327 122 358 c 1,43,-1
 114 367 l 1,44,45
 65 426 65 426 65 476 c 0,46,47
 65 555 65 555 122.5 606 c 128,-1,48
 180 657 180 657 248 657 c 0,49,50
 291 657 291 657 328 627.5 c 128,-1,51
 365 598 365 598 381 569 c 128,-1,6
 397 540 397 540 397 528 c 128,-1,7
EndSplineSet
EndChar

StartChar: quotesingle
Encoding: 39 39 10
Width: 203
GlyphClass: 2
Flags: HW
LayerCount: 2
Fore
SplineSet
71 466 m 2,0,-1
 71 615 l 2,1,2
 71 653 71 653 101.5 653 c 0,3,4
 132 653 132 653 132 615 c 2,5,-1
 132 466 l 2,6,7
 132 428 132 428 101.5 428 c 0,8,9
 71 428 71 428 71 466 c 2,0,-1
EndSplineSet
EndChar

StartChar: parenleft
Encoding: 40 40 11
Width: 260
GlyphClass: 2
Flags: HW
LayerCount: 2
Fore
SplineSet
135 133 m 2,0,1
 135 83 135 83 136 61.5 c 128,-1,2
 137 40 137 40 147 26.5 c 128,-1,3
 157 13 157 13 169 11.5 c 128,-1,4
 181 10 181 10 213 10 c 1,5,-1
 213 -52 l 1,6,7
 182 -52 182 -52 164.5 -50 c 128,-1,8
 147 -48 147 -48 127 -38 c 128,-1,9
 107 -28 107 -28 97 -8.5 c 0,10,11
 73 38.3 73 38.3 73 133 c 2,12,-1
 73 503 l 2,13,14
 73 597.7 73 597.7 97 644.5 c 0,15,16
 107 664 107 664 127 674 c 128,-1,17
 147 684 147 684 164.5 686 c 128,-1,18
 182 688 182 688 213 688 c 1,19,-1
 213 626 l 1,20,21
 181 626 181 626 169 624.5 c 128,-1,22
 157 623 157 623 147 609.5 c 128,-1,23
 137 596 137 596 136 574.5 c 128,-1,24
 135 553 135 553 135 503 c 2,25,-1
 135 133 l 2,0,1
EndSplineSet
EndChar

StartChar: parenright
Encoding: 41 41 12
Width: 260
GlyphClass: 2
Flags: HW
LayerCount: 2
Fore
SplineSet
125 133 m 2,0,-1
 125 503 l 2,1,2
 125 553 125 553 124 574.5 c 128,-1,3
 123 596 123 596 113 609.5 c 128,-1,4
 103 623 103 623 91 624.5 c 128,-1,5
 79 626 79 626 47 626 c 1,6,-1
 47 688 l 1,7,8
 78 688 78 688 95.5 686 c 128,-1,9
 113 684 113 684 133 674 c 128,-1,10
 153 664 153 664 163 644.5 c 0,11,12
 187 597.7 187 597.7 187 503 c 2,13,-1
 187 133 l 2,14,15
 187 38.3 187 38.3 163 -8.5 c 0,16,17
 153 -28 153 -28 133 -38 c 128,-1,18
 113 -48 113 -48 95.5 -50 c 128,-1,19
 78 -52 78 -52 47 -52 c 1,20,-1
 47 10 l 1,21,22
 79 10 79 10 91 11.5 c 128,-1,23
 103 13 103 13 113 26.5 c 128,-1,24
 123 40 123 40 124 61.5 c 128,-1,25
 125 83 125 83 125 133 c 2,0,-1
EndSplineSet
EndChar

StartChar: asterisk
Encoding: 42 42 13
Width: 405
GlyphClass: 2
Flags: HW
LayerCount: 2
Fore
SplineSet
233 437 m 1,0,-1
 233 374 l 2,1,2
 233 336 233 336 202 336 c 128,-1,3
 171 336 171 336 171 374 c 2,4,-1
 171 437 l 1,5,6
 161 432 161 432 132 415.5 c 0,7,8
 103 399 103 399 92 399 c 0,9,10
 81 399 81 399 72.5 408.5 c 128,-1,11
 64 418 64 418 64 432.5 c 0,12,13
 64 447 64 447 84 459 c 2,14,-1
 140 492 l 1,15,-1
 84 523 l 2,16,17
 64 534 64 534 64 553 c 0,18,19
 64 561 64 561 71 572 c 128,-1,20
 78 583 78 583 90.5 583 c 0,21,22
 103 583 103 583 171 545 c 1,23,-1
 171 608 l 2,24,25
 171 646 171 646 202 646 c 0,26,27
 233 646 233 646 233 608 c 2,28,-1
 233 545 l 1,29,30
 243 550 243 550 272 566.5 c 0,31,32
 301 583 301 583 312.5 583 c 0,33,34
 324 583 324 583 332.5 573.5 c 128,-1,35
 341 564 341 564 341 550 c 0,36,37
 341 536 341 536 320 523 c 1,38,-1
 265 492 l 1,39,-1
 320 459 l 2,40,41
 341 446 341 446 341 433.5 c 0,42,43
 341 421 341 421 333.5 410 c 128,-1,44
 326 399 326 399 313.5 399 c 0,45,46
 301 399 301 399 233 437 c 1,0,-1
EndSplineSet
EndChar

StartChar: plus
Encoding: 43 43 14
Width: 525
GlyphClass: 2
Flags: HW
LayerCount: 2
Fore
SplineSet
231 20 m 2,0,-1
 231 199 l 1,1,-1
 72 199 l 2,2,3
 36 199 36 199 36 231 c 0,4,5
 36 243 36 243 44.5 252.5 c 128,-1,6
 53 262 53 262 72 262 c 2,7,-1
 231 262 l 1,8,-1
 231 440 l 2,9,10
 231 478 231 478 262 478 c 0,11,12
 293 478 293 478 293 440 c 2,13,-1
 293 262 l 1,14,-1
 450 262 l 2,15,16
 489 262 489 262 489 229 c 0,17,18
 489 215 489 215 477.5 207 c 128,-1,19
 466 199 466 199 450 199 c 2,20,-1
 293 199 l 1,21,-1
 293 20 l 2,22,23
 293 -17 293 -17 262 -17 c 128,-1,24
 231 -17 231 -17 231 20 c 2,0,-1
EndSplineSet
EndChar

StartChar: comma
Encoding: 44 44 15
Width: 219
GlyphClass: 2
Flags: HW
LayerCount: 2
Fore
SplineSet
145 20 m 1,0,-1
 105 -63 l 2,1,2
 92 -90 92 -90 75 -90 c 0,3,4
 48 -90 48 -90 48 -60 c 0,5,6
 48 -55 48 -55 51 -43 c 2,7,-1
 75 44 l 2,8,9
 83 71 83 71 105 71 c 0,10,11
 119 71 119 71 135 64 c 128,-1,12
 151 57 151 57 151 43.5 c 0,13,14
 151 30 151 30 145 20 c 1,0,-1
EndSplineSet
EndChar

StartChar: hyphen
Encoding: 45 45 16
Width: 466
GlyphClass: 2
Flags: HW
LayerCount: 2
Fore
SplineSet
109 262 m 2,0,-1
 354 262 l 2,1,2
 393 262 393 262 393 229 c 0,3,4
 393 215 393 215 381.5 207 c 128,-1,5
 370 199 370 199 354 199 c 2,6,-1
 109 199 l 2,7,8
 73 199 73 199 73 231 c 0,9,10
 73 243 73 243 81.5 252.5 c 128,-1,11
 90 262 90 262 109 262 c 2,0,-1
EndSplineSet
EndChar

StartChar: period
Encoding: 46 46 17
Width: 239
GlyphClass: 2
Flags: HW
LayerCount: 2
Fore
SplineSet
176 29 m 128,-1,1
 176 10 176 10 157.5 -3.5 c 128,-1,2
 139 -17 139 -17 119.5 -17 c 0,3,4
 100 -17 100 -17 82 -4 c 128,-1,5
 64 9 64 9 64 28.5 c 0,6,7
 64 48 64 48 82.5 61.5 c 128,-1,8
 101 75 101 75 119.5 75 c 0,9,10
 138 75 138 75 157 61.5 c 128,-1,0
 176 48 176 48 176 29 c 128,-1,1
EndSplineSet
EndChar

StartChar: slash
Encoding: 47 47 18
Width: 367
GlyphClass: 2
Flags: HW
LayerCount: 2
Fore
SplineSet
322 606 m 1,0,-1
 104 8 l 2,1,2
 94 -18 94 -18 73 -18 c 0,3,4
 63 -18 63 -18 52.5 -11 c 128,-1,5
 42 -4 42 -4 42 7 c 0,6,7
 42 18 42 18 45 30 c 1,8,-1
 263 629 l 2,9,10
 273 655 273 655 293 655 c 0,11,12
 304 655 304 655 314.5 648 c 128,-1,13
 325 641 325 641 325 631 c 0,14,15
 325 621 325 621 322 606 c 1,0,-1
EndSplineSet
EndChar

StartChar: zero
Encoding: 48 48 19
Width: 592
GlyphClass: 2
Flags: HW
LayerCount: 2
Fore
SplineSet
116 494 m 2,0,-1
 116 141 l 2,1,2
 116 110 116 110 148.5 83.5 c 128,-1,3
 181 57 181 57 230 57 c 2,4,-1
 362 57 l 2,5,6
 411 57 411 57 443.5 83.5 c 128,-1,7
 476 110 476 110 476 141 c 2,8,-1
 476 494 l 2,9,10
 476 525 476 525 443.5 551.5 c 128,-1,11
 411 578 411 578 362 578 c 2,12,-1
 230 578 l 2,13,14
 181 578 181 578 148.5 551.5 c 128,-1,15
 116 525 116 525 116 494 c 2,0,-1
538 156 m 2,16,17
 538 85 538 85 485.5 40 c 128,-1,18
 433 -5 433 -5 352 -5 c 2,19,-1
 240 -5 l 2,20,21
 159 -5 159 -5 106.5 40 c 128,-1,22
 54 85 54 85 54 156 c 2,23,-1
 54 480 l 2,24,25
 54 551 54 551 106.5 596 c 128,-1,26
 159 641 159 641 240 641 c 2,27,-1
 352 641 l 2,28,29
 433 641 433 641 485.5 596 c 128,-1,30
 538 551 538 551 538 480 c 2,31,-1
 538 156 l 2,16,17
EndSplineSet
EndChar

StartChar: one
Encoding: 49 49 20
Width: 592
GlyphClass: 2
Flags: HW
LayerCount: 2
Fore
SplineSet
274 585 m 1,0,-1
 258 569 l 2,1,2
 242 554 242 554 226 554 c 0,3,4
 210 554 210 554 203 562.5 c 128,-1,5
 196 571 196 571 196 583 c 0,6,7
 196 595 196 595 212 610 c 2,8,-1
 273 671 l 1,9,10
 289 685 289 685 302 685 c 0,11,12
 315 685 315 685 325.5 677 c 128,-1,13
 336 669 336 669 336 652 c 2,14,-1
 336 29 l 2,15,16
 336 -7 336 -7 305 -7 c 128,-1,17
 274 -7 274 -7 274 29 c 2,18,-1
 274 585 l 1,0,-1
EndSplineSet
EndChar

StartChar: two
Encoding: 50 50 21
Width: 592
GlyphClass: 2
Flags: HW
LayerCount: 2
Fore
SplineSet
538 458 m 0,0,1
 538 408 538 408 496 367.5 c 128,-1,2
 454 327 454 327 393 297 c 128,-1,3
 332 267 332 267 271 236 c 128,-1,4
 210 205 210 205 165 159.5 c 128,-1,5
 120 114 120 114 117 57 c 1,6,-1
 498 57 l 2,7,8
 538 57 538 57 538 26 c 128,-1,9
 538 -5 538 -5 498 -5 c 2,10,-1
 55 -5 l 1,11,-1
 55 48 l 2,12,13
 55 100 55 100 78 143 c 128,-1,14
 101 186 101 186 138.5 215.5 c 128,-1,15
 176 245 176 245 221 269.5 c 128,-1,16
 266 294 266 294 310.5 315 c 128,-1,17
 355 336 355 336 392.5 356 c 0,18,19
 476 400.533333333 476 400.533333333 476 457 c 0,20,21
 476 536 476 536 442 557.5 c 128,-1,22
 408 579 408 579 313 579 c 2,23,-1
 166 579 l 2,24,25
 137 579 137 579 127 567.5 c 128,-1,26
 117 556 117 556 117 520 c 128,-1,27
 117 484 117 484 86 484 c 128,-1,28
 55 484 55 484 55 524 c 0,29,30
 55 587 55 587 79.5 614 c 128,-1,31
 104 641 104 641 159 641 c 2,32,-1
 313 641 l 2,33,34
 429 641 429 641 483.5 604 c 128,-1,35
 538 567 538 567 538 458 c 0,0,1
EndSplineSet
EndChar

StartChar: three
Encoding: 51 51 22
Width: 592
GlyphClass: 2
Flags: HW
LayerCount: 2
Fore
SplineSet
340 579 m 2,0,-1
 252 579 l 2,1,2
 204 579 204 579 160 562.5 c 128,-1,3
 116 546 116 546 116 522 c 0,4,5
 116 484 116 484 85 484 c 128,-1,6
 54 484 54 484 54 527.5 c 0,7,8
 54 571 54 571 105.5 606 c 128,-1,9
 157 641 157 641 245 641 c 2,10,-1
 328 641 l 2,11,12
 442 641 442 641 490 597.5 c 128,-1,13
 538 554 538 554 538 449 c 0,14,15
 538 417 538 417 499 381 c 128,-1,16
 460 345 460 345 419 326 c 1,17,18
 458 308 458 308 498 264.5 c 128,-1,19
 538 221 538 221 538 187 c 0,20,21
 538 82 538 82 490 38.5 c 128,-1,22
 442 -5 442 -5 328 -5 c 2,23,-1
 245 -5 l 2,24,25
 157 -5 157 -5 105.5 29.5 c 128,-1,26
 54 64 54 64 54 108 c 0,27,28
 54 152 54 152 85 152 c 128,-1,29
 116 152 116 152 116 114 c 0,30,31
 116 90 116 90 159.5 73.5 c 128,-1,32
 203 57 203 57 252 57 c 2,33,-1
 340 57 l 2,34,35
 418 57 418 57 447.5 85.5 c 128,-1,36
 477 114 477 114 477 166 c 0,37,38
 477 218 477 218 413 256 c 128,-1,39
 349 294 349 294 297 294 c 0,40,41
 245 294 245 294 245 325.5 c 0,42,43
 245 357 245 357 291 357 c 0,44,45
 355 357 355 357 416 388.5 c 128,-1,46
 477 420 477 420 477 471.5 c 0,47,48
 477 523 477 523 447.5 551 c 128,-1,49
 418 579 418 579 340 579 c 2,0,-1
EndSplineSet
EndChar

StartChar: four
Encoding: 52 52 23
Width: 592
GlyphClass: 2
Flags: HW
LayerCount: 2
Fore
SplineSet
503 165 m 2,0,-1
 452 165 l 1,1,-1
 452 28 l 2,2,3
 452 -7 452 -7 420 -7 c 0,4,5
 388 -7 388 -7 388 28 c 2,6,-1
 388 165 l 1,7,-1
 52 165 l 1,8,-1
 52 234 l 1,9,-1
 377 641 l 1,10,-1
 452 641 l 1,11,-1
 452 227 l 1,12,-1
 503 227 l 2,13,14
 540 227 540 227 540 196 c 128,-1,15
 540 165 540 165 503 165 c 2,0,-1
388 564 m 1,16,-1
 119 227 l 1,17,-1
 388 227 l 1,18,-1
 388 564 l 1,16,-1
EndSplineSet
EndChar

StartChar: five
Encoding: 53 53 24
Width: 592
GlyphClass: 2
Flags: HW
LayerCount: 2
Fore
SplineSet
68.5 121.5 m 128,-1,1
 78 131 78 131 86.5 131 c 128,-1,2
 95 131 95 131 122.5 111.5 c 128,-1,3
 150 92 150 92 195.5 72.5 c 128,-1,4
 241 53 241 53 291 53 c 0,5,6
 379 53 379 53 425 100 c 128,-1,7
 471 147 471 147 471 231 c 0,8,9
 471 285 471 285 443.5 321 c 0,10,11
 396.902777778 382 396.902777778 382 318 382 c 2,12,-1
 65 382 l 1,13,-1
 74 510 l 2,14,15
 79 583 79 583 106.5 612 c 128,-1,16
 134 641 134 641 194 641 c 2,17,-1
 454 641 l 2,18,19
 491 641 491 641 491 610 c 128,-1,20
 491 579 491 579 454 579 c 2,21,-1
 187 579 l 2,22,23
 164 579 164 579 152.5 567.5 c 128,-1,24
 141 556 141 556 138 526 c 2,25,-1
 132 444 l 1,26,-1
 309 444 l 2,27,28
 398 444 398 444 465.5 386 c 128,-1,29
 533 328 533 328 533 223.5 c 128,-1,30
 533 119 533 119 466 55 c 128,-1,31
 399 -9 399 -9 291 -9 c 0,32,33
 225 -9 225 -9 142 26.5 c 128,-1,34
 59 62 59 62 59 100 c 0,35,0
 59 112 59 112 68.5 121.5 c 128,-1,1
EndSplineSet
EndChar

StartChar: six
Encoding: 54 54 25
Width: 592
GlyphClass: 2
Flags: HW
LayerCount: 2
Fore
SplineSet
122 52.5 m 128,-1,1
 54 114 54 114 54 205.5 c 128,-1,2
 54 297 54 297 76 372.5 c 128,-1,3
 98 448 98 448 130 496 c 128,-1,4
 162 544 162 544 198.5 579 c 128,-1,5
 235 614 235 614 262.5 629 c 128,-1,6
 290 644 290 644 304 644 c 0,7,8
 340 644 340 644 340 616 c 0,9,10
 340 597 340 597 314 585 c 0,11,12
 263 560 263 560 216.5 510.5 c 128,-1,13
 170 461 170 461 144 389 c 1,14,15
 207 433 207 433 304.5 433 c 128,-1,16
 402 433 402 433 470 371 c 128,-1,17
 538 309 538 309 538 212 c 128,-1,18
 538 115 538 115 470 53 c 128,-1,19
 402 -9 402 -9 296 -9 c 128,-1,0
 190 -9 190 -9 122 52.5 c 128,-1,1
116 212 m 128,-1,21
 116 139 116 139 163 96 c 128,-1,22
 210 53 210 53 296 53 c 128,-1,23
 382 53 382 53 429 96 c 128,-1,24
 476 139 476 139 476 212 c 128,-1,25
 476 285 476 285 428.5 328 c 128,-1,26
 381 371 381 371 296 371 c 128,-1,27
 211 371 211 371 163.5 328 c 128,-1,20
 116 285 116 285 116 212 c 128,-1,21
EndSplineSet
EndChar

StartChar: seven
Encoding: 55 55 26
Width: 592
GlyphClass: 2
Flags: HW
LayerCount: 2
Fore
SplineSet
269 -10 m 0,0,1
 257 -10 257 -10 245 -3.5 c 128,-1,2
 233 3 233 3 233 16 c 0,3,4
 233 29 233 29 239 41 c 1,5,-1
 455 584 l 1,6,-1
 176 584 l 2,7,8
 146 584 146 584 135.5 571.5 c 128,-1,9
 125 559 125 559 125 529 c 0,10,11
 125 489 125 489 94 489 c 128,-1,12
 63 489 63 489 63 529 c 0,13,14
 63 592 63 592 88 619 c 128,-1,15
 113 646 113 646 168 646 c 2,16,-1
 498 646 l 2,17,18
 529 646 529 646 529 618 c 0,19,20
 529 608 529 608 525 596 c 2,21,-1
 302 19 l 2,22,23
 291 -10 291 -10 269 -10 c 0,0,1
EndSplineSet
EndChar

StartChar: eight
Encoding: 56 56 27
Width: 592
GlyphClass: 2
Flags: HW
LayerCount: 2
Fore
SplineSet
150 275.5 m 128,-1,1
 116 254 116 254 116 176.5 c 128,-1,2
 116 99 116 99 150 78 c 128,-1,3
 184 57 184 57 280 57 c 2,4,-1
 313 57 l 2,5,6
 409 57 409 57 442.5 78 c 128,-1,7
 476 99 476 99 476 177 c 128,-1,8
 476 255 476 255 442 276 c 128,-1,9
 408 297 408 297 313 297 c 2,10,-1
 280 297 l 2,11,0
 184 297 184 297 150 275.5 c 128,-1,1
479 326 m 1,12,13
 538 282 538 282 538 175 c 128,-1,14
 538 68 538 68 483.5 31.5 c 128,-1,15
 429 -5 429 -5 313 -5 c 2,16,-1
 280 -5 l 2,17,18
 223 -5 223 -5 185 1.5 c 128,-1,19
 147 8 147 8 115.5 27 c 0,20,21
 54 64.0952380952 54 64.0952380952 54 174.047619048 c 128,-1,22
 54 284 54 284 114 326 c 1,23,24
 54 364 54 364 54 470 c 0,25,26
 54 557.342857143 54 557.342857143 94.5 599 c 0,27,28
 126.474089277 631.887634684 126.474089277 631.887634684 204.5 638.5 c 0,29,30
 234 641 234 641 280 641 c 2,31,-1
 313 641 l 2,32,33
 458.333333333 641 458.333333333 641 498 599 c 0,34,35
 538 556.647058824 538 556.647058824 538 470 c 0,36,37
 538 362 538 362 479 326 c 1,12,13
476 469 m 128,-1,39
 476 493 476 493 473 509.5 c 128,-1,40
 470 526 470 526 465.5 538.5 c 128,-1,41
 461 551 461 551 449.5 558.5 c 128,-1,42
 438 566 438 566 429 570 c 128,-1,43
 420 574 420 574 398.5 576 c 0,44,45
 366.25 579 366.25 579 313 579 c 2,46,-1
 278 579 l 2,47,48
 170.692307692 579 170.692307692 579 152 565.5 c 0,49,50
 123.806122449 545.137755102 123.806122449 545.137755102 119.903061224 521.068877551 c 128,-1,51
 116 497 116 497 116 466.5 c 128,-1,52
 116 436 116 436 122.5 416 c 128,-1,53
 129 396 129 396 138 384 c 128,-1,54
 147 372 147 372 171 366.5 c 0,55,56
 203.727272727 359 203.727272727 359 280 359 c 2,57,-1
 313 359 l 2,58,59
 407.125 359 407.125 359 422.5625 365.5 c 128,-1,60
 438 372 438 372 449.5 379.5 c 128,-1,61
 461 387 461 387 465.5 399.5 c 128,-1,62
 470 412 470 412 473 428.5 c 128,-1,38
 476 445 476 445 476 469 c 128,-1,39
EndSplineSet
EndChar

StartChar: nine
Encoding: 57 57 28
Width: 592
GlyphClass: 2
Flags: HW
LayerCount: 2
Fore
SplineSet
54 469 m 0,0,1
 54 514 54 514 74 547.5 c 128,-1,2
 94 581 94 581 121.5 598.5 c 128,-1,3
 149 616 149 616 188 626 c 0,4,5
 246.5 641 246.5 641 313 641 c 0,6,7
 538 641 538 641 538 468 c 0,8,9
 538 362 538 362 506 270 c 128,-1,10
 474 178 474 178 421.5 116.5 c 128,-1,11
 369 55 369 55 302 19.5 c 128,-1,12
 235 -16 235 -16 165 -16 c 0,13,14
 129 -16 129 -16 129 15.5 c 128,-1,15
 129 47 129 47 164.5 47 c 128,-1,16
 200 47 200 47 241 63 c 128,-1,17
 282 79 282 79 325.5 110 c 128,-1,18
 369 141 369 141 406 197 c 128,-1,19
 443 253 443 253 460 324 c 1,20,21
 409 297 409 297 313 297 c 0,22,23
 54 297 54 297 54 469 c 0,0,1
313 579 m 0,24,25
 116 579 116 579 116 469 c 0,26,27
 116 396.625 116 396.625 182 376 c 0,28,29
 236.4 359 236.4 359 319.7 359 c 128,-1,30
 403 359 403 359 439.5 386.5 c 128,-1,31
 476 414 476 414 476 468 c 128,-1,32
 476 522 476 522 438.5 550.5 c 128,-1,33
 401 579 401 579 313 579 c 0,24,25
EndSplineSet
EndChar

StartChar: colon
Encoding: 58 58 29
Width: 258
GlyphClass: 2
Flags: HW
LayerCount: 2
Fore
SplineSet
185 80 m 128,-1,1
 185 61 185 61 166.5 47.5 c 128,-1,2
 148 34 148 34 128.5 34 c 0,3,4
 109 34 109 34 91 47 c 128,-1,5
 73 60 73 60 73 79.5 c 0,6,7
 73 99 73 99 91.5 112.5 c 128,-1,8
 110 126 110 126 128.5 126 c 0,9,10
 147 126 147 126 166 112.5 c 128,-1,0
 185 99 185 99 185 80 c 128,-1,1
185 433 m 128,-1,12
 185 414 185 414 166.5 400.5 c 128,-1,13
 148 387 148 387 128.5 387 c 0,14,15
 109 387 109 387 91 400 c 128,-1,16
 73 413 73 413 73 432.5 c 0,17,18
 73 452 73 452 91.5 465.5 c 128,-1,19
 110 479 110 479 128.5 479 c 0,20,21
 147 479 147 479 166 465.5 c 128,-1,11
 185 452 185 452 185 433 c 128,-1,12
EndSplineSet
EndChar

StartChar: semicolon
Encoding: 59 59 30
Width: 261
GlyphClass: 2
Flags: HW
LayerCount: 2
Fore
SplineSet
177 71 m 1,0,-1
 137 -12 l 2,1,2
 124 -39 124 -39 107 -39 c 0,3,4
 80 -39 80 -39 80 -9 c 0,5,6
 80 -4 80 -4 83 8 c 2,7,-1
 107 95 l 2,8,9
 115 122 115 122 137 122 c 0,10,11
 151 122 151 122 167 115 c 128,-1,12
 183 108 183 108 183 94.5 c 0,13,14
 183 81 183 81 177 71 c 1,0,-1
185 433 m 128,-1,16
 185 414 185 414 166.5 400.5 c 128,-1,17
 148 387 148 387 128.5 387 c 0,18,19
 109 387 109 387 91 400 c 128,-1,20
 73 413 73 413 73 432.5 c 0,21,22
 73 452 73 452 91.5 465.5 c 128,-1,23
 110 479 110 479 128.5 479 c 0,24,25
 147 479 147 479 166 465.5 c 128,-1,15
 185 452 185 452 185 433 c 128,-1,16
EndSplineSet
EndChar

StartChar: less
Encoding: 60 60 31
Width: 539
GlyphClass: 2
Flags: HW
LayerCount: 2
Fore
SplineSet
417 92 m 2,0,-1
 53 302 l 2,1,2
 33 314 33 314 33 332 c 0,3,4
 33 350 33 350 53 362 c 2,5,-1
 417 572 l 2,6,7
 430 579 430 579 441.5 579 c 0,8,9
 453 579 453 579 461.5 571.5 c 128,-1,10
 470 564 470 564 470 547.5 c 0,11,12
 470 531 470 531 448 519 c 2,13,-1
 125 333 l 1,14,-1
 447 145 l 2,15,16
 470 131 470 131 470 119 c 0,17,18
 470 107 470 107 463 95.5 c 128,-1,19
 456 84 456 84 442.5 84 c 0,20,21
 429 84 429 84 417 92 c 2,0,-1
EndSplineSet
EndChar

StartChar: equal
Encoding: 61 61 32
Width: 478
GlyphClass: 2
Flags: HW
LayerCount: 2
Fore
SplineSet
115 415 m 2,0,-1
 360 415 l 2,1,2
 399 415 399 415 399 382 c 0,3,4
 399 368 399 368 387.5 360 c 128,-1,5
 376 352 376 352 360 352 c 2,6,-1
 115 352 l 2,7,8
 79 352 79 352 79 384 c 0,9,10
 79 396 79 396 87.5 405.5 c 128,-1,11
 96 415 96 415 115 415 c 2,0,-1
115 312 m 2,12,-1
 360 312 l 2,13,14
 399 312 399 312 399 279 c 0,15,16
 399 265 399 265 387.5 257 c 128,-1,17
 376 249 376 249 360 249 c 2,18,-1
 115 249 l 2,19,20
 79 249 79 249 79 281 c 0,21,22
 79 293 79 293 87.5 302.5 c 128,-1,23
 96 312 96 312 115 312 c 2,12,-1
EndSplineSet
EndChar

StartChar: greater
Encoding: 62 62 33
Width: 539
GlyphClass: 2
Flags: HW
LayerCount: 2
Fore
SplineSet
122 92 m 2,0,1
 110 84 110 84 96.5 84 c 128,-1,2
 83 84 83 84 76 95.5 c 128,-1,3
 69 107 69 107 69 119 c 128,-1,4
 69 131 69 131 92 145 c 2,5,-1
 414 333 l 1,6,-1
 91 519 l 2,7,8
 69 531 69 531 69 547.5 c 0,9,10
 69 579 69 579 99 579 c 0,11,12
 109 579 109 579 122 572 c 2,13,-1
 486 362 l 2,14,15
 506 350 506 350 506 332 c 128,-1,16
 506 314 506 314 486 302 c 2,17,-1
 122 92 l 2,0,1
EndSplineSet
EndChar

StartChar: question
Encoding: 63 63 34
Width: 545
GlyphClass: 2
Flags: HW
LayerCount: 2
Fore
SplineSet
312 29 m 128,-1,1
 312 10 312 10 293.5 -3.5 c 128,-1,2
 275 -17 275 -17 255.5 -17 c 128,-1,3
 236 -17 236 -17 218 -4 c 128,-1,4
 200 9 200 9 200 28.5 c 128,-1,5
 200 48 200 48 218.5 61.5 c 128,-1,6
 237 75 237 75 255.5 75 c 128,-1,7
 274 75 274 75 293 61.5 c 128,-1,0
 312 48 312 48 312 29 c 128,-1,1
256 156 m 0,8,9
 244 156 244 156 234.5 164.5 c 128,-1,10
 225 173 225 173 225 194 c 2,11,-1
 225 342 l 1,12,-1
 386 386 l 2,13,14
 410 392 410 392 426 419 c 128,-1,15
 442 446 442 446 442 484.5 c 128,-1,16
 442 523 442 523 420.5 557.5 c 128,-1,17
 399 592 399 592 350 592 c 2,18,-1
 257 592 l 2,19,20
 165 592 165 592 133 571 c 128,-1,21
 101 550 101 550 101 471 c 0,22,23
 101 433 101 433 69.5 433 c 128,-1,24
 38 433 38 433 38 471 c 0,25,26
 38 584.612903226 38 584.612903226 99 622 c 0,27,28
 130 641 130 641 166 647.5 c 128,-1,29
 202 654 202 654 257 654 c 2,30,-1
 333 654 l 2,31,32
 424 654 424 654 464 604 c 128,-1,33
 504 554 504 554 504 484.5 c 128,-1,34
 504 415 504 415 474.5 377 c 128,-1,35
 445 339 445 339 373 319 c 2,36,-1
 287 295 l 1,37,-1
 287 194 l 2,38,39
 287 156 287 156 256 156 c 0,8,9
EndSplineSet
EndChar

StartChar: at
Encoding: 64 64 35
Width: 603
GlyphClass: 2
Flags: HW
LayerCount: 2
Fore
SplineSet
70 241 m 2,0,-1
 70 395 l 2,1,2
 70 512 70 512 129.5 579 c 128,-1,3
 189 646 189 646 288 646 c 2,4,-1
 317 646 l 2,5,6
 416 646 416 646 475.5 579 c 128,-1,7
 535 512 535 512 535 395 c 0,8,9
 535 275.8 535 275.8 502 239.5 c 0,10,11
 463.785714286 197.464285714 463.785714286 197.464285714 398 186.5 c 0,12,13
 359 180 359 180 306 180 c 0,14,15
 230 180 230 180 202.5 215.5 c 128,-1,16
 175 251 175 251 175 331.5 c 128,-1,17
 175 412 175 412 203 447.5 c 128,-1,18
 231 483 231 483 306.5 483 c 128,-1,19
 382 483 382 483 410 447.5 c 128,-1,20
 438 412 438 412 438 332 c 0,21,22
 438 285 438 285 430 258 c 1,23,24
 455 266 455 266 464 294 c 128,-1,25
 473 322 473 322 473 403.5 c 128,-1,26
 473 485 473 485 433.5 534.5 c 128,-1,27
 394 584 394 584 317 584 c 2,28,-1
 288 584 l 2,29,30
 210 584 210 584 171 534.5 c 128,-1,31
 132 485 132 485 132 395 c 2,32,-1
 132 241 l 2,33,34
 132 151 132 151 171 101.5 c 128,-1,35
 210 52 210 52 288 52 c 2,36,-1
 422 52 l 2,37,38
 451 52 451 52 462 64 c 128,-1,39
 473 76 473 76 473 111.5 c 128,-1,40
 473 147 473 147 504 147 c 128,-1,41
 535 147 535 147 535 100.5 c 128,-1,42
 535 54 535 54 513.5 22 c 128,-1,43
 492 -10 492 -10 429 -10 c 2,44,-1
 288 -10 l 2,45,46
 189 -10 189 -10 129.5 57 c 128,-1,47
 70 124 70 124 70 241 c 2,0,-1
249 259 m 128,-1,49
 261 242 261 242 306.5 242 c 128,-1,50
 352 242 352 242 364 259 c 128,-1,51
 376 276 376 276 376 331.5 c 128,-1,52
 376 387 376 387 364 404 c 128,-1,53
 352 421 352 421 306.5 421 c 128,-1,54
 261 421 261 421 249 404 c 128,-1,55
 237 387 237 387 237 331.5 c 128,-1,48
 237 276 237 276 249 259 c 128,-1,49
EndSplineSet
EndChar

StartChar: A
Encoding: 65 65 36
Width: 590
GlyphClass: 2
Flags: HW
AnchorPoint: "Anchor-1" 294 0 basechar 0
AnchorPoint: "Anchor-0" 294 678 basechar 0
LayerCount: 2
Fore
SplineSet
331 636 m 1,0,-1
 563 31 l 2,1,2
 566 22 566 22 566 10 c 0,3,4
 566 -2 566 -2 555 -9 c 128,-1,5
 544 -16 544 -16 535 -16 c 0,6,7
 513 -16 513 -16 503 10 c 2,8,-1
 433 194 l 1,9,-1
 157 194 l 1,10,-1
 87 10 l 1,11,12
 76 -16 76 -16 55 -16 c 0,13,14
 46 -16 46 -16 35 -9 c 128,-1,15
 24 -2 24 -2 24 10 c 0,16,17
 24 22 24 22 27 31 c 2,18,-1
 259 636 l 1,19,-1
 331 636 l 1,0,-1
409 256 m 1,20,-1
 294 546 l 1,21,-1
 181 256 l 1,22,-1
 409 256 l 1,20,-1
EndSplineSet
EndChar

StartChar: B
Encoding: 66 66 37
Width: 624
GlyphClass: 2
Flags: HW
AnchorPoint: "Anchor-1" 304 0 basechar 0
AnchorPoint: "Anchor-0" 304 678 basechar 0
LayerCount: 2
Fore
SplineSet
343 317 m 2,0,-1
 146 317 l 1,1,-1
 146 62 l 1,2,-1
 331 62 l 2,3,4
 435 62 435 62 470.5 83 c 128,-1,5
 506 104 506 104 506 181 c 2,6,-1
 506 198 l 2,7,8
 506 275 506 275 472 296 c 128,-1,9
 438 317 438 317 343 317 c 2,0,-1
84 40 m 2,10,-1
 84 596 l 2,11,12
 84 636 84 636 113 636 c 2,13,-1
 297 636 l 2,14,15
 413 636 413 636 469.5 602.5 c 128,-1,16
 526 569 526 569 526 485.5 c 0,17,18
 526 402 526 402 482 365 c 1,19,20
 568 328 568 328 568 201 c 2,21,-1
 568 182 l 2,22,23
 568 73 568 73 512 36.5 c 128,-1,24
 456 0 456 0 331 0 c 2,25,-1
 113 0 l 2,26,27
 84 0 84 0 84 40 c 2,10,-1
297 379 m 2,28,29
 392 379 392 379 428 397.5 c 128,-1,30
 464 416 464 416 464 474.5 c 0,31,32
 464 533 464 533 427 551 c 128,-1,33
 390 569 390 569 297 569 c 2,34,-1
 146 569 l 1,35,-1
 146 379 l 1,36,-1
 297 379 l 2,28,29
EndSplineSet
EndChar

StartChar: C
Encoding: 67 67 38
Width: 610
GlyphClass: 2
Flags: HW
AnchorPoint: "Anchor-1" 320 0 basechar 0
AnchorPoint: "Anchor-0" 320 678 basechar 0
LayerCount: 2
Fore
SplineSet
450 0 m 2,0,-1
 309 0 l 2,1,2
 184 0 184 0 127.5 36.5 c 128,-1,3
 71 73 71 73 71 182 c 2,4,-1
 71 454 l 2,5,6
 71 562 71 562 125.5 599 c 128,-1,7
 180 636 180 636 297 636 c 2,8,-1
 450 636 l 2,9,10
 513 636 513 636 534 604 c 128,-1,11
 555 572 555 572 555 519 c 0,12,13
 555 479 555 479 524 479 c 128,-1,14
 493 479 493 479 493 514.5 c 0,15,16
 493 550 493 550 482.5 562 c 128,-1,17
 472 574 472 574 443 574 c 2,18,-1
 297 574 l 2,19,20
 201 574 201 574 167 552.5 c 128,-1,21
 133 531 133 531 133 453 c 2,22,-1
 133 183 l 2,23,24
 133 104 133 104 168.5 83 c 128,-1,25
 204 62 204 62 309 62 c 2,26,-1
 443 62 l 2,27,28
 472 62 472 62 482.5 74.5 c 128,-1,29
 493 87 493 87 493 122 c 0,30,31
 493 157 493 157 524 157 c 128,-1,32
 555 157 555 157 555 110.5 c 0,33,34
 555 64 555 64 534 32 c 128,-1,35
 513 0 513 0 450 0 c 2,0,-1
EndSplineSet
EndChar

StartChar: D
Encoding: 68 68 39
Width: 639
GlyphClass: 2
Flags: HW
AnchorPoint: "Anchor-1" 333 0 basechar 0
AnchorPoint: "Anchor-0" 333 678 basechar 0
LayerCount: 2
Fore
SplineSet
568 454 m 2,0,-1
 568 182 l 2,1,2
 568 73 568 73 512 36.5 c 128,-1,3
 456 0 456 0 331 0 c 2,4,-1
 113 0 l 2,5,6
 84 0 84 0 84 40 c 2,7,-1
 84 596 l 2,8,9
 84 636 84 636 113 636 c 2,10,-1
 343 636 l 2,11,12
 459 636 459 636 513.5 599 c 128,-1,13
 568 562 568 562 568 454 c 2,0,-1
506 183 m 2,14,-1
 506 453 l 2,15,16
 506 532 506 532 472 553 c 128,-1,17
 438 574 438 574 343 574 c 2,18,-1
 146 574 l 1,19,-1
 146 62 l 1,20,-1
 331 62 l 2,21,22
 435 62 435 62 470.5 83 c 128,-1,23
 506 104 506 104 506 183 c 2,14,-1
EndSplineSet
EndChar

StartChar: E
Encoding: 69 69 40
Width: 617
GlyphClass: 2
Flags: HW
AnchorPoint: "Anchor-1" 333 0 basechar 0
AnchorPoint: "Anchor-0" 333 678 basechar 0
LayerCount: 2
Fore
SplineSet
146 327 m 1,0,-1
 146 62 l 1,1,-1
 529 62 l 2,2,3
 568 62 568 62 568 29 c 0,4,5
 568 0 568 0 529 0 c 2,6,-1
 113 0 l 2,7,8
 84 0 84 0 84 40 c 2,9,-1
 84 596 l 2,10,11
 84 636 84 636 113 636 c 2,12,-1
 529 636 l 2,13,14
 568 636 568 636 568 603 c 0,15,16
 568 574 568 574 529 574 c 2,17,-1
 146 574 l 1,18,-1
 146 389 l 1,19,-1
 408 389 l 2,20,21
 451 389 451 389 451 356 c 0,22,23
 451 327 451 327 408 327 c 2,24,-1
 146 327 l 1,0,-1
EndSplineSet
EndChar

StartChar: F
Encoding: 70 70 41
Width: 596
GlyphClass: 2
Flags: HW
AnchorPoint: "Anchor-1" 293 0 basechar 0
AnchorPoint: "Anchor-0" 333 678 basechar 0
LayerCount: 2
Fore
SplineSet
146 31 m 2,0,1
 146 -7 146 -7 115 -7 c 128,-1,2
 84 -7 84 -7 84 32 c 2,3,-1
 84 596 l 2,4,5
 84 636 84 636 113 636 c 2,6,-1
 529 636 l 2,7,8
 568 636 568 636 568 603 c 0,9,10
 568 574 568 574 529 574 c 2,11,-1
 146 574 l 1,12,-1
 146 389 l 1,13,-1
 408 389 l 2,14,15
 451 389 451 389 451 356 c 0,16,17
 451 327 451 327 408 327 c 2,18,-1
 146 327 l 1,19,-1
 146 31 l 2,0,1
EndSplineSet
EndChar

StartChar: G
Encoding: 71 71 42
Width: 625
GlyphClass: 2
Flags: HW
AnchorPoint: "Anchor-1" 320 0 basechar 0
AnchorPoint: "Anchor-0" 320 678 basechar 0
LayerCount: 2
Fore
SplineSet
493 241 m 1,0,-1
 364 241 l 2,1,2
 321 241 321 241 321 272 c 0,3,4
 321 303 321 303 364 303 c 2,5,-1
 555 303 l 1,6,-1
 555 112 l 2,7,8
 555 80 555 80 549 58 c 128,-1,9
 543 36 543 36 518.5 18 c 128,-1,10
 494 0 494 0 450 0 c 2,11,-1
 297 0 l 2,12,13
 180 0 180 0 125.5 36 c 128,-1,14
 71 72 71 72 71 179 c 2,15,-1
 71 457 l 2,16,17
 71 565 71 565 127.5 600.5 c 128,-1,18
 184 636 184 636 309 636 c 2,19,-1
 450 636 l 2,20,21
 513 636 513 636 534 604 c 128,-1,22
 555 572 555 572 555 525.5 c 0,23,24
 555 479 555 479 524 479 c 128,-1,25
 493 479 493 479 493 514.5 c 0,26,27
 493 550 493 550 482.5 562 c 128,-1,28
 472 574 472 574 443 574 c 2,29,-1
 309 574 l 2,30,31
 205 574 205 574 169 553 c 128,-1,32
 133 532 133 532 133 455 c 2,33,-1
 133 181 l 2,34,35
 133 104 133 104 167 83 c 128,-1,36
 201 62 201 62 297 62 c 2,37,-1
 443 62 l 2,38,39
 473 62 473 62 483 73.5 c 128,-1,40
 493 85 493 85 493 116 c 2,41,-1
 493 241 l 1,0,-1
EndSplineSet
EndChar

StartChar: H
Encoding: 72 72 43
Width: 652
GlyphClass: 2
Flags: HW
AnchorPoint: "Anchor-1" 326 0 basechar 0
AnchorPoint: "Anchor-0" 326 678 basechar 0
LayerCount: 2
Fore
SplineSet
146 31 m 2,0,1
 146 -7 146 -7 115 -7 c 128,-1,2
 84 -7 84 -7 84 31 c 2,3,-1
 84 604 l 2,4,5
 84 643 84 643 113 643 c 0,6,7
 146 643 146 643 146 604 c 2,8,-1
 146 374 l 1,9,-1
 506 374 l 1,10,-1
 506 604 l 2,11,12
 506 643 506 643 537 643 c 0,13,14
 568 643 568 643 568 604 c 2,15,-1
 568 31 l 2,16,17
 568 -7 568 -7 537 -7 c 0,18,19
 506 -7 506 -7 506 31 c 2,20,-1
 506 312 l 1,21,-1
 146 312 l 1,22,-1
 146 31 l 2,0,1
EndSplineSet
EndChar

StartChar: I
Encoding: 73 73 44
Width: 230
GlyphClass: 2
Flags: HW
AnchorPoint: "Anchor-1" 116 0 basechar 0
AnchorPoint: "Anchor-0" 116 678 basechar 0
LayerCount: 2
Fore
SplineSet
146 29 m 2,0,1
 146 -7 146 -7 115 -7 c 0,2,3
 84 -7 84 -7 84 29 c 2,4,-1
 84 606 l 2,5,6
 84 643 84 643 115 643 c 128,-1,7
 146 643 146 643 146 606 c 2,8,-1
 146 29 l 2,0,1
EndSplineSet
EndChar

StartChar: J
Encoding: 74 74 45
Width: 571
GlyphClass: 2
Flags: HW
AnchorPoint: "Anchor-1" 263 0 basechar 0
AnchorPoint: "Anchor-0" 459 678 basechar 0
LayerCount: 2
Fore
SplineSet
130 75.5 m 128,-1,1
 164 54 164 54 261.5 54 c 128,-1,2
 359 54 359 54 393.5 75 c 128,-1,3
 428 96 428 96 428 173 c 2,4,-1
 428 607 l 2,5,6
 428 643 428 643 459 643 c 128,-1,7
 490 643 490 643 490 606 c 2,8,-1
 490 171 l 2,9,10
 490 64 490 64 435 28 c 128,-1,11
 380 -8 380 -8 261.5 -8 c 128,-1,12
 143 -8 143 -8 88 29 c 128,-1,13
 33 66 33 66 33 177 c 0,14,15
 33 215 33 215 66 215 c 0,16,17
 80 215 80 215 88 204.5 c 128,-1,18
 96 194 96 194 96 177 c 0,19,0
 96 97 96 97 130 75.5 c 128,-1,1
EndSplineSet
EndChar

StartChar: K
Encoding: 75 75 46
Width: 539
GlyphClass: 2
Flags: HW
AnchorPoint: "Anchor-1" 283 0 basechar 0
AnchorPoint: "Anchor-0" 283 678 basechar 0
LayerCount: 2
Fore
SplineSet
522 48 m 2,0,1
 534 34 534 34 534 22 c 128,-1,2
 534 10 534 10 523.5 1.5 c 128,-1,3
 513 -7 513 -7 500.5 -7 c 128,-1,4
 488 -7 488 -7 474 10 c 1,5,-1
 194 319 l 1,6,-1
 146 261 l 1,7,-1
 146 30 l 2,8,9
 146 -7 146 -7 115 -7 c 128,-1,10
 84 -7 84 -7 84 29 c 2,11,-1
 84 606 l 2,12,13
 84 643 84 643 115 643 c 128,-1,14
 146 643 146 643 146 605 c 2,15,-1
 146 338 l 1,16,-1
 408 626 l 2,17,18
 423 643 423 643 435 643 c 128,-1,19
 447 643 447 643 457 634.5 c 128,-1,20
 467 626 467 626 467 613.5 c 128,-1,21
 467 601 467 601 456 588 c 2,22,-1
 237 355 l 1,23,-1
 522 48 l 2,0,1
EndSplineSet
EndChar

StartChar: L
Encoding: 76 76 47
Width: 535
GlyphClass: 2
Flags: HW
AnchorPoint: "Anchor-1" 303 0 basechar 0
AnchorPoint: "Anchor-0" 114 678 basechar 0
LayerCount: 2
Fore
SplineSet
113 0 m 2,0,1
 84 0 84 0 84 39 c 2,2,-1
 84 607 l 2,3,4
 84 643 84 643 115 643 c 128,-1,5
 146 643 146 643 146 607 c 2,6,-1
 146 62 l 1,7,-1
 474 62 l 2,8,9
 512 62 512 62 512 31 c 0,10,11
 512 0 512 0 474 0 c 2,12,-1
 113 0 l 2,0,1
EndSplineSet
EndChar

StartChar: M
Encoding: 77 77 48
Width: 673
GlyphClass: 2
Flags: HW
AnchorPoint: "Anchor-1" 336 0 basechar 0
AnchorPoint: "Anchor-0" 336 678 basechar 0
LayerCount: 2
Fore
SplineSet
359 289 m 2,0,1
 351 279 351 279 337.5 279 c 128,-1,2
 324 279 324 279 314 289 c 1,3,-1
 146 534 l 1,4,-1
 146 33 l 2,5,6
 146 -7 146 -7 115 -7 c 128,-1,7
 84 -7 84 -7 84 31 c 2,8,-1
 84 604 l 2,9,10
 84 643 84 643 113 643 c 0,11,12
 133 643 133 643 147 622 c 2,13,-1
 336 350 l 1,14,-1
 526 622 l 2,15,16
 541 643 541 643 559 643 c 0,17,18
 589 643 589 643 589 604 c 2,19,-1
 589 31 l 2,20,21
 589 -7 589 -7 558 -7 c 128,-1,22
 527 -7 527 -7 527 33 c 2,23,-1
 527 534 l 1,24,-1
 359 289 l 2,0,1
EndSplineSet
EndChar

StartChar: N
Encoding: 78 78 49
Width: 652
GlyphClass: 2
Flags: HW
AnchorPoint: "Anchor-1" 326 0 basechar 0
AnchorPoint: "Anchor-0" 326 678 basechar 0
LayerCount: 2
Fore
SplineSet
538 -7 m 0,0,1
 521 -7 521 -7 514 0 c 1,2,-1
 146 530 l 1,3,-1
 146 29 l 2,4,5
 146 -7 146 -7 115 -7 c 128,-1,6
 84 -7 84 -7 84 31 c 2,7,-1
 84 604 l 2,8,9
 84 643 84 643 113 643 c 0,10,11
 133 643 133 643 147 622 c 2,12,-1
 506 107 l 1,13,-1
 506 602 l 2,14,15
 506 643 506 643 537 643 c 0,16,17
 568 643 568 643 568 604 c 2,18,-1
 568 31 l 2,19,20
 568 -7 568 -7 538 -7 c 0,0,1
EndSplineSet
EndChar

StartChar: O
Encoding: 79 79 50
Width: 614
GlyphClass: 2
Flags: HW
AnchorPoint: "Anchor-1" 307 0 basechar 0
AnchorPoint: "Anchor-0" 307 678 basechar 0
LayerCount: 2
Fore
SplineSet
481.5 54.5 m 128,-1,1
 414 -9 414 -9 306.5 -9 c 128,-1,2
 199 -9 199 -9 132 54.5 c 128,-1,3
 65 118 65 118 65 229 c 2,4,-1
 65 407 l 2,5,6
 65 518 65 518 132 581.5 c 128,-1,7
 199 645 199 645 306.5 645 c 128,-1,8
 414 645 414 645 481.5 581.5 c 128,-1,9
 549 518 549 518 549 407 c 2,10,-1
 549 229 l 2,11,0
 549 118 549 118 481.5 54.5 c 128,-1,1
307 583 m 128,-1,13
 220 583 220 583 173.5 536 c 128,-1,14
 127 489 127 489 127 405 c 2,15,-1
 127 231 l 2,16,17
 127 146 127 146 173 99.5 c 128,-1,18
 219 53 219 53 307 53 c 128,-1,19
 395 53 395 53 441 99.5 c 128,-1,20
 487 146 487 146 487 231 c 2,21,-1
 487 405 l 2,22,23
 487 489 487 489 440.5 536 c 128,-1,12
 394 583 394 583 307 583 c 128,-1,13
EndSplineSet
EndChar

StartChar: P
Encoding: 80 80 51
Width: 560
GlyphClass: 2
Flags: HW
AnchorPoint: "Anchor-1" 305 0 basechar 0
AnchorPoint: "Anchor-0" 305 678 basechar 0
LayerCount: 2
Fore
SplineSet
146 29 m 2,0,1
 146 -7 146 -7 115 -7 c 0,2,3
 84 -7 84 -7 84 29 c 2,4,-1
 84 596 l 2,5,6
 84 636 84 636 113 636 c 2,7,-1
 299 636 l 2,8,9
 413 636 413 636 469.5 602.5 c 128,-1,10
 526 569 526 569 526 486 c 0,11,12
 526 403 526 403 478.5 362.5 c 128,-1,13
 431 322 431 322 345 322 c 2,14,-1
 146 322 l 1,15,-1
 146 29 l 2,0,1
299 384 m 2,16,17
 396 384 396 384 430 403 c 128,-1,18
 464 422 464 422 464 480 c 0,19,20
 464 538 464 538 428 556 c 128,-1,21
 392 574 392 574 299 574 c 2,22,-1
 146 574 l 1,23,-1
 146 384 l 1,24,-1
 299 384 l 2,16,17
EndSplineSet
EndChar

StartChar: Q
Encoding: 81 81 52
Width: 614
GlyphClass: 2
Flags: HW
AnchorPoint: "Anchor-1" 307 0 basechar 0
AnchorPoint: "Anchor-0" 307 678 basechar 0
LayerCount: 2
Fore
SplineSet
307 583 m 128,-1,1
 220 583 220 583 173.5 536 c 128,-1,2
 127 489 127 489 127 405 c 2,3,-1
 127 231 l 2,4,5
 127 146 127 146 173 99.5 c 128,-1,6
 219 53 219 53 307 53 c 0,7,8
 372 53 372 53 412 77 c 1,9,-1
 359 124 l 1,10,11
 344 135 344 135 344 148 c 128,-1,12
 344 161 344 161 353 171 c 128,-1,13
 362 181 362 181 377 181 c 128,-1,14
 392 181 392 181 407 166 c 2,15,-1
 457 118 l 1,16,17
 487 162 487 162 487 231 c 2,18,-1
 487 405 l 2,19,20
 487 489 487 489 440.5 536 c 128,-1,0
 394 583 394 583 307 583 c 128,-1,1
457 31 m 1,21,22
 397 -9 397 -9 298 -9 c 128,-1,23
 199 -9 199 -9 132 54.5 c 128,-1,24
 65 118 65 118 65 229 c 2,25,-1
 65 407 l 2,26,27
 65 518 65 518 132 581.5 c 128,-1,28
 199 645 199 645 306.5 645 c 128,-1,29
 414 645 414 645 481.5 581.5 c 128,-1,30
 549 518 549 518 549 407 c 2,31,-1
 549 229 l 2,32,33
 549 135 549 135 502 75 c 1,34,-1
 534 45 l 2,35,36
 546 33 546 33 546 20 c 128,-1,37
 546 7 546 7 537.5 -2.5 c 128,-1,38
 529 -12 529 -12 514.5 -12 c 128,-1,39
 500 -12 500 -12 489 -1 c 2,40,-1
 457 31 l 1,21,22
EndSplineSet
EndChar

StartChar: R
Encoding: 82 82 53
Width: 589
GlyphClass: 2
Flags: HW
AnchorPoint: "Anchor-1" 305 0 basechar 0
AnchorPoint: "Anchor-0" 305 678 basechar 0
LayerCount: 2
Fore
SplineSet
414 329 m 1,0,1
 446 294 446 294 475.5 220.5 c 128,-1,2
 505 147 505 147 519.5 93.5 c 128,-1,3
 534 40 534 40 534 27 c 0,4,5
 534 14 534 14 525 3.5 c 128,-1,6
 516 -7 516 -7 502 -7 c 0,7,8
 474 -7 474 -7 472 30 c 0,9,10
 470 67 470 67 431 170 c 128,-1,11
 392 273 392 273 333 317 c 1,12,-1
 146 317 l 1,13,-1
 146 29 l 2,14,15
 146 -7 146 -7 115 -7 c 0,16,17
 84 -7 84 -7 84 29 c 2,18,-1
 84 596 l 2,19,20
 84 636 84 636 113 636 c 2,21,-1
 297 636 l 2,22,23
 413 636 413 636 469.5 602.5 c 128,-1,24
 526 569 526 569 526 478 c 0,25,26
 526 418 526 418 496.5 380 c 128,-1,27
 467 342 467 342 414 329 c 1,0,1
146 379 m 1,28,-1
 297 379 l 2,29,30
 392 379 392 379 428 397 c 128,-1,31
 464 415 464 415 464 474 c 128,-1,32
 464 533 464 533 427.5 551 c 128,-1,33
 391 569 391 569 297 569 c 2,34,-1
 146 569 l 1,35,-1
 146 379 l 1,28,-1
EndSplineSet
EndChar

StartChar: S
Encoding: 83 83 54
Width: 628
GlyphClass: 2
Flags: HW
AnchorPoint: "Anchor-1" 303 0 basechar 0
AnchorPoint: "Anchor-0" 303 678 basechar 0
LayerCount: 2
Fore
SplineSet
147 549 m 128,-1,1
 123 516 123 516 123 478.5 c 128,-1,2
 123 441 123 441 139.5 414.5 c 128,-1,3
 156 388 156 388 179 382 c 1,4,-1
 435 332 l 2,5,6
 506 318 506 318 536.5 270 c 128,-1,7
 567 222 567 222 567 158 c 0,8,9
 567 94.2307692308 567 94.2307692308 530.5 46.5 c 0,10,11
 488.823529412 -8 488.823529412 -8 388 -8 c 2,12,-1
 298 -8 l 2,13,14
 174 -8 174 -8 117.5 29 c 128,-1,15
 61 66 61 66 61 177 c 0,16,17
 61 215 61 215 94 215 c 0,18,19
 108 215 108 215 116 204.5 c 128,-1,20
 124 194 124 194 124 177 c 0,21,22
 124 97 124 97 158.5 75.5 c 128,-1,23
 193 54 193 54 298 54 c 2,24,-1
 408 54 l 2,25,26
 444 54 444 54 467.5 73.5 c 0,27,28
 505 104.617021277 505 104.617021277 505 155.808510638 c 128,-1,29
 505 207 505 207 486.5 235.5 c 128,-1,30
 468 264 468 264 449 268 c 2,31,-1
 195 320 l 2,32,33
 123 335 123 335 92 373 c 128,-1,34
 61 411 61 411 61 479.5 c 128,-1,35
 61 548 61 548 105.5 596 c 128,-1,36
 150 644 150 644 253 644 c 2,37,-1
 329 644 l 2,38,39
 391 644 391 644 430.5 637.5 c 128,-1,40
 470 631 470 631 503.5 612 c 0,41,42
 567 575.985074627 567 575.985074627 567 461 c 0,43,44
 567 423 567 423 535 423 c 0,45,46
 521 423 521 423 512.5 433.5 c 128,-1,47
 504 444 504 444 504 473.5 c 128,-1,48
 504 503 504 503 496.5 527 c 128,-1,49
 489 551 489 551 465.5 563.5 c 128,-1,50
 442 576 442 576 413.5 579 c 128,-1,51
 385 582 385 582 329 582 c 2,52,-1
 227 582 l 2,53,0
 171 582 171 582 147 549 c 128,-1,1
EndSplineSet
EndChar

StartChar: T
Encoding: 84 84 55
Width: 500
GlyphClass: 2
Flags: HW
AnchorPoint: "Anchor-1" 250 0 basechar 0
AnchorPoint: "Anchor-0" 250 678 basechar 0
LayerCount: 2
Fore
SplineSet
435 636 m 2,0,1
 473 636 473 636 473 605 c 0,2,3
 473 574 473 574 435 574 c 2,4,-1
 285 574 l 1,5,-1
 285 29 l 2,6,7
 285 9 285 9 274 1 c 128,-1,8
 263 -7 263 -7 249 -7 c 0,9,10
 216 -7 216 -7 216 29 c 2,11,-1
 216 574 l 1,12,-1
 64 574 l 2,13,14
 26 574 26 574 26 605 c 128,-1,15
 26 636 26 636 64 636 c 2,16,-1
 435 636 l 2,0,1
EndSplineSet
EndChar

StartChar: U
Encoding: 85 85 56
Width: 640
GlyphClass: 2
Flags: HW
AnchorPoint: "Anchor-1" 320 0 basechar 0
AnchorPoint: "Anchor-0" 320 678 basechar 0
LayerCount: 2
Fore
SplineSet
500 607 m 2,0,1
 500 643 500 643 531 643 c 0,2,3
 562 643 562 643 562 606 c 2,4,-1
 562 229 l 2,5,6
 562 118 562 118 494.5 54.5 c 128,-1,7
 427 -9 427 -9 319.5 -9 c 0,8,9
 212 -9 212 -9 145 54.5 c 128,-1,10
 78 118 78 118 78 229 c 2,11,-1
 78 606 l 2,12,13
 78 643 78 643 109 643 c 128,-1,14
 140 643 140 643 140 607 c 2,15,-1
 140 231 l 2,16,17
 140 146 140 146 186 99.5 c 128,-1,18
 232 53 232 53 320 53 c 128,-1,19
 408 53 408 53 454 99.5 c 128,-1,20
 500 146 500 146 500 231 c 2,21,-1
 500 607 l 2,0,1
EndSplineSet
EndChar

StartChar: V
Encoding: 86 86 57
Width: 590
GlyphClass: 2
Flags: HW
AnchorPoint: "Anchor-1" 294 0 basechar 0
AnchorPoint: "Anchor-0" 294 678 basechar 0
LayerCount: 2
Fore
SplineSet
503 626 m 2,0,1
 514 652 514 652 535 652 c 0,2,3
 544 652 544 652 555 645 c 128,-1,4
 566 638 566 638 566 626 c 0,5,6
 566 614 566 614 563 605 c 2,7,-1
 331 0 l 1,8,-1
 259 0 l 1,9,-1
 27 605 l 2,10,11
 24 614 24 614 24 626 c 0,12,13
 24 638 24 638 35 645 c 128,-1,14
 46 652 46 652 55 652 c 0,15,16
 75 652 75 652 87 626 c 1,17,-1
 296 90 l 1,18,-1
 503 626 l 2,0,1
EndSplineSet
EndChar

StartChar: W
Encoding: 87 87 58
Width: 935
GlyphClass: 2
Flags: HW
AnchorPoint: "Anchor-1" 467 0 basechar 0
AnchorPoint: "Anchor-0" 467 678 basechar 0
LayerCount: 2
Fore
SplineSet
679 84 m 1,0,-1
 846 624 l 1,1,2
 856 649 856 649 882 649 c 0,3,4
 908 649 908 649 908 624 c 0,5,6
 908 618 908 618 904 606 c 2,7,-1
 711 0 l 1,8,-1
 645 0 l 1,9,-1
 467 542 l 1,10,-1
 290 0 l 1,11,-1
 225 0 l 1,12,-1
 31 610 l 2,13,14
 27 622 27 622 27 628 c 0,15,16
 27 653 27 653 53 653 c 0,17,18
 79 653 79 653 89 628 c 1,19,-1
 258 84 l 1,20,-1
 432 623 l 2,21,22
 442 652 442 652 468.5 652 c 0,23,24
 495 652 495 652 504 622 c 2,25,-1
 679 84 l 1,0,-1
EndSplineSet
EndChar

StartChar: X
Encoding: 88 88 59
Width: 582
GlyphClass: 2
Flags: HW
AnchorPoint: "Anchor-1" 291 0 basechar 0
AnchorPoint: "Anchor-0" 291 678 basechar 0
LayerCount: 2
Fore
SplineSet
485 623 m 2,0,1
 500 643 500 643 512 643 c 128,-1,2
 524 643 524 643 534.5 635.5 c 128,-1,3
 545 628 545 628 545 614.5 c 128,-1,4
 545 601 545 601 536 589 c 2,5,-1
 332 317 l 1,6,-1
 536 46 l 2,7,8
 545 34 545 34 545 21 c 128,-1,9
 545 8 545 8 535 0.5 c 128,-1,10
 525 -7 525 -7 512 -7 c 128,-1,11
 499 -7 499 -7 485 11 c 2,12,-1
 291 273 l 1,13,-1
 98 11 l 2,14,15
 85 -7 85 -7 71 -7 c 128,-1,16
 57 -7 57 -7 47.5 1 c 128,-1,17
 38 9 38 9 38 21.5 c 128,-1,18
 38 34 38 34 47 46 c 2,19,-1
 251 317 l 1,20,-1
 47 589 l 2,21,22
 38 600 38 600 38 611.5 c 128,-1,23
 38 623 38 623 44.5 631 c 0,24,25
 54.25 643 54.25 643 69.125 643 c 128,-1,26
 84 643 84 643 98 623 c 2,27,-1
 291 362 l 1,28,-1
 485 623 l 2,0,1
EndSplineSet
EndChar

StartChar: Y
Encoding: 89 89 60
Width: 541
GlyphClass: 2
Flags: HW
AnchorPoint: "Anchor-1" 270 0 basechar 0
AnchorPoint: "Anchor-0" 270 678 basechar 0
LayerCount: 2
Fore
SplineSet
238 307 m 1,0,-1
 26 590 l 1,1,2
 17 604 17 604 17 615 c 0,3,4
 17 626 17 626 26.5 634.5 c 128,-1,5
 36 643 36 643 48.5 643 c 0,6,7
 61 643 61 643 76 623 c 2,8,-1
 270 362 l 1,9,-1
 463 623 l 2,10,11
 479 643 479 643 491 643 c 0,12,13
 503 643 503 643 513 634.5 c 128,-1,14
 523 626 523 626 523 615 c 0,15,16
 523 604 523 604 514 590 c 1,17,-1
 303 307 l 1,18,-1
 303 28 l 2,19,20
 303 -7 303 -7 270.5 -7 c 0,21,22
 238 -7 238 -7 238 28 c 2,23,-1
 238 307 l 1,0,-1
EndSplineSet
EndChar

StartChar: Z
Encoding: 90 90 61
Width: 580
GlyphClass: 2
Flags: HW
AnchorPoint: "Anchor-1" 282 0 basechar 0
AnchorPoint: "Anchor-0" 282 678 basechar 0
LayerCount: 2
Fore
SplineSet
49 0 m 1,0,-1
 49 58 l 1,1,-1
 455 574 l 1,2,-1
 89 574 l 2,3,4
 48 574 48 574 48 605 c 128,-1,5
 48 636 48 636 89 636 c 2,6,-1
 532 636 l 1,7,-1
 532 576 l 1,8,-1
 128 62 l 1,9,-1
 492 62 l 2,10,11
 532 62 532 62 532 31 c 0,12,13
 532 0 532 0 492 0 c 2,14,-1
 49 0 l 1,0,-1
EndSplineSet
EndChar

StartChar: bracketleft
Encoding: 91 91 62
Width: 267
GlyphClass: 2
Flags: HW
LayerCount: 2
Fore
SplineSet
142 10 m 1,0,-1
 220 10 l 1,1,-1
 220 -52 l 1,2,-1
 80 -52 l 1,3,-1
 80 688 l 1,4,-1
 220 688 l 1,5,-1
 220 626 l 1,6,-1
 142 626 l 1,7,-1
 142 10 l 1,0,-1
EndSplineSet
EndChar

StartChar: backslash
Encoding: 92 92 63
Width: 367
GlyphClass: 2
Flags: HW
LayerCount: 2
Fore
SplineSet
45 606 m 1,0,1
 42 621 42 621 42 631 c 0,2,3
 42 641 42 641 52.5 648 c 128,-1,4
 63 655 63 655 74 655 c 0,5,6
 94 655 94 655 104 629 c 2,7,-1
 322 30 l 1,8,9
 325 18 325 18 325 7 c 0,10,11
 325 -4 325 -4 314.5 -11 c 128,-1,12
 304 -18 304 -18 294 -18 c 0,13,14
 273 -18 273 -18 263 8 c 2,15,-1
 45 606 l 1,0,1
EndSplineSet
EndChar

StartChar: bracketright
Encoding: 93 93 64
Width: 267
GlyphClass: 2
Flags: HW
LayerCount: 2
Fore
SplineSet
125 10 m 1,0,-1
 125 626 l 1,1,-1
 47 626 l 1,2,-1
 47 688 l 1,3,-1
 187 688 l 1,4,-1
 187 -52 l 1,5,-1
 47 -52 l 1,6,-1
 47 10 l 1,7,-1
 125 10 l 1,0,-1
EndSplineSet
EndChar

StartChar: asciicircum
Encoding: 94 94 65
Width: 443
GlyphClass: 2
Flags: HW
LayerCount: 2
Fore
SplineSet
136 379 m 2,0,1
 126 355 126 355 103 355 c 0,2,3
 91 355 91 355 83 363 c 128,-1,4
 75 371 75 371 75 381.5 c 0,5,6
 75 392 75 392 77 397 c 2,7,-1
 189 646 l 1,8,-1
 255 646 l 1,9,-1
 366 397 l 2,10,11
 368 392 368 392 368 383 c 0,12,13
 368 355 368 355 340 355 c 0,14,15
 318 355 318 355 306 379 c 1,16,-1
 222 569 l 1,17,-1
 136 379 l 2,0,1
EndSplineSet
EndChar

StartChar: underscore
Encoding: 95 95 66
Width: 475
GlyphClass: 2
Flags: HW
LayerCount: 2
Fore
SplineSet
28 10 m 2,0,-1
 447 10 l 2,1,2
 485 10 485 10 485 -21 c 0,3,4
 485 -52 485 -52 447 -52 c 2,5,-1
 28 -52 l 2,6,7
 -10 -52 -10 -52 -10 -21 c 0,8,9
 -10 10 -10 10 28 10 c 2,0,-1
EndSplineSet
EndChar

StartChar: grave
Encoding: 96 96 67
Width: 212
GlyphClass: 2
Flags: HW
LayerCount: 2
Fore
SplineSet
83 671 m 2,0,-1
 179 556 l 2,1,2
 189 544 189 544 189 530.5 c 0,3,4
 189 517 189 517 179.5 508.5 c 128,-1,5
 170 500 170 500 157.5 500 c 0,6,7
 145 500 145 500 130 517 c 2,8,-1
 34 632 l 2,9,10
 24 643 24 643 24 657 c 128,-1,11
 24 671 24 671 33.5 679.5 c 128,-1,12
 43 688 43 688 55.5 688 c 0,13,14
 68 688 68 688 83 671 c 2,0,-1
EndSplineSet
EndChar

StartChar: a
Encoding: 97 97 68
Width: 573
GlyphClass: 2
Flags: HW
AnchorPoint: "Anchor-1" 262 0 basechar 0
AnchorPoint: "Anchor-0" 287 510 basechar 0
LayerCount: 2
Fore
SplineSet
298 238 m 2,0,1
 192 238 192 238 157 217.5 c 128,-1,2
 122 197 122 197 122 121 c 0,3,4
 122 98 122 98 138 80 c 128,-1,5
 154 62 154 62 172 62 c 2,6,-1
 265 62 l 2,7,8
 440 62 440 62 440 228 c 2,9,-1
 440 238 l 1,10,-1
 298 238 l 2,0,1
298 300 m 2,11,-1
 440 300 l 1,12,-1
 440 350 l 2,13,14
 440 378 440 378 429.5 388.5 c 128,-1,15
 419 399 419 399 390 399 c 2,16,-1
 249 399 l 2,17,18
 122 399 122 399 122 344 c 0,19,20
 122 304 122 304 91 304 c 0,21,22
 60 304 60 304 60 344 c 0,23,24
 60 461 60 461 242 461 c 2,25,-1
 397 461 l 2,26,27
 458 461 458 461 480 432 c 128,-1,28
 502 403 502 403 502 333 c 2,29,-1
 502 31 l 2,30,31
 502 -7 502 -7 471 -7 c 128,-1,32
 440 -7 440 -7 440 33 c 2,33,-1
 440 56 l 1,34,35
 381 0 381 0 265 0 c 2,36,-1
 172 0 l 2,37,38
 123 0 123 0 91.5 34.5 c 128,-1,39
 60 69 60 69 60 126 c 0,40,41
 60 228 60 228 117.5 264 c 128,-1,42
 175 300 175 300 298 300 c 2,11,-1
EndSplineSet
EndChar

StartChar: b
Encoding: 98 98 69
Width: 641
GlyphClass: 2
Flags: HW
AnchorPoint: "Anchor-1" 337 0 basechar 0
AnchorPoint: "Anchor-0" 347 510 basechar 0
LayerCount: 2
Fore
SplineSet
137 405 m 1,0,1
 197 461 197 461 313 461 c 2,2,-1
 342 461 l 2,3,4
 466 461 466 461 522.5 425 c 128,-1,5
 579 389 579 389 579 284 c 2,6,-1
 579 177 l 2,7,8
 579 72 579 72 522.5 36 c 128,-1,9
 466 0 466 0 342 0 c 2,10,-1
 313 0 l 2,11,12
 197 0 197 0 137 56 c 1,13,-1
 137 33 l 2,14,15
 137 -7 137 -7 106 -7 c 128,-1,16
 75 -7 75 -7 75 31 c 2,17,-1
 75 602 l 2,18,19
 75 643 75 643 104 643 c 0,20,21
 137 643 137 643 137 602 c 2,22,-1
 137 405 l 1,0,1
313 399 m 2,23,24
 137 399 137 399 137 232 c 2,25,-1
 137 228 l 2,26,27
 137 62 137 62 313 62 c 2,28,-1
 342 62 l 2,29,30
 446 62 446 62 481.5 82 c 128,-1,31
 517 102 517 102 517 179 c 2,32,-1
 517 282 l 2,33,34
 517 359 517 359 481.5 379 c 128,-1,35
 446 399 446 399 342 399 c 2,36,-1
 313 399 l 2,23,24
EndSplineSet
EndChar

StartChar: c
Encoding: 99 99 70
Width: 604
GlyphClass: 2
Flags: HW
AnchorPoint: "Anchor-1" 324 0 basechar 0
AnchorPoint: "Anchor-0" 324 510 basechar 0
LayerCount: 2
Fore
SplineSet
441 0 m 2,0,-1
 300 0 l 2,1,2
 175 0 175 0 118.5 36 c 128,-1,3
 62 72 62 72 62 177 c 2,4,-1
 62 284 l 2,5,6
 62 389 62 389 118.5 425 c 128,-1,7
 175 461 175 461 300 461 c 2,8,-1
 441 461 l 2,9,10
 507.888888889 461 507.888888889 461 529 423 c 0,11,12
 546 392.4 546 392.4 546 348.2 c 128,-1,13
 546 304 546 304 515 304 c 128,-1,14
 484 304 484 304 484 339.5 c 128,-1,15
 484 375 484 375 473.5 387 c 128,-1,16
 463 399 463 399 434 399 c 2,17,-1
 300 399 l 2,18,19
 194 399 194 399 159 378.5 c 128,-1,20
 124 358 124 358 124 282 c 2,21,-1
 124 179 l 2,22,23
 124 103 124 103 159 82.5 c 128,-1,24
 194 62 194 62 300 62 c 2,25,-1
 434 62 l 2,26,27
 463 62 463 62 473.5 74.5 c 128,-1,28
 484 87 484 87 484 122 c 128,-1,29
 484 157 484 157 515 157 c 128,-1,30
 546 157 546 157 546 110.5 c 128,-1,31
 546 64 546 64 525 32 c 128,-1,32
 504 0 504 0 441 0 c 2,0,-1
EndSplineSet
EndChar

StartChar: d
Encoding: 100 100 71
Width: 641
GlyphClass: 2
Flags: HW
AnchorPoint: "Anchor-1" 304 0 basechar 0
AnchorPoint: "Anchor-0" 294 510 basechar 0
LayerCount: 2
Fore
SplineSet
124 179 m 2,0,1
 124 102 124 102 159.5 82 c 128,-1,2
 195 62 195 62 299 62 c 2,3,-1
 328 62 l 2,4,5
 504 62 504 62 504 229 c 2,6,-1
 504 399 l 1,7,-1
 297 399 l 2,8,9
 194 399 194 399 159 379 c 128,-1,10
 124 359 124 359 124 282 c 2,11,-1
 124 179 l 2,0,1
62 284 m 2,12,13
 62 389 62 389 118 425 c 128,-1,14
 174 461 174 461 297 461 c 2,15,-1
 504 461 l 1,16,-1
 504 603 l 2,17,18
 504 643 504 643 537 643 c 0,19,20
 566 643 566 643 566 603 c 2,21,-1
 566 31 l 2,22,23
 566 -7 566 -7 535 -7 c 128,-1,24
 504 -7 504 -7 504 33 c 2,25,-1
 504 56 l 1,26,27
 444 0 444 0 328 0 c 2,28,-1
 299 0 l 2,29,30
 175 0 175 0 118.5 36 c 128,-1,31
 62 72 62 72 62 177 c 2,32,-1
 62 284 l 2,12,13
EndSplineSet
EndChar

StartChar: e
Encoding: 101 101 72
Width: 626
GlyphClass: 2
Flags: HW
AnchorPoint: "Anchor-1" 324 0 basechar 0
AnchorPoint: "Anchor-0" 324 510 basechar 0
LayerCount: 2
Fore
SplineSet
566 284 m 2,0,-1
 566 240 l 1,1,-1
 124 240 l 1,2,-1
 124 179 l 2,3,4
 124 103 124 103 159 82.5 c 128,-1,5
 194 62 194 62 300 62 c 2,6,-1
 454 62 l 2,7,8
 483 62 483 62 493.5 74.5 c 128,-1,9
 504 87 504 87 504 122 c 0,10,11
 504 157 504 157 535 157 c 128,-1,12
 566 157 566 157 566 110.5 c 0,13,14
 566 64 566 64 545 32 c 128,-1,15
 524 0 524 0 461 0 c 2,16,-1
 300 0 l 2,17,18
 175 0 175 0 118.5 36 c 128,-1,19
 62 72 62 72 62 177 c 2,20,-1
 62 284 l 2,21,22
 62 389 62 389 118.5 425 c 128,-1,23
 175 461 175 461 300 461 c 2,24,-1
 329 461 l 2,25,26
 453 461 453 461 509.5 425 c 128,-1,27
 566 389 566 389 566 284 c 2,0,-1
329 399 m 2,28,-1
 300 399 l 2,29,30
 198 399 198 399 162 381.5 c 128,-1,31
 126 364 126 364 124 302 c 1,32,-1
 504 302 l 1,33,34
 502 364 502 364 466 381.5 c 128,-1,35
 430 399 430 399 329 399 c 2,28,-1
EndSplineSet
EndChar

StartChar: f
Encoding: 102 102 73
Width: 334
GlyphClass: 2
Flags: HW
AnchorPoint: "Anchor-1" 110 0 basechar 0
AnchorPoint: "Anchor-0" 281 678 basechar 0
LayerCount: 2
Fore
SplineSet
298 574 m 0,0,1
 209 574 209 574 176 554 c 128,-1,2
 143 534 143 534 142 461 c 1,3,-1
 275 461 l 2,4,5
 316 461 316 461 316 428 c 0,6,7
 316 399 316 399 275 399 c 2,8,-1
 142 399 l 1,9,-1
 142 32 l 2,10,11
 142 -7 142 -7 109 -7 c 0,12,13
 80 -7 80 -7 80 32 c 2,14,-1
 80 402 l 1,15,16
 49 406 49 406 49 433 c 0,17,18
 49 457 49 457 80 461 c 1,19,20
 81.973918198 569.565500889 81.973918198 569.565500889 143 605 c 0,21,22
 174 623 174 623 209.5 629.5 c 128,-1,23
 245 636 245 636 298 636 c 0,24,25
 339 636 339 636 339 603 c 0,26,27
 339 574 339 574 298 574 c 0,0,1
EndSplineSet
EndChar

StartChar: g
Encoding: 103 103 74
Width: 641
GlyphClass: 2
Flags: HW
AnchorPoint: "Anchor-1" 304 0 basechar 0
AnchorPoint: "Anchor-0" 304 510 basechar 0
LayerCount: 2
Fore
SplineSet
566 -82 m 2,0,1
 566 -149 566 -149 546 -177 c 128,-1,2
 526 -205 526 -205 470 -205 c 2,3,-1
 167 -205 l 2,4,5
 100.111111111 -205 100.111111111 -205 79 -167 c 0,6,7
 62 -136.4 62 -136.4 62 -92.2 c 128,-1,8
 62 -48 62 -48 93 -48 c 128,-1,9
 124 -48 124 -48 124 -83.5 c 128,-1,10
 124 -119 124 -119 134.5 -131 c 128,-1,11
 145 -143 145 -143 174 -143 c 2,12,-1
 463 -143 l 2,13,14
 489 -143 489 -143 496.5 -134.5 c 128,-1,15
 504 -126 504 -126 504 -98 c 2,16,-1
 504 0 l 1,17,-1
 298 0 l 2,18,19
 174 0 174 0 118 36 c 128,-1,20
 62 72 62 72 62 177 c 2,21,-1
 62 284 l 2,22,23
 62 389 62 389 118.5 425 c 128,-1,24
 175 461 175 461 299 461 c 2,25,-1
 328 461 l 2,26,27
 444 461 444 461 504 405 c 1,28,-1
 504 428 l 2,29,30
 504 468 504 468 535 468 c 128,-1,31
 566 468 566 468 566 430 c 2,32,-1
 566 -82 l 2,0,1
298 62 m 2,33,-1
 504 62 l 1,34,-1
 504 233 l 2,35,36
 504 399 504 399 328 399 c 2,37,-1
 299 399 l 2,38,39
 195 399 195 399 159.5 379 c 128,-1,40
 124 359 124 359 124 282 c 2,41,-1
 124 179 l 2,42,43
 124 102 124 102 159 82 c 128,-1,44
 194 62 194 62 298 62 c 2,33,-1
EndSplineSet
EndChar

StartChar: h
Encoding: 104 104 75
Width: 648
GlyphClass: 2
Flags: HW
AnchorPoint: "Anchor-1" 322 0 basechar 0
AnchorPoint: "Anchor-0" 337 510 basechar 0
LayerCount: 2
Fore
SplineSet
313 399 m 2,0,1
 137 399 137 399 137 230 c 2,2,-1
 137 31 l 2,3,4
 137 -7 137 -7 106 -7 c 128,-1,5
 75 -7 75 -7 75 31 c 2,6,-1
 75 602 l 2,7,8
 75 643 75 643 104 643 c 0,9,10
 137 643 137 643 137 602 c 2,11,-1
 137 405 l 1,12,13
 197 461 197 461 313 461 c 2,14,-1
 342 461 l 2,15,16
 466 461 466 461 522.5 425 c 128,-1,17
 579 389 579 389 579 284 c 2,18,-1
 579 31 l 2,19,20
 579 -7 579 -7 548 -7 c 0,21,22
 517 -7 517 -7 517 31 c 2,23,-1
 517 282 l 2,24,25
 517 359 517 359 481.5 379 c 128,-1,26
 446 399 446 399 342 399 c 2,27,-1
 313 399 l 2,0,1
EndSplineSet
EndChar

StartChar: i
Encoding: 105 105 76
Width: 208
GlyphClass: 2
Flags: HW
AnchorPoint: "Anchor-1" 104 0 basechar 0
AnchorPoint: "Anchor-0" 104 678 basechar 0
LayerCount: 2
Fore
SplineSet
73 20 m 2,0,-1
 73 440 l 2,1,2
 73 478 73 478 104 478 c 128,-1,3
 135 478 135 478 135 440 c 2,4,-1
 135 20 l 2,5,6
 135 -17 135 -17 104 -17 c 0,7,8
 73 -17 73 -17 73 20 c 2,0,-1
160 601 m 128,-1,10
 160 582 160 582 141 568.5 c 128,-1,11
 122 555 122 555 103.5 555 c 0,12,13
 85 555 85 555 66.5 568.5 c 128,-1,14
 48 582 48 582 48 601.5 c 0,15,16
 48 621 48 621 66 634 c 128,-1,17
 84 647 84 647 103.5 647 c 0,18,19
 123 647 123 647 141.5 633.5 c 128,-1,9
 160 620 160 620 160 601 c 128,-1,10
EndSplineSet
EndChar

StartChar: j
Encoding: 106 106 77
Width: 212
GlyphClass: 2
Flags: HW
AnchorPoint: "Anchor-1" 105 -175 basechar 0
AnchorPoint: "Anchor-0" 106 678 basechar 0
LayerCount: 2
Fore
SplineSet
162 601 m 128,-1,1
 162 582 162 582 143 568.5 c 128,-1,2
 124 555 124 555 105.5 555 c 128,-1,3
 87 555 87 555 68.5 568.5 c 128,-1,4
 50 582 50 582 50 601.5 c 128,-1,5
 50 621 50 621 68 634 c 128,-1,6
 86 647 86 647 105.5 647 c 128,-1,7
 125 647 125 647 143.5 633.5 c 128,-1,0
 162 620 162 620 162 601 c 128,-1,1
137 0 m 2,8,9
 137 -109.580645161 137 -109.580645161 76 -145 c 0,10,11
 45 -163 45 -163 9 -169 c 128,-1,12
 -27 -175 -27 -175 -81 -175 c 0,13,14
 -122 -175 -122 -175 -122 -144 c 128,-1,15
 -122 -113 -122 -113 -81 -113 c 0,16,17
 10 -113 10 -113 42.5 -93 c 128,-1,18
 75 -73 75 -73 75 0 c 2,19,-1
 75 427 l 2,20,21
 75 468 75 468 106 468 c 128,-1,22
 137 468 137 468 137 427 c 2,23,-1
 137 0 l 2,8,9
EndSplineSet
EndChar

StartChar: k
Encoding: 107 107 78
Width: 476
GlyphClass: 2
Flags: HW
AnchorPoint: "Anchor-1" 272 0 basechar 0
AnchorPoint: "Anchor-0" 272 510 basechar 0
LayerCount: 2
Fore
SplineSet
450 50 m 2,0,1
 462 40 462 40 462 26.5 c 128,-1,2
 462 13 462 13 453.5 3.5 c 128,-1,3
 445 -6 445 -6 432.5 -6 c 128,-1,4
 420 -6 420 -6 405 7 c 2,5,-1
 161 233 l 1,6,-1
 137 209 l 1,7,-1
 137 30 l 2,8,9
 137 -7 137 -7 106 -7 c 128,-1,10
 75 -7 75 -7 75 28 c 2,11,-1
 75 605 l 2,12,13
 75 643 75 643 106 643 c 128,-1,14
 137 643 137 643 137 605 c 2,15,-1
 137 276 l 1,16,-1
 332 453 l 2,17,18
 345 466 345 466 358 466 c 128,-1,19
 371 466 371 466 380.5 457.5 c 128,-1,20
 390 449 390 449 390 435.5 c 128,-1,21
 390 422 390 422 376 410 c 2,22,-1
 205 264 l 1,23,-1
 450 50 l 2,0,1
EndSplineSet
EndChar

StartChar: l
Encoding: 108 108 79
Width: 283
GlyphClass: 2
Flags: HW
AnchorPoint: "Anchor-1" 183 0 basechar 0
AnchorPoint: "Anchor-0" 123 678 basechar 0
LayerCount: 2
Fore
SplineSet
203 0 m 2,0,-1
 196 0 l 2,1,2
 135 0 135 0 113 30 c 128,-1,3
 91 60 91 60 91 130 c 2,4,-1
 91 603 l 2,5,6
 91 643 91 643 122 643 c 128,-1,7
 153 643 153 643 153 603 c 2,8,-1
 153 114 l 2,9,10
 153 84 153 84 163.5 73 c 128,-1,11
 174 62 174 62 203 62 c 0,12,13
 243 62 243 62 243 31 c 0,14,15
 243 0 243 0 203 0 c 2,0,-1
EndSplineSet
EndChar

StartChar: m
Encoding: 109 109 80
Width: 850
GlyphClass: 2
Flags: HW
AnchorPoint: "Anchor-1" 427 0 basechar 0
AnchorPoint: "Anchor-0" 427 510 basechar 0
LayerCount: 2
Fore
SplineSet
368 378.5 m 128,-1,1
 341 399 341 399 271.5 399 c 0,2,3
 136 399 136 399 136 230 c 2,4,-1
 136 31 l 2,5,6
 136 -7 136 -7 105 -7 c 128,-1,7
 74 -7 74 -7 74 31 c 2,8,-1
 74 429 l 2,9,10
 74 468 74 468 103 468 c 0,11,12
 136 468 136 468 136 427 c 2,13,-1
 136 406 l 1,14,15
 162 435 162 435 190.5 448 c 128,-1,16
 219 461 219 461 274.5 461 c 128,-1,17
 330 461 330 461 374 445.5 c 128,-1,18
 418 430 418 430 439 386 c 1,19,20
 493 461 493 461 588.5 461 c 128,-1,21
 684 461 684 461 731.5 424.5 c 128,-1,22
 779 388 779 388 779 284 c 2,23,-1
 779 31 l 2,24,25
 779 -7 779 -7 748 -7 c 128,-1,26
 717 -7 717 -7 717 31 c 2,27,-1
 717 282 l 2,28,29
 717 359 717 359 691.5 379 c 128,-1,30
 666 399 666 399 596.5 399 c 128,-1,31
 527 399 527 399 492 355.5 c 128,-1,32
 457 312 457 312 457 230 c 2,33,-1
 457 31 l 2,34,35
 457 -7 457 -7 426 -7 c 128,-1,36
 395 -7 395 -7 395 31 c 2,37,-1
 395 282 l 2,38,0
 395 358 395 358 368 378.5 c 128,-1,1
EndSplineSet
EndChar

StartChar: n
Encoding: 110 110 81
Width: 647
GlyphClass: 2
Flags: HW
AnchorPoint: "Anchor-1" 321 0 basechar 0
AnchorPoint: "Anchor-0" 326 510 basechar 0
LayerCount: 2
Fore
SplineSet
312 399 m 2,0,1
 136 399 136 399 136 230 c 2,2,-1
 136 31 l 2,3,4
 136 -7 136 -7 105 -7 c 128,-1,5
 74 -7 74 -7 74 31 c 2,6,-1
 74 429 l 2,7,8
 74 468 74 468 103 468 c 0,9,10
 136 468 136 468 136 427 c 2,11,-1
 136 405 l 1,12,13
 196 461 196 461 312 461 c 2,14,-1
 341 461 l 2,15,16
 465 461 465 461 521.5 425 c 128,-1,17
 578 389 578 389 578 284 c 2,18,-1
 578 31 l 2,19,20
 578 -7 578 -7 547 -7 c 0,21,22
 516 -7 516 -7 516 31 c 2,23,-1
 516 282 l 2,24,25
 516 359 516 359 480.5 379 c 128,-1,26
 445 399 445 399 341 399 c 2,27,-1
 312 399 l 2,0,1
EndSplineSet
EndChar

StartChar: o
Encoding: 111 111 82
Width: 628
GlyphClass: 2
Flags: HW
AnchorPoint: "Anchor-1" 314 0 basechar 0
AnchorPoint: "Anchor-0" 314 510 basechar 0
LayerCount: 2
Fore
SplineSet
329 0 m 2,0,-1
 300 0 l 2,1,2
 175 0 175 0 118.5 36 c 128,-1,3
 62 72 62 72 62 177 c 2,4,-1
 62 284 l 2,5,6
 62 389 62 389 118.5 425 c 128,-1,7
 175 461 175 461 300 461 c 2,8,-1
 329 461 l 2,9,10
 453 461 453 461 509.5 425 c 128,-1,11
 566 389 566 389 566 284 c 2,12,-1
 566 177 l 2,13,14
 566 72 566 72 509.5 36 c 128,-1,15
 453 0 453 0 329 0 c 2,0,-1
300 62 m 2,16,-1
 329 62 l 2,17,18
 433 62 433 62 468.5 82 c 128,-1,19
 504 102 504 102 504 179 c 2,20,-1
 504 282 l 2,21,22
 504 359 504 359 468.5 379 c 128,-1,23
 433 399 433 399 329 399 c 2,24,-1
 300 399 l 2,25,26
 194 399 194 399 159 378.5 c 128,-1,27
 124 358 124 358 124 282 c 2,28,-1
 124 179 l 2,29,30
 124 103 124 103 159 82.5 c 128,-1,31
 194 62 194 62 300 62 c 2,16,-1
EndSplineSet
EndChar

StartChar: p
Encoding: 112 112 83
Width: 641
GlyphClass: 2
Flags: HW
AnchorPoint: "Anchor-1" 327 0 basechar 0
AnchorPoint: "Anchor-0" 327 510 basechar 0
LayerCount: 2
Fore
SplineSet
517 282 m 2,0,1
 517 359 517 359 481.5 379 c 128,-1,2
 446 399 446 399 342 399 c 2,3,-1
 313 399 l 2,4,5
 137 399 137 399 137 232 c 2,6,-1
 137 62 l 1,7,-1
 344 62 l 2,8,9
 447 62 447 62 482 82 c 128,-1,10
 517 102 517 102 517 179 c 2,11,-1
 517 282 l 2,0,1
579 177 m 2,12,13
 579 72 579 72 523 36 c 128,-1,14
 467 0 467 0 344 0 c 2,15,-1
 137 0 l 1,16,-1
 137 -142 l 2,17,18
 137 -182 137 -182 104 -182 c 0,19,20
 75 -182 75 -182 75 -142 c 2,21,-1
 75 430 l 2,22,23
 75 468 75 468 106 468 c 128,-1,24
 137 468 137 468 137 428 c 2,25,-1
 137 405 l 1,26,27
 197 461 197 461 313 461 c 2,28,-1
 342 461 l 2,29,30
 466 461 466 461 522.5 425 c 128,-1,31
 579 389 579 389 579 284 c 2,32,-1
 579 177 l 2,12,13
EndSplineSet
EndChar

StartChar: q
Encoding: 113 113 84
Width: 641
GlyphClass: 2
Flags: HW
AnchorPoint: "Anchor-1" 296 0 basechar 0
AnchorPoint: "Anchor-0" 296 510 basechar 0
LayerCount: 2
Fore
SplineSet
124 282 m 2,0,-1
 124 179 l 2,1,2
 124 102 124 102 159 82 c 128,-1,3
 194 62 194 62 298 62 c 2,4,-1
 504 62 l 1,5,-1
 504 232 l 2,6,7
 504 399 504 399 329 399 c 2,8,-1
 300 399 l 2,9,10
 194 399 194 399 159 378.5 c 128,-1,11
 124 358 124 358 124 282 c 2,0,-1
62 177 m 2,12,-1
 62 284 l 2,13,14
 62 389 62 389 118.5 425 c 128,-1,15
 175 461 175 461 300 461 c 2,16,-1
 329 461 l 2,17,18
 445 461 445 461 504 405 c 1,19,-1
 504 428 l 2,20,21
 504 468 504 468 535 468 c 128,-1,22
 566 468 566 468 566 430 c 2,23,-1
 566 -142 l 2,24,25
 566 -182 566 -182 537 -182 c 0,26,27
 504 -182 504 -182 504 -142 c 2,28,-1
 504 0 l 1,29,-1
 298 0 l 2,30,31
 174 0 174 0 118 36 c 128,-1,32
 62 72 62 72 62 177 c 2,12,-1
EndSplineSet
EndChar

StartChar: r
Encoding: 114 114 85
Width: 395
GlyphClass: 2
Flags: HW
AnchorPoint: "Anchor-1" 208 0 basechar 0
AnchorPoint: "Anchor-0" 258 510 basechar 0
LayerCount: 2
Fore
SplineSet
292 399 m 2,0,1
 216 399 216 399 176 355.5 c 128,-1,2
 136 312 136 312 136 230 c 2,3,-1
 136 31 l 2,4,5
 136 -7 136 -7 105 -7 c 128,-1,6
 74 -7 74 -7 74 31 c 2,7,-1
 74 429 l 2,8,9
 74 468 74 468 103 468 c 0,10,11
 136 468 136 468 136 427 c 2,12,-1
 136 405 l 1,13,14
 196 461 196 461 292 461 c 2,15,-1
 338 461 l 2,16,17
 378 461 378 461 378 430 c 128,-1,18
 378 399 378 399 338 399 c 2,19,-1
 292 399 l 2,0,1
EndSplineSet
EndChar

StartChar: s
Encoding: 115 115 86
Width: 606
GlyphClass: 2
Flags: HW
AnchorPoint: "Anchor-1" 299 0 basechar 0
AnchorPoint: "Anchor-0" 309 510 basechar 0
LayerCount: 2
Fore
SplineSet
165 0 m 2,0,1
 102 0 102 0 81 32 c 128,-1,2
 60 64 60 64 60 110.5 c 128,-1,3
 60 157 60 157 91 157 c 128,-1,4
 122 157 122 157 122 122 c 128,-1,5
 122 87 122 87 132.5 74.5 c 128,-1,6
 143 62 143 62 172 62 c 2,7,-1
 430 62 l 2,8,9
 484 62 484 62 484 129 c 0,10,11
 484 163 484 163 469 184 c 128,-1,12
 454 205 454 205 430 205 c 2,13,-1
 194 205 l 2,14,15
 124 205 124 205 92 241 c 128,-1,16
 60 277 60 277 60 337.5 c 128,-1,17
 60 398 60 398 94 429.5 c 128,-1,18
 128 461 128 461 214 461 c 2,19,-1
 439 461 l 2,20,21
 505.888888889 461 505.888888889 461 527 423 c 0,22,23
 544 392.4 544 392.4 544 348.2 c 128,-1,24
 544 304 544 304 513 304 c 128,-1,25
 482 304 482 304 482 339.5 c 128,-1,26
 482 375 482 375 471.5 387 c 128,-1,27
 461 399 461 399 432 399 c 2,28,-1
 176 399 l 2,29,30
 122 399 122 399 122 337 c 0,31,32
 122 303 122 303 137 285 c 128,-1,33
 152 267 152 267 176 267 c 2,34,-1
 413 267 l 2,35,36
 485 267 485 267 515.5 227.5 c 128,-1,37
 546 188 546 188 546 127 c 128,-1,38
 546 66 546 66 512 33 c 128,-1,39
 478 0 478 0 393 0 c 2,40,-1
 165 0 l 2,0,1
EndSplineSet
EndChar

StartChar: t
Encoding: 116 116 87
Width: 358
GlyphClass: 2
Flags: HW
AnchorPoint: "Anchor-1" 262 0 basechar 0
AnchorPoint: "Anchor-0" 225 510 basechar 0
LayerCount: 2
Fore
SplineSet
140 179 m 2,0,1
 140 103 140 103 173 82.5 c 128,-1,2
 206 62 206 62 296 62 c 0,3,4
 336 62 336 62 336 33 c 0,5,6
 336 0 336 0 296 0 c 0,7,8
 186 0 186 0 132 36.5 c 128,-1,9
 78 73 78 73 78 177 c 2,10,-1
 78 402 l 1,11,12
 47 404 47 404 47 433 c 0,13,14
 47 457 47 457 78 461 c 1,15,-1
 78 560 l 2,16,17
 78 601 78 601 107 601 c 0,18,19
 140 601 140 601 140 560 c 2,20,-1
 140 461 l 1,21,-1
 273 461 l 2,22,23
 314 461 314 461 314 428 c 0,24,25
 314 399 314 399 273 399 c 2,26,-1
 140 399 l 1,27,-1
 140 179 l 2,0,1
EndSplineSet
EndChar

StartChar: u
Encoding: 117 117 88
Width: 647
GlyphClass: 2
Flags: HW
AnchorPoint: "Anchor-1" 321 0 basechar 0
AnchorPoint: "Anchor-0" 321 510 basechar 0
LayerCount: 2
Fore
SplineSet
335 62 m 2,0,1
 511 62 511 62 511 231 c 2,2,-1
 511 430 l 2,3,4
 511 468 511 468 542 468 c 128,-1,5
 573 468 573 468 573 430 c 2,6,-1
 573 32 l 2,7,8
 573 -7 573 -7 544 -7 c 0,9,10
 511 -7 511 -7 511 34 c 2,11,-1
 511 56 l 1,12,13
 451 0 451 0 335 0 c 2,14,-1
 306 0 l 2,15,16
 182 0 182 0 125.5 36 c 128,-1,17
 69 72 69 72 69 177 c 2,18,-1
 69 430 l 2,19,20
 69 468 69 468 100 468 c 0,21,22
 131 468 131 468 131 430 c 2,23,-1
 131 179 l 2,24,25
 131 102 131 102 166.5 82 c 128,-1,26
 202 62 202 62 306 62 c 2,27,-1
 335 62 l 2,0,1
EndSplineSet
EndChar

StartChar: v
Encoding: 118 118 89
Width: 521
GlyphClass: 2
Flags: HW
AnchorPoint: "Anchor-1" 258 0 basechar 0
AnchorPoint: "Anchor-0" 258 510 basechar 0
LayerCount: 2
Fore
SplineSet
213 0 m 1,0,-1
 33 434 l 2,1,2
 29 444 29 444 29 450 c 0,3,4
 29 478 29 478 58 478 c 0,5,6
 78 478 78 478 91 453 c 1,7,-1
 258 63 l 1,8,-1
 431 454 l 2,9,10
 442 478 442 478 464 478 c 0,11,12
 493 478 493 478 493 451 c 0,13,14
 493 443 493 443 489 434 c 2,15,-1
 297 0 l 1,16,-1
 213 0 l 1,0,-1
EndSplineSet
EndChar

StartChar: w
Encoding: 119 119 90
Width: 814
GlyphClass: 2
Flags: HW
AnchorPoint: "Anchor-1" 408 0 basechar 0
AnchorPoint: "Anchor-0" 408 510 basechar 0
LayerCount: 2
Fore
SplineSet
779 430 m 2,0,-1
 623 0 l 1,1,-1
 536 0 l 1,2,-1
 408 364 l 1,3,-1
 269 0 l 1,4,-1
 183 0 l 1,5,-1
 36 430 l 2,6,7
 32 442 32 442 32 448 c 0,8,9
 32 473 32 473 58 473 c 0,10,11
 84 473 84 473 94 448 c 1,12,-1
 229 58 l 1,13,-1
 374 443 l 2,14,15
 384 467 384 467 409 467 c 128,-1,16
 434 467 434 467 442 443 c 2,17,-1
 581 58 l 1,18,-1
 721 448 l 2,19,20
 730 473 730 473 756.5 473 c 0,21,22
 783 473 783 473 783 448 c 0,23,24
 783 442 783 442 779 430 c 2,0,-1
EndSplineSet
EndChar

StartChar: x
Encoding: 120 120 91
Width: 536
GlyphClass: 2
Flags: HW
AnchorPoint: "Anchor-1" 269 0 basechar 0
AnchorPoint: "Anchor-0" 269 510 basechar 0
LayerCount: 2
Fore
SplineSet
483 43 m 2,0,1
 494 32 494 32 494 18.5 c 128,-1,2
 494 5 494 5 484.5 -3 c 128,-1,3
 475 -11 475 -11 461.5 -11 c 128,-1,4
 448 -11 448 -11 436 1 c 1,5,-1
 269 190 l 1,6,-1
 101 1 l 2,7,8
 89 -11 89 -11 75 -11 c 128,-1,9
 61 -11 61 -11 51.5 -3 c 128,-1,10
 42 5 42 5 42 18.5 c 128,-1,11
 42 32 42 32 53 43 c 2,12,-1
 224 230 l 1,13,-1
 53 418 l 2,14,15
 42 431 42 431 42 443.5 c 128,-1,16
 42 456 42 456 51.5 464 c 128,-1,17
 61 472 61 472 75 472 c 128,-1,18
 89 472 89 472 101 460 c 2,19,-1
 269 271 l 1,20,-1
 436 460 l 1,21,22
 448 472 448 472 461.5 472 c 128,-1,23
 475 472 475 472 484.5 464 c 128,-1,24
 494 456 494 456 494 443.5 c 128,-1,25
 494 431 494 431 483 418 c 2,26,-1
 312 230 l 1,27,-1
 483 43 l 2,0,1
EndSplineSet
EndChar

StartChar: y
Encoding: 121 121 92
Width: 648
GlyphClass: 2
Flags: HW
AnchorPoint: "Anchor-1" 321 0 basechar 0
AnchorPoint: "Anchor-0" 321 510 basechar 0
LayerCount: 2
Fore
SplineSet
573 -82 m 2,0,1
 573 -149 573 -149 553 -177 c 128,-1,2
 533 -205 533 -205 477 -205 c 2,3,-1
 174 -205 l 2,4,5
 107.111111111 -205 107.111111111 -205 86 -167 c 0,6,7
 69 -136.4 69 -136.4 69 -92.2 c 128,-1,8
 69 -48 69 -48 100 -48 c 128,-1,9
 131 -48 131 -48 131 -83.5 c 128,-1,10
 131 -119 131 -119 141.5 -131 c 128,-1,11
 152 -143 152 -143 181 -143 c 2,12,-1
 470 -143 l 2,13,14
 496 -143 496 -143 503.5 -134.5 c 128,-1,15
 511 -126 511 -126 511 -98 c 2,16,-1
 511 56 l 1,17,18
 451 0 451 0 335 0 c 2,19,-1
 306 0 l 2,20,21
 182 0 182 0 125.5 36 c 128,-1,22
 69 72 69 72 69 177 c 2,23,-1
 69 430 l 2,24,25
 69 468 69 468 100 468 c 128,-1,26
 131 468 131 468 131 430 c 2,27,-1
 131 179 l 2,28,29
 131 102 131 102 166.5 82 c 128,-1,30
 202 62 202 62 306 62 c 2,31,-1
 335 62 l 2,32,33
 511 62 511 62 511 231 c 2,34,-1
 511 430 l 2,35,36
 511 468 511 468 542 468 c 128,-1,37
 573 468 573 468 573 430 c 2,38,-1
 573 -82 l 2,0,1
EndSplineSet
EndChar

StartChar: z
Encoding: 122 122 93
Width: 573
GlyphClass: 2
Flags: HW
AnchorPoint: "Anchor-1" 293 0 basechar 0
AnchorPoint: "Anchor-0" 293 510 basechar 0
LayerCount: 2
Fore
SplineSet
143 62 m 1,0,-1
 408 62 l 2,1,2
 441 62 441 62 450 78.5 c 128,-1,3
 459 95 459 95 459 135 c 0,4,5
 459 175 459 175 490 175 c 128,-1,6
 521 175 521 175 521 134 c 0,7,8
 521 62 521 62 499 31 c 128,-1,9
 477 0 477 0 416 0 c 2,10,-1
 59 0 l 1,11,-1
 59 69 l 1,12,-1
 419 399 l 1,13,-1
 171 399 l 2,14,15
 139 399 139 399 130 383 c 128,-1,16
 121 367 121 367 121 326.5 c 0,17,18
 121 286 121 286 90 286 c 0,19,20
 59 286 59 286 59 327 c 0,21,22
 59 400 59 400 81 430.5 c 128,-1,23
 103 461 103 461 164 461 c 2,24,-1
 500 461 l 1,25,-1
 500 389 l 1,26,-1
 143 62 l 1,0,-1
EndSplineSet
EndChar

StartChar: braceleft
Encoding: 123 123 94
Width: 275
GlyphClass: 2
Flags: HW
LayerCount: 2
Fore
SplineSet
39 324 m 1,0,1
 60 335 60 335 86 357.5 c 128,-1,2
 112 380 112 380 112 398 c 128,-1,3
 112 416 112 416 98 462.5 c 128,-1,4
 84 509 84 509 84 528 c 0,5,6
 84 635.428571429 84 635.428571429 124 664 c 0,7,8
 145 679 145 679 166.5 683.5 c 128,-1,9
 188 688 188 688 224 688 c 1,10,-1
 224 626 l 1,11,12
 170 626 170 626 158 611.5 c 128,-1,13
 146 597 146 597 146 528 c 0,14,15
 146 520 146 520 160 473 c 128,-1,16
 174 426 174 426 174 400 c 0,17,18
 174 360 174 360 108 317 c 1,19,20
 174 278 174 278 174 236 c 0,21,22
 174 209 174 209 160 163.5 c 128,-1,23
 146 118 146 118 146 108 c 0,24,25
 146 38 146 38 158 24 c 128,-1,26
 170 10 170 10 224 10 c 1,27,-1
 224 -52 l 1,28,29
 188 -52 188 -52 166.5 -47.5 c 128,-1,30
 145 -43 145 -43 124 -28 c 0,31,32
 84 0.571428571429 84 0.571428571429 84 108 c 0,33,34
 84 127 84 127 98 173.5 c 128,-1,35
 112 220 112 220 112 238 c 128,-1,36
 112 256 112 256 87.5 276.5 c 128,-1,37
 63 297 63 297 39 310 c 1,38,-1
 39 324 l 1,0,1
EndSplineSet
EndChar

StartChar: bar
Encoding: 124 124 95
Width: 224
GlyphClass: 2
Flags: HW
LayerCount: 2
Fore
SplineSet
143 29 m 2,0,1
 143 -7 143 -7 112 -7 c 0,2,3
 81 -7 81 -7 81 29 c 2,4,-1
 81 606 l 2,5,6
 81 643 81 643 112 643 c 128,-1,7
 143 643 143 643 143 606 c 2,8,-1
 143 29 l 2,0,1
EndSplineSet
EndChar

StartChar: braceright
Encoding: 125 125 96
Width: 275
GlyphClass: 2
Flags: HW
LayerCount: 2
Fore
SplineSet
236 324 m 1,0,-1
 236 310 l 1,1,2
 212 297 212 297 187.5 276.5 c 128,-1,3
 163 256 163 256 163 238 c 128,-1,4
 163 220 163 220 177 173.5 c 128,-1,5
 191 127 191 127 191 108 c 0,6,7
 191 0.571428571429 191 0.571428571429 151 -28 c 0,8,9
 130 -43 130 -43 108.5 -47.5 c 128,-1,10
 87 -52 87 -52 51 -52 c 1,11,-1
 51 10 l 1,12,13
 105 10 105 10 117 24 c 128,-1,14
 129 38 129 38 129 108 c 0,15,16
 129 118 129 118 115 163.5 c 128,-1,17
 101 209 101 209 101 236 c 0,18,19
 101 278 101 278 167 317 c 1,20,21
 101 360 101 360 101 400 c 0,22,23
 101 426 101 426 115 473 c 128,-1,24
 129 520 129 520 129 528 c 0,25,26
 129 597 129 597 117 611.5 c 128,-1,27
 105 626 105 626 51 626 c 1,28,-1
 51 688 l 1,29,30
 87 688 87 688 108.5 683.5 c 128,-1,31
 130 679 130 679 151 664 c 0,32,33
 191 635.428571429 191 635.428571429 191 528 c 0,34,35
 191 509 191 509 177 462.5 c 128,-1,36
 163 416 163 416 163 398 c 128,-1,37
 163 380 163 380 189 357.5 c 128,-1,38
 215 335 215 335 236 324 c 1,0,-1
EndSplineSet
EndChar

StartChar: asciitilde
Encoding: 126 126 97
Width: 431
GlyphClass: 2
Flags: HW
LayerCount: 2
Fore
SplineSet
262 241 m 2,0,1
 267 239 267 239 270 239 c 128,-1,2
 273 239 273 239 275 241 c 2,3,-1
 306 269 l 2,4,5
 316 279 316 279 329 279 c 0,6,7
 342 279 342 279 351.5 271 c 128,-1,8
 361 263 361 263 361 248 c 0,9,10
 361 233 361 233 345 220 c 2,11,-1
 300 182 l 1,12,13
 286 172 286 172 276.5 172 c 0,14,15
 267 172 267 172 263 174 c 2,16,-1
 169 210 l 2,17,18
 164 212 164 212 161 212 c 128,-1,19
 158 212 158 212 156 210 c 2,20,-1
 125 182 l 2,21,22
 115 172 115 172 102 172 c 0,23,24
 89 172 89 172 79.5 180 c 128,-1,25
 70 188 70 188 70 203 c 0,26,27
 70 218 70 218 86 231 c 2,28,-1
 131 269 l 1,29,30
 145 279 145 279 154.5 279 c 0,31,32
 164 279 164 279 168 277 c 2,33,-1
 262 241 l 2,0,1
EndSplineSet
EndChar

StartChar: exclamdown
Encoding: 161 161 98
Width: 236
GlyphClass: 2
Flags: HW
LayerCount: 2
Fore
SplineSet
87 -138 m 2,0,-1
 87 282 l 2,1,2
 87 320 87 320 118 320 c 128,-1,3
 149 320 149 320 149 282 c 2,4,-1
 149 -138 l 2,5,6
 149 -175 149 -175 118 -175 c 128,-1,7
 87 -175 87 -175 87 -138 c 2,0,-1
155.5 483 m 128,-1,9
 174 470 174 470 174 450.5 c 128,-1,10
 174 431 174 431 155 417.5 c 128,-1,11
 136 404 136 404 117.5 404 c 128,-1,12
 99 404 99 404 80 417.5 c 128,-1,13
 61 431 61 431 61 450 c 128,-1,14
 61 469 61 469 79.5 482.5 c 128,-1,15
 98 496 98 496 117.5 496 c 128,-1,8
 137 496 137 496 155.5 483 c 128,-1,9
EndSplineSet
EndChar

StartChar: cent
Encoding: 162 162 99
Width: 488
GlyphClass: 2
Flags: HW
LayerCount: 2
Fore
SplineSet
218 20 m 2,0,-1
 218 113 l 1,1,2
 133 119 133 119 91 160 c 128,-1,3
 49 201 49 201 49 298 c 2,4,-1
 49 340 l 2,5,6
 49 436 49 436 92 477 c 128,-1,7
 135 518 135 518 218 524 c 1,8,-1
 218 615 l 2,9,10
 218 653 218 653 249 653 c 128,-1,11
 280 653 280 653 280 615 c 2,12,-1
 280 525 l 1,13,-1
 327 525 l 2,14,15
 393.72972973 525 393.72972973 525 414 487.5 c 0,16,17
 431 456.05 431 456.05 431 412.025 c 128,-1,18
 431 368 431 368 400 368 c 128,-1,19
 369 368 369 368 369 404 c 128,-1,20
 369 440 369 440 359 451.5 c 128,-1,21
 349 463 349 463 320 463 c 2,22,-1
 280 463 l 1,23,-1
 280 175 l 1,24,-1
 318 175 l 2,25,26
 348 175 348 175 358.5 187 c 128,-1,27
 369 199 369 199 369 234.5 c 128,-1,28
 369 270 369 270 400 270 c 128,-1,29
 431 270 431 270 431 223.5 c 128,-1,30
 431 177 431 177 409.5 145 c 128,-1,31
 388 113 388 113 325 113 c 2,32,-1
 280 113 l 1,33,-1
 280 20 l 2,34,35
 280 -17 280 -17 249 -17 c 128,-1,36
 218 -17 218 -17 218 20 c 2,0,-1
218 176 m 1,37,-1
 218 462 l 1,38,39
 160 458 160 458 135.5 433 c 128,-1,40
 111 408 111 408 111 340 c 2,41,-1
 111 298 l 2,42,43
 111 229 111 229 134.5 204.5 c 128,-1,44
 158 180 158 180 218 176 c 1,37,-1
EndSplineSet
EndChar

StartChar: sterling
Encoding: 163 163 100
Width: 512
GlyphClass: 2
Flags: HW
LayerCount: 2
Fore
SplineSet
67 33 m 2,0,-1
 105 468 l 2,1,2
 115.219123506 584.498007968 115.219123506 584.498007968 172 621 c 0,3,4
 221.777777778 653 221.777777778 653 294.888888889 653 c 128,-1,5
 368 653 368 653 410 621 c 128,-1,6
 452 589 452 589 452 501 c 0,7,8
 452 463 452 463 421 463 c 128,-1,9
 390 463 390 463 390 501 c 0,10,11
 390 558 390 558 367 574.5 c 128,-1,12
 344 591 344 591 288 591 c 128,-1,13
 232 591 232 591 203 567.5 c 128,-1,14
 174 544 174 544 167 468 c 2,15,-1
 158 374 l 1,16,-1
 187 374 l 2,17,18
 224 374 224 374 224 343 c 128,-1,19
 224 312 224 312 187 312 c 2,20,-1
 154 312 l 1,21,-1
 130 52 l 1,22,-1
 416 52 l 2,23,24
 454 52 454 52 454 21 c 128,-1,25
 454 -10 454 -10 416 -10 c 2,26,-1
 93 -10 l 2,27,28
 66 -10 66 -10 66 24 c 0,29,30
 66 30 66 30 67 33 c 2,0,-1
EndSplineSet
EndChar

StartChar: currency
Encoding: 164 164 101
Width: 509
GlyphClass: 2
Flags: HW
LayerCount: 2
Fore
SplineSet
155 230 m 128,-1,1
 155 189 155 189 184.5 160 c 128,-1,2
 214 131 214 131 255 131 c 128,-1,3
 296 131 296 131 325 160.5 c 128,-1,4
 354 190 354 190 354 230.5 c 0,5,6
 354 271 354 271 325 300.5 c 128,-1,7
 296 330 296 330 255 330 c 128,-1,8
 214 330 214 330 184.5 300.5 c 128,-1,0
 155 271 155 271 155 230 c 128,-1,1
126 314 m 1,9,-1
 83 357 l 1,10,11
 70 373 70 373 70 384 c 128,-1,12
 70 395 70 395 80 404.5 c 128,-1,13
 90 414 90 414 100.5 414 c 0,14,15
 111 414 111 414 127 401 c 1,16,-1
 170 358 l 1,17,18
 208 384 208 384 255 384 c 128,-1,19
 302 384 302 384 339 359 c 1,20,-1
 381 401 l 2,21,22
 395 414 395 414 406.5 414 c 0,23,24
 418 414 418 414 428.5 406 c 128,-1,25
 439 398 439 398 439 384 c 0,26,27
 439 370 439 370 423 356 c 1,28,-1
 383 315 l 1,29,30
 408 278 408 278 408 231 c 0,31,32
 408 184 408 184 383 146 c 1,33,-1
 424 105 l 2,34,35
 439 89 439 89 439 77.5 c 0,36,37
 439 66 439 66 429 56 c 128,-1,38
 419 46 419 46 407 46 c 0,39,40
 395 46 395 46 380 62 c 2,41,-1
 339 102 l 1,42,43
 302 77 302 77 255 77 c 128,-1,44
 208 77 208 77 170 103 c 1,45,-1
 128 62 l 1,46,47
 114 46 114 46 101 46 c 0,48,49
 88 46 88 46 79 54.5 c 128,-1,50
 70 63 70 63 70 76.5 c 0,51,52
 70 90 70 90 83 104 c 2,53,-1
 126 147 l 1,54,55
 101 182 101 182 101 230.5 c 0,56,57
 101 279 101 279 126 314 c 1,9,-1
EndSplineSet
EndChar

StartChar: yen
Encoding: 165 165 102
Width: 549
GlyphClass: 2
Flags: HW
LayerCount: 2
Fore
SplineSet
41 598 m 1,0,1
 32 614 32 614 32 625 c 128,-1,2
 32 636 32 636 41.5 644.5 c 128,-1,3
 51 653 51 653 63.5 653 c 128,-1,4
 76 653 76 653 91 633 c 2,5,-1
 275 372 l 1,6,-1
 458 633 l 2,7,8
 471 653 471 653 484.5 653 c 128,-1,9
 498 653 498 653 508 644.5 c 128,-1,10
 518 636 518 636 518 624 c 128,-1,11
 518 612 518 612 509 598 c 2,12,-1
 306 306 l 1,13,-1
 306 282 l 1,14,-1
 395 282 l 2,15,16
 433 282 433 282 433 251 c 128,-1,17
 433 220 433 220 395 220 c 2,18,-1
 306 220 l 1,19,-1
 306 193 l 1,20,-1
 395 193 l 2,21,22
 433 193 433 193 433 162 c 128,-1,23
 433 131 433 131 395 131 c 2,24,-1
 306 131 l 1,25,-1
 306 20 l 2,26,27
 306 -17 306 -17 275.5 -17 c 128,-1,28
 245 -17 245 -17 245 20 c 2,29,-1
 245 131 l 1,30,-1
 150 131 l 2,31,32
 113 131 113 131 113 162 c 128,-1,33
 113 193 113 193 150 193 c 2,34,-1
 245 193 l 1,35,-1
 245 220 l 1,36,-1
 150 220 l 2,37,38
 113 220 113 220 113 251 c 128,-1,39
 113 282 113 282 150 282 c 2,40,-1
 245 282 l 1,41,-1
 245 306 l 1,42,-1
 41 598 l 1,0,1
EndSplineSet
EndChar

StartChar: brokenbar
Encoding: 166 166 103
Width: 221
GlyphClass: 2
Flags: HW
LayerCount: 2
Fore
SplineSet
141 616 m 2,0,-1
 141 401 l 2,1,2
 141 363 141 363 109 363 c 0,3,4
 80 363 80 363 80 401 c 2,5,-1
 80 616 l 2,6,7
 80 653 80 653 110.5 653 c 0,8,9
 141 653 141 653 141 616 c 2,0,-1
141 237 m 2,10,-1
 141 22 l 2,11,12
 141 -17 141 -17 109 -17 c 0,13,14
 80 -17 80 -17 80 22 c 2,15,-1
 80 237 l 2,16,17
 80 273 80 273 110.5 273 c 0,18,19
 141 273 141 273 141 237 c 2,10,-1
EndSplineSet
EndChar

StartChar: section
Encoding: 167 167 104
Width: 529
GlyphClass: 2
Flags: HW
LayerCount: 2
Fore
SplineSet
454 99 m 0,0,1
 454 -10 454 -10 344 -10 c 2,2,-1
 160 -10 l 2,3,4
 109 -10 109 -10 91.5 16 c 128,-1,5
 74 42 74 42 74 86 c 0,6,7
 74 102 74 102 83 111.5 c 128,-1,8
 92 121 92 121 105.5 121 c 128,-1,9
 119 121 119 121 127.5 111.5 c 128,-1,10
 136 102 136 102 136 83 c 128,-1,11
 136 64 136 64 141.5 58 c 128,-1,12
 147 52 147 52 171 52 c 2,13,-1
 355 52 l 2,14,15
 377 52 377 52 384.5 62.5 c 128,-1,16
 392 73 392 73 392 99 c 0,17,18
 392 160 392 160 357 164 c 2,19,-1
 182 189 l 1,20,21
 74 203 74 203 74 306 c 0,22,23
 74 374 74 374 115 400 c 1,24,25
 74 429 74 429 74 495 c 0,26,27
 74 604 74 604 184 604 c 2,28,-1
 369 604 l 2,29,30
 420 604 420 604 437 578 c 128,-1,31
 454 552 454 552 454 512.5 c 128,-1,32
 454 473 454 473 423 473 c 0,33,34
 409 473 409 473 400.5 482.5 c 128,-1,35
 392 492 392 492 392 511 c 128,-1,36
 392 530 392 530 386.5 536 c 128,-1,37
 381 542 381 542 357 542 c 2,38,-1
 173 542 l 2,39,40
 151 542 151 542 143.5 531.5 c 128,-1,41
 136 521 136 521 136 495 c 0,42,43
 136 434 136 434 171 430 c 2,44,-1
 346 405 l 1,45,46
 454 391 454 391 454 289 c 0,47,48
 454 219 454 219 413 194 c 1,49,50
 454 165 454 165 454 99 c 0,0,1
149 354 m 128,-1,52
 136 345 136 345 136 307.5 c 128,-1,53
 136 270 136 270 186.5 250.5 c 128,-1,54
 237 231 237 231 301 231 c 128,-1,55
 365 231 365 231 378.5 240 c 128,-1,56
 392 249 392 249 392 289 c 0,57,58
 392 310 392 310 374.5 325.5 c 128,-1,59
 357 341 357 341 328.5 348.5 c 0,60,61
 273.4 363 273.4 363 217.7 363 c 128,-1,51
 162 363 162 363 149 354 c 128,-1,52
EndSplineSet
EndChar

StartChar: dieresis
Encoding: 168 168 105
Width: 367
GlyphClass: 2
Flags: HW
LayerCount: 2
Fore
SplineSet
147 630 m 128,-1,1
 147 611 147 611 128.5 597.5 c 128,-1,2
 110 584 110 584 90.5 584 c 0,3,4
 71 584 71 584 53 597 c 128,-1,5
 35 610 35 610 35 629.5 c 0,6,7
 35 649 35 649 53.5 662.5 c 128,-1,8
 72 676 72 676 90.5 676 c 0,9,10
 109 676 109 676 128 662.5 c 128,-1,0
 147 649 147 649 147 630 c 128,-1,1
333 630 m 128,-1,12
 333 611 333 611 314.5 597.5 c 128,-1,13
 296 584 296 584 276.5 584 c 0,14,15
 257 584 257 584 239 597 c 128,-1,16
 221 610 221 610 221 629.5 c 0,17,18
 221 649 221 649 239.5 662.5 c 128,-1,19
 258 676 258 676 276.5 676 c 0,20,21
 295 676 295 676 314 662.5 c 128,-1,11
 333 649 333 649 333 630 c 128,-1,12
EndSplineSet
EndChar

StartChar: copyright
Encoding: 169 169 106
Width: 622
GlyphClass: 2
Flags: HW
LayerCount: 2
Fore
SplineSet
366 264 m 1,0,1
 366 294 366 294 390 294 c 0,2,3
 400 294 400 294 408 288 c 128,-1,4
 416 282 416 282 416 265.5 c 128,-1,5
 416 249 416 249 403 229 c 128,-1,6
 390 209 390 209 356 209 c 2,7,-1
 306 209 l 2,8,9
 264 209 264 209 235 232 c 128,-1,10
 206 255 206 255 206 298 c 2,11,-1
 206 337 l 2,12,13
 206 380 206 380 235 403 c 128,-1,14
 264 426 264 426 306 426 c 2,15,-1
 356 426 l 2,16,17
 388 426 388 426 402 406.5 c 128,-1,18
 416 387 416 387 416 370 c 0,19,20
 416 341 416 341 390 341 c 0,21,22
 372 341 372 341 368 357 c 2,23,-1
 364 373 l 1,24,25
 360 375 360 375 354 375 c 2,26,-1
 306 375 l 2,27,28
 283 375 283 375 269.5 364.5 c 128,-1,29
 256 354 256 354 256 337 c 2,30,-1
 256 298 l 2,31,32
 256 281 256 281 269.5 270.5 c 128,-1,33
 283 260 283 260 306 260 c 2,34,-1
 354 260 l 2,35,36
 363 260 363 260 366 264 c 1,0,1
79 262 m 2,37,-1
 79 373 l 2,38,39
 79 485.819672131 79 485.819672131 139.5 524.5 c 0,40,41
 170 544 170 544 206.5 551 c 128,-1,42
 243 558 243 558 297 558 c 2,43,-1
 326 558 l 2,44,45
 380 558 380 558 416 551 c 128,-1,46
 452 544 452 544 483 524.5 c 0,47,48
 543 486.758064516 543 486.758064516 543 373 c 2,49,-1
 543 262 l 2,50,51
 543 148.241935484 543 148.241935484 483 110.5 c 0,52,53
 452 91 452 91 416 84 c 128,-1,54
 380 77 380 77 326 77 c 2,55,-1
 297 77 l 2,56,57
 243 77 243 77 206.5 84 c 128,-1,58
 170 91 170 91 139.5 110.5 c 0,59,60
 79 149.180327869 79 149.180327869 79 262 c 2,37,-1
297 139 m 2,61,-1
 326 139 l 2,62,63
 415 139 415 139 448 161 c 128,-1,64
 481 183 481 183 481 262 c 2,65,-1
 481 373 l 2,66,67
 481 452 481 452 448 474 c 128,-1,68
 415 496 415 496 326 496 c 2,69,-1
 297 496 l 2,70,71
 207 496 207 496 174 474 c 128,-1,72
 141 452 141 452 141 373 c 2,73,-1
 141 262 l 2,74,75
 141 183 141 183 174 161 c 128,-1,76
 207 139 207 139 297 139 c 2,61,-1
EndSplineSet
EndChar

StartChar: ordfeminine
Encoding: 170 170 107
Width: 386
GlyphClass: 2
Flags: HW
LayerCount: 2
Fore
SplineSet
247 344 m 1,0,-1
 195 344 l 2,1,2
 160 344 160 344 149.5 337.5 c 128,-1,3
 139 331 139 331 139 316.5 c 0,4,5
 139 290 139 290 153 290 c 2,6,-1
 190 290 l 2,7,8
 241 290 241 290 247 344 c 1,0,-1
94 209 m 2,9,-1
 290 209 l 2,10,11
 305 209 305 209 314 201 c 128,-1,12
 323 193 323 193 323 180 c 0,13,14
 323 154 323 154 290 154 c 2,15,-1
 94 154 l 2,16,17
 78 154 78 154 70.5 162.5 c 128,-1,18
 63 171 63 171 63 181.5 c 128,-1,19
 63 192 63 192 70.5 200.5 c 128,-1,20
 78 209 78 209 94 209 c 2,9,-1
298 258 m 2,21,22
 298 247 298 247 289.5 241.5 c 128,-1,23
 281 236 281 236 273 236 c 0,24,25
 249 236 249 236 247 257 c 1,26,27
 227 239 227 239 190 239 c 2,28,-1
 153 239 l 2,29,30
 124 239 124 239 106 261 c 128,-1,31
 88 283 88 283 88 311 c 0,32,33
 88 358 88 358 115 376.5 c 128,-1,34
 142 395 142 395 195 395 c 2,35,-1
 247 395 l 1,36,-1
 247 404 l 2,37,38
 247 414 247 414 244 417 c 128,-1,39
 241 420 241 420 232 420 c 2,40,-1
 153 420 l 2,41,42
 143 420 143 420 141 415.5 c 128,-1,43
 139 411 139 411 139 404 c 128,-1,44
 139 397 139 397 133 389.5 c 128,-1,45
 127 382 127 382 115 382 c 128,-1,46
 103 382 103 382 95.5 388 c 128,-1,47
 88 394 88 394 88 404 c 0,48,49
 88 432 88 432 105.5 451.5 c 128,-1,50
 123 471 123 471 150 471 c 2,51,-1
 235 471 l 2,52,53
 298 471 298 471 298 397 c 2,54,-1
 298 258 l 2,21,22
EndSplineSet
EndChar

StartChar: logicalnot
Encoding: 172 172 109
Width: 531
GlyphClass: 2
Flags: HW
LayerCount: 2
Fore
SplineSet
419 103 m 0,0,1
 405 103 405 103 397 113.5 c 128,-1,2
 389 124 389 124 389 141 c 2,3,-1
 389 199 l 1,4,-1
 115 199 l 2,5,6
 79 199 79 199 79 231 c 0,7,8
 79 243 79 243 87.5 252.5 c 128,-1,9
 96 262 96 262 115 262 c 2,10,-1
 413 262 l 2,11,12
 452 262 452 262 452 225 c 2,13,-1
 452 141 l 2,14,15
 452 103 452 103 419 103 c 0,0,1
EndSplineSet
EndChar

StartChar: uni00AD
Encoding: 173 173 110
Width: 466
GlyphClass: 2
Flags: HW
LayerCount: 2
Fore
SplineSet
109 262 m 2,0,-1
 354 262 l 2,1,2
 393 262 393 262 393 229 c 0,3,4
 393 215 393 215 381.5 207 c 128,-1,5
 370 199 370 199 354 199 c 2,6,-1
 109 199 l 2,7,8
 73 199 73 199 73 231 c 0,9,10
 73 243 73 243 81.5 252.5 c 128,-1,11
 90 262 90 262 109 262 c 2,0,-1
EndSplineSet
EndChar

StartChar: registered
Encoding: 174 174 111
Width: 622
GlyphClass: 2
Flags: HW
LayerCount: 2
Fore
SplineSet
297 139 m 2,0,-1
 326 139 l 2,1,2
 415 139 415 139 448 161 c 128,-1,3
 481 183 481 183 481 262 c 2,4,-1
 481 373 l 2,5,6
 481 452 481 452 448 474 c 128,-1,7
 415 496 415 496 326 496 c 2,8,-1
 297 496 l 2,9,10
 207 496 207 496 174 474 c 128,-1,11
 141 452 141 452 141 373 c 2,12,-1
 141 262 l 2,13,14
 141 183 141 183 174 161 c 128,-1,15
 207 139 207 139 297 139 c 2,0,-1
79 262 m 2,16,-1
 79 373 l 2,17,18
 79 485.819672131 79 485.819672131 139.5 524.5 c 0,19,20
 170 544 170 544 206.5 551 c 128,-1,21
 243 558 243 558 297 558 c 2,22,-1
 326 558 l 2,23,24
 380 558 380 558 416 551 c 128,-1,25
 452 544 452 544 483 524.5 c 0,26,27
 543 486.758064516 543 486.758064516 543 373 c 2,28,-1
 543 262 l 2,29,30
 543 148.241935484 543 148.241935484 483 110.5 c 0,31,32
 452 91 452 91 416 84 c 128,-1,33
 380 77 380 77 326 77 c 2,34,-1
 297 77 l 2,35,36
 243 77 243 77 206.5 84 c 128,-1,37
 170 91 170 91 139.5 110.5 c 0,38,39
 79 149.180327869 79 149.180327869 79 262 c 2,16,-1
411.5 256 m 128,-1,41
 427 230 427 230 427 219 c 128,-1,42
 427 208 427 208 419 203 c 128,-1,43
 411 198 411 198 403 198 c 0,44,45
 380 198 380 198 377 212 c 128,-1,46
 374 226 374 226 356.5 252.5 c 128,-1,47
 339 279 339 279 318 293 c 1,48,-1
 253 293 l 1,49,-1
 253 217 l 2,50,51
 253 198 253 198 228 198 c 0,52,53
 215 198 215 198 208.5 204 c 128,-1,54
 202 210 202 210 202 217 c 2,55,-1
 202 411 l 2,56,57
 202 420 202 420 210.5 425.5 c 128,-1,58
 219 431 219 431 226 431 c 2,59,-1
 310 431 l 2,60,61
 424 431 424 431 424 361 c 0,62,63
 424 341 424 341 412.5 324 c 128,-1,64
 401 307 401 307 380 299 c 1,65,40
 396 282 396 282 411.5 256 c 128,-1,41
310 344 m 2,66,67
 348 344 348 344 360.5 347.5 c 128,-1,68
 373 351 373 351 373 362 c 128,-1,69
 373 373 373 373 361 376.5 c 128,-1,70
 349 380 349 380 310 380 c 2,71,-1
 253 380 l 1,72,-1
 253 344 l 1,73,-1
 310 344 l 2,66,67
EndSplineSet
EndChar

StartChar: macron
Encoding: 175 175 112
Width: 429
GlyphClass: 2
Flags: HW
LayerCount: 2
Fore
SplineSet
91 731 m 2,0,-1
 336 731 l 2,1,2
 375 731 375 731 375 698 c 0,3,4
 375 684 375 684 363.5 676 c 128,-1,5
 352 668 352 668 336 668 c 2,6,-1
 91 668 l 2,7,8
 55 668 55 668 55 700 c 0,9,10
 55 712 55 712 63.5 721.5 c 128,-1,11
 72 731 72 731 91 731 c 2,0,-1
EndSplineSet
EndChar

StartChar: degree
Encoding: 176 176 113
Width: 413
GlyphClass: 2
Flags: HW
LayerCount: 2
Fore
SplineSet
141 599.5 m 128,-1,1
 114 572 114 572 114 534.5 c 128,-1,2
 114 497 114 497 141 469.5 c 128,-1,3
 168 442 168 442 206 442 c 128,-1,4
 244 442 244 442 271.5 469.5 c 128,-1,5
 299 497 299 497 299 535 c 128,-1,6
 299 573 299 573 271.5 600 c 128,-1,7
 244 627 244 627 206 627 c 128,-1,0
 168 627 168 627 141 599.5 c 128,-1,1
315 643 m 128,-1,9
 360 598 360 598 360 534.5 c 128,-1,10
 360 471 360 471 315 426 c 128,-1,11
 270 381 270 381 206.5 381 c 128,-1,12
 143 381 143 381 98 426 c 128,-1,13
 53 471 53 471 53 534.5 c 128,-1,14
 53 598 53 598 98 643 c 128,-1,15
 143 688 143 688 206.5 688 c 128,-1,8
 270 688 270 688 315 643 c 128,-1,9
EndSplineSet
EndChar

StartChar: plusminus
Encoding: 177 177 114
Width: 583
GlyphClass: 2
Flags: HW
LayerCount: 2
Fore
SplineSet
479 -5 m 2,0,-1
 101 -5 l 2,1,2
 65 -5 65 -5 65 28 c 0,3,4
 65 58 65 58 101 58 c 2,5,-1
 479 58 l 2,6,7
 518 58 518 58 518 25 c 0,8,9
 518 11 518 11 506.5 3 c 128,-1,10
 495 -5 495 -5 479 -5 c 2,0,-1
260 143 m 2,11,-1
 260 260 l 1,12,-1
 101 260 l 2,13,14
 65 260 65 260 65 293 c 0,15,16
 65 323 65 323 101 323 c 2,17,-1
 260 323 l 1,18,-1
 260 440 l 2,19,20
 260 478 260 478 291 478 c 0,21,22
 322 478 322 478 322 440 c 2,23,-1
 322 323 l 1,24,-1
 479 323 l 2,25,26
 518 323 518 323 518 291 c 0,27,28
 518 277 518 277 507 268.5 c 128,-1,29
 496 260 496 260 479 260 c 2,30,-1
 322 260 l 1,31,-1
 322 143 l 2,32,33
 322 106 322 106 291 106 c 128,-1,34
 260 106 260 106 260 143 c 2,11,-1
EndSplineSet
EndChar

StartChar: twosuperior
Encoding: 178 178 115
Width: 340
GlyphClass: 2
Flags: HW
LayerCount: 2
Fore
SplineSet
282 495.5 m 128,-1,1
 292 488 292 488 292 478 c 128,-1,2
 292 468 292 468 282 459.5 c 128,-1,3
 272 451 272 451 260 451 c 2,4,-1
 47 451 l 1,5,-1
 47 483 l 2,6,7
 47 528 47 528 77 562 c 128,-1,8
 107 596 107 596 143 612.5 c 0,9,10
 239 656.5 239 656.5 239 682 c 0,11,12
 239 711 239 711 225 717.5 c 128,-1,13
 211 724 211 724 162 724 c 2,14,-1
 136 724 l 2,15,16
 103 724 103 724 103 703 c 0,17,18
 103 691 103 691 94.5 683 c 128,-1,19
 86 675 86 675 76 675 c 128,-1,20
 66 675 66 675 56.5 683 c 128,-1,21
 47 691 47 691 47 703 c 0,22,23
 47 735 47 735 72.5 756 c 128,-1,24
 98 777 98 777 132 777 c 2,25,-1
 162 777 l 2,26,27
 226 777 226 777 259 759 c 128,-1,28
 292 741 292 741 292 682 c 0,29,30
 292 653 292 653 265 627.5 c 128,-1,31
 238 602 238 602 204.5 586.5 c 0,32,33
 113.813131313 544.54040404 113.813131313 544.54040404 105 504 c 1,34,-1
 260 504 l 1,35,0
 272 503 272 503 282 495.5 c 128,-1,1
EndSplineSet
EndChar

StartChar: threesuperior
Encoding: 179 179 116
Width: 310
GlyphClass: 2
Flags: HW
LayerCount: 2
Fore
SplineSet
91 701 m 0,0,1
 91 678 91 678 62 678 c 0,2,3
 51 678 51 678 43 685 c 128,-1,4
 35 692 35 692 35 703 c 0,5,6
 35 729 35 729 65.5 753 c 128,-1,7
 96 777 96 777 142 777 c 0,8,9
 217.842105263 777 217.842105263 777 240.5 756.5 c 0,10,11
 268 731.619047619 268 731.619047619 268 687.80952381 c 128,-1,12
 268 644 268 644 216 618 c 1,13,14
 268 588 268 588 268 540 c 0,15,16
 268 478.804878049 268 478.804878049 227.5 463 c 0,17,18
 196.75 451 196.75 451 146.375 451 c 128,-1,19
 96 451 96 451 65.5 475 c 128,-1,20
 35 499 35 499 35 525 c 0,21,22
 35 536 35 536 43 543 c 128,-1,23
 51 550 51 550 62 550 c 0,24,25
 91 550 91 550 91 527 c 0,26,27
 91 517 91 517 109 510.5 c 128,-1,28
 127 504 127 504 155.5 504 c 128,-1,29
 184 504 184 504 200 510 c 128,-1,30
 216 516 216 516 216 538 c 128,-1,31
 216 560 216 560 188.5 575.5 c 128,-1,32
 161 591 161 591 140 591 c 128,-1,33
 119 591 119 591 112.5 600 c 128,-1,34
 106 609 106 609 106 619 c 128,-1,35
 106 629 106 629 114 636.5 c 128,-1,36
 122 644 122 644 142 644 c 128,-1,37
 162 644 162 644 189 656.5 c 128,-1,38
 216 669 216 669 216 686.5 c 128,-1,39
 216 704 216 704 206 712.5 c 128,-1,40
 196 721 196 721 183.5 722.5 c 128,-1,41
 171 724 171 724 149 724 c 128,-1,42
 127 724 127 724 109 717.5 c 128,-1,43
 91 711 91 711 91 701 c 0,0,1
EndSplineSet
EndChar

StartChar: acute
Encoding: 180 180 117
Width: 212
GlyphClass: 2
Flags: HW
LayerCount: 2
Fore
SplineSet
83 517 m 2,0,1
 68 500 68 500 56 500 c 0,2,3
 44 500 44 500 34 508.5 c 128,-1,4
 24 517 24 517 24 530.5 c 0,5,6
 24 544 24 544 34 556 c 2,7,-1
 130 671 l 2,8,9
 145 688 145 688 157.5 688 c 0,10,11
 170 688 170 688 179.5 679.5 c 128,-1,12
 189 671 189 671 189 657 c 128,-1,13
 189 643 189 643 179 632 c 2,14,-1
 83 517 l 2,0,1
EndSplineSet
EndChar

StartChar: paragraph
Encoding: 182 182 119
Width: 487
GlyphClass: 2
Flags: HW
LayerCount: 2
Fore
SplineSet
335 20 m 2,0,-1
 335 584 l 1,1,-1
 304 584 l 1,2,-1
 304 20 l 2,3,4
 304 -17 304 -17 273 -17 c 0,5,6
 242 -17 242 -17 242 20 c 2,7,-1
 242 327 l 1,8,-1
 210 327 l 2,9,10
 128 327 128 327 81.5 368.5 c 128,-1,11
 35 410 35 410 35 493.5 c 0,12,13
 35 577 35 577 90 611.5 c 128,-1,14
 145 646 145 646 252 646 c 2,15,-1
 397 646 l 1,16,-1
 397 20 l 2,17,18
 397 -17 397 -17 366 -17 c 0,19,20
 335 -17 335 -17 335 20 c 2,0,-1
EndSplineSet
EndChar

StartChar: periodcentered
Encoding: 183 183 120
Width: 246
GlyphClass: 2
Flags: HW
LayerCount: 2
Fore
SplineSet
179 387 m 128,-1,1
 179 368 179 368 160.5 354.5 c 128,-1,2
 142 341 142 341 122.5 341 c 0,3,4
 103 341 103 341 85 354 c 128,-1,5
 67 367 67 367 67 386.5 c 0,6,7
 67 406 67 406 85.5 419.5 c 128,-1,8
 104 433 104 433 122.5 433 c 0,9,10
 141 433 141 433 160 419.5 c 128,-1,0
 179 406 179 406 179 387 c 128,-1,1
EndSplineSet
EndChar

StartChar: cedilla
Encoding: 184 184 121
Width: 242
GlyphClass: 2
Flags: HW
LayerCount: 2
Fore
SplineSet
148 10 m 1,0,1
 148 -8 148 -8 165 -21 c 128,-1,2
 182 -34 182 -34 199.5 -50.5 c 128,-1,3
 217 -67 217 -67 217 -100 c 128,-1,4
 217 -133 217 -133 187 -156.5 c 128,-1,5
 157 -180 157 -180 123 -180 c 128,-1,6
 89 -180 89 -180 60.5 -167 c 128,-1,7
 32 -154 32 -154 32 -125 c 0,8,9
 32 -114 32 -114 38 -108 c 128,-1,10
 44 -102 44 -102 53 -102 c 128,-1,11
 62 -102 62 -102 84 -111 c 128,-1,12
 106 -120 106 -120 123.5 -120 c 0,13,14
 155 -120 155 -120 155 -99 c 0,15,16
 155 -91 155 -91 144 -81.5 c 128,-1,17
 133 -72 133 -72 120.5 -62.5 c 128,-1,18
 108 -53 108 -53 97 -33.5 c 128,-1,19
 86 -14 86 -14 86 10 c 1,20,-1
 148 10 l 1,0,1
EndSplineSet
EndChar

StartChar: onesuperior
Encoding: 185 185 122
Width: 168
GlyphClass: 2
Flags: HW
LayerCount: 2
Fore
SplineSet
48 682 m 2,0,1
 34 668 34 668 21.5 668 c 128,-1,2
 9 668 9 668 2 675.5 c 128,-1,3
 -5 683 -5 683 -5 693.5 c 128,-1,4
 -5 704 -5 704 9 718 c 2,5,-1
 57 768 l 1,6,7
 71 780 71 780 81.5 780 c 128,-1,8
 92 780 92 780 101.5 773 c 128,-1,9
 111 766 111 766 111 751 c 2,10,-1
 111 480 l 2,11,12
 111 448 111 448 84 448 c 128,-1,13
 57 448 57 448 57 480 c 2,14,-1
 57 691 l 1,15,-1
 48 682 l 2,0,1
EndSplineSet
EndChar

StartChar: ordmasculine
Encoding: 186 186 123
Width: 386
GlyphClass: 2
Flags: HW
LayerCount: 2
Fore
SplineSet
188 290 m 2,0,-1
 197 290 l 2,1,2
 230 290 230 290 238.5 297 c 128,-1,3
 247 304 247 304 247 333 c 2,4,-1
 247 377 l 2,5,6
 247 406 247 406 238.5 413 c 128,-1,7
 230 420 230 420 197 420 c 2,8,-1
 188 420 l 2,9,10
 156 420 156 420 147.5 413.5 c 128,-1,11
 139 407 139 407 139 377 c 2,12,-1
 139 333 l 2,13,14
 139 303 139 303 147.5 296.5 c 128,-1,15
 156 290 156 290 188 290 c 2,0,-1
88 333 m 2,16,-1
 88 377 l 2,17,18
 88 432 88 432 110.5 451.5 c 128,-1,19
 133 471 133 471 188 471 c 2,20,-1
 197 471 l 2,21,22
 252 471 252 471 275 451.5 c 128,-1,23
 298 432 298 432 298 377 c 2,24,-1
 298 333 l 2,25,26
 298 278 298 278 275.5 258.5 c 128,-1,27
 253 239 253 239 197 239 c 2,28,-1
 188 239 l 2,29,30
 133 239 133 239 110.5 258.5 c 128,-1,31
 88 278 88 278 88 333 c 2,16,-1
94 209 m 2,32,-1
 290 209 l 2,33,34
 305 209 305 209 314 201 c 128,-1,35
 323 193 323 193 323 180 c 0,36,37
 323 154 323 154 290 154 c 2,38,-1
 94 154 l 2,39,40
 78 154 78 154 70.5 162.5 c 128,-1,41
 63 171 63 171 63 181.5 c 0,42,43
 63 192 63 192 70.5 200.5 c 128,-1,44
 78 209 78 209 94 209 c 2,32,-1
EndSplineSet
EndChar

StartChar: questiondown
Encoding: 191 191 128
Width: 537
GlyphClass: 2
Flags: HW
LayerCount: 2
Fore
SplineSet
248 417.5 m 128,-1,1
 229 431 229 431 229 450.5 c 128,-1,2
 229 470 229 470 247.5 483 c 128,-1,3
 266 496 266 496 285.5 496 c 128,-1,4
 305 496 305 496 323.5 482.5 c 128,-1,5
 342 469 342 469 342 450 c 128,-1,6
 342 431 342 431 323 417.5 c 128,-1,7
 304 404 304 404 285.5 404 c 128,-1,0
 267 404 267 404 248 417.5 c 128,-1,1
254 285 m 2,8,9
 254 323 254 323 285 323 c 128,-1,10
 316 323 316 323 316 285 c 2,11,-1
 316 137 l 1,12,-1
 155 93 l 2,13,14
 132 87 132 87 115.5 60 c 128,-1,15
 99 33 99 33 99 -6 c 128,-1,16
 99 -45 99 -45 121.5 -79 c 128,-1,17
 144 -113 144 -113 191 -113 c 2,18,-1
 285 -113 l 2,19,20
 332 -113 332 -113 357 -110 c 128,-1,21
 382 -107 382 -107 403.5 -94.5 c 128,-1,22
 425 -82 425 -82 432.5 -58 c 128,-1,23
 440 -34 440 -34 440 -4.5 c 0,24,25
 440 46 440 46 471.5 46 c 128,-1,26
 503 46 503 46 503 8 c 0,27,28
 503 -105.612903226 503 -105.612903226 442 -143 c 0,29,30
 411 -162 411 -162 375 -168.5 c 128,-1,31
 339 -175 339 -175 285 -175 c 2,32,-1
 209 -175 l 2,33,34
 118 -175 118 -175 77.5 -125 c 128,-1,35
 37 -75 37 -75 37 -6 c 128,-1,36
 37 63 37 63 67 101.5 c 128,-1,37
 97 140 97 140 169 160 c 2,38,-1
 254 184 l 1,39,-1
 254 285 l 2,8,9
EndSplineSet
EndChar

StartChar: AE
Encoding: 198 198 135
Width: 884
GlyphClass: 2
Flags: HW
AnchorPoint: "Anchor-1" 434 0 basechar 0
AnchorPoint: "Anchor-0" 434 678 basechar 0
LayerCount: 2
Fore
SplineSet
465 322 m 1,0,-1
 465 62 l 1,1,-1
 797 62 l 2,2,3
 836 62 836 62 836 29 c 0,4,5
 836 0 836 0 797 0 c 2,6,-1
 431 0 l 2,7,8
 402 0 402 0 402 40 c 2,9,-1
 402 189 l 1,10,-1
 191 189 l 1,11,-1
 71 9 l 2,12,13
 54 -16 54 -16 34 -16 c 0,14,15
 26 -16 26 -16 17.5 -10.5 c 128,-1,16
 9 -5 9 -5 9 6.5 c 0,17,18
 9 18 9 18 18 32 c 2,19,-1
 408 624 l 2,20,21
 416 636 416 636 431 636 c 2,22,-1
 797 636 l 2,23,24
 836 636 836 636 836 603 c 0,25,26
 836 574 836 574 797 574 c 2,27,-1
 465 574 l 1,28,-1
 465 384 l 1,29,-1
 677 384 l 2,30,31
 719 384 719 384 719 351 c 0,32,33
 719 322 719 322 677 322 c 2,34,-1
 465 322 l 1,0,-1
232 251 m 1,35,-1
 402 251 l 1,36,-1
 402 511 l 1,37,-1
 232 251 l 1,35,-1
EndSplineSet
EndChar

StartChar: Ccedilla
Encoding: 199 199 136
Width: 610
GlyphClass: 2
Flags: HW
LayerCount: 2
Fore
SplineSet
288 0 m 1,0,1
 174 2 174 2 122.5 40 c 128,-1,2
 71 78 71 78 71 182 c 2,3,-1
 71 454 l 2,4,5
 71 562 71 562 125.5 599 c 128,-1,6
 180 636 180 636 297 636 c 2,7,-1
 450 636 l 2,8,9
 513 636 513 636 534 604 c 128,-1,10
 555 572 555 572 555 519 c 0,11,12
 555 479 555 479 524 479 c 128,-1,13
 493 479 493 479 493 514.5 c 128,-1,14
 493 550 493 550 482.5 562 c 128,-1,15
 472 574 472 574 443 574 c 2,16,-1
 297 574 l 2,17,18
 201 574 201 574 167 552.5 c 128,-1,19
 133 531 133 531 133 453 c 2,20,-1
 133 183 l 2,21,22
 133 104 133 104 168.5 83 c 128,-1,23
 204 62 204 62 309 62 c 2,24,-1
 443 62 l 2,25,26
 472 62 472 62 482.5 74.5 c 128,-1,27
 493 87 493 87 493 122 c 128,-1,28
 493 157 493 157 524 157 c 128,-1,29
 555 157 555 157 555 110.5 c 128,-1,30
 555 64 555 64 534 32 c 128,-1,31
 513 0 513 0 450 0 c 2,32,-1
 351 0 l 1,33,34
 355.962085308 -18.1943127962 355.962085308 -18.1943127962 388.5 -38 c 0,35,36
 400 -45 400 -45 409.5 -59.5 c 128,-1,37
 419 -74 419 -74 419 -94 c 0,38,39
 419 -133 419 -133 389 -156.5 c 128,-1,40
 359 -180 359 -180 325 -180 c 128,-1,41
 291 -180 291 -180 262.5 -167 c 128,-1,42
 234 -154 234 -154 234 -125 c 0,43,44
 234 -114 234 -114 240 -108 c 128,-1,45
 246 -102 246 -102 255 -102 c 128,-1,46
 264 -102 264 -102 286 -111 c 128,-1,47
 308 -120 308 -120 325.5 -120 c 0,48,49
 357 -120 357 -120 357 -99 c 0,50,51
 357 -90 357 -90 341 -78.5 c 0,52,53
 292.879245283 -43.9132075472 292.879245283 -43.9132075472 288 0 c 1,0,1
EndSplineSet
EndChar

StartChar: Eth
Encoding: 208 208 145
Width: 639
GlyphClass: 2
Flags: HW
LayerCount: 2
Fore
SplineSet
506 183 m 2,0,-1
 506 453 l 2,1,2
 506 532 506 532 472 553 c 128,-1,3
 438 574 438 574 343 574 c 2,4,-1
 146 574 l 1,5,-1
 146 356 l 1,6,-1
 240 356 l 2,7,8
 279 356 279 356 279 324.5 c 0,9,10
 279 293 279 293 240 293 c 2,11,-1
 146 293 l 1,12,-1
 146 62 l 1,13,-1
 331 62 l 2,14,15
 435 62 435 62 470.5 83 c 128,-1,16
 506 104 506 104 506 183 c 2,0,-1
568 454 m 2,17,-1
 568 182 l 2,18,19
 568 73 568 73 512 36.5 c 128,-1,20
 456 0 456 0 331 0 c 2,21,-1
 113 0 l 2,22,23
 84 0 84 0 84 40 c 2,24,-1
 84 293 l 1,25,26
 47 293 47 293 47 326 c 0,27,28
 47 356 47 356 84 356 c 1,29,-1
 84 596 l 2,30,31
 84 636 84 636 113 636 c 2,32,-1
 343 636 l 2,33,34
 459 636 459 636 513.5 599 c 128,-1,35
 568 562 568 562 568 454 c 2,17,-1
EndSplineSet
EndChar

StartChar: multiply
Encoding: 215 215 152
Width: 502
GlyphClass: 2
Flags: HW
LayerCount: 2
Fore
SplineSet
416 109 m 2,0,1
 429 96 429 96 429 83.5 c 128,-1,2
 429 71 429 71 419 61.5 c 128,-1,3
 409 52 409 52 397 52 c 128,-1,4
 385 52 385 52 372 65 c 2,5,-1
 250 187 l 1,6,-1
 123 60 l 2,7,8
 111 47 111 47 97.5 47 c 128,-1,9
 84 47 84 47 75 55 c 128,-1,10
 66 63 66 63 66 76 c 128,-1,11
 66 89 66 89 81 102 c 1,12,-1
 208 229 l 1,13,-1
 86 351 l 2,14,15
 74 363 74 363 74 376 c 128,-1,16
 74 389 74 389 83 398.5 c 128,-1,17
 92 408 92 408 104.5 408 c 128,-1,18
 117 408 117 408 130 395 c 2,19,-1
 252 273 l 1,20,-1
 379 400 l 1,21,22
 391 414 391 414 404.5 414 c 128,-1,23
 418 414 418 414 426.5 405 c 128,-1,24
 435 396 435 396 435 384 c 128,-1,25
 435 372 435 372 421 358 c 2,26,-1
 294 231 l 1,27,-1
 416 109 l 2,0,1
EndSplineSet
EndChar

StartChar: Oslash
Encoding: 216 216 153
Width: 614
GlyphClass: 2
Flags: HW
AnchorPoint: "Anchor-1" 307 0 basechar 0
AnchorPoint: "Anchor-0" 307 678 basechar 0
LayerCount: 2
Fore
SplineSet
437 540 m 1,0,1
 389 583 389 583 304.5 583 c 128,-1,2
 220 583 220 583 173.5 536 c 128,-1,3
 127 489 127 489 127 405 c 2,4,-1
 127 231 l 2,5,6
 127 185 127 185 141 148 c 1,7,-1
 437 540 l 1,0,1
493 615 m 2,8,9
 506 632 506 632 519.5 632 c 128,-1,10
 533 632 533 632 542.5 623 c 128,-1,11
 552 614 552 614 552 602.5 c 128,-1,12
 552 591 552 591 542 577 c 2,13,-1
 515 541 l 1,14,15
 549 484 549 484 549 407 c 2,16,-1
 549 229 l 2,17,18
 549 118 549 118 481.5 54.5 c 128,-1,19
 414 -9 414 -9 310 -9 c 128,-1,20
 206 -9 206 -9 142 46 c 1,21,-1
 123 21 l 2,22,23
 110 4 110 4 97 4 c 128,-1,24
 84 4 84 4 73.5 12.5 c 128,-1,25
 63 21 63 21 63 32.5 c 128,-1,26
 63 44 63 44 73 58 c 2,27,-1
 100 94 l 1,28,29
 65 151 65 151 65 229 c 2,30,-1
 65 407 l 2,31,32
 65 518 65 518 132 581.5 c 128,-1,33
 199 645 199 645 304 645 c 128,-1,34
 409 645 409 645 473 589 c 1,35,-1
 493 615 l 2,8,9
473 486 m 1,36,-1
 178 95 l 1,37,38
 226 53 226 53 310.5 53 c 128,-1,39
 395 53 395 53 441 99.5 c 128,-1,40
 487 146 487 146 487 231 c 2,41,-1
 487 405 l 2,42,43
 487 449 487 449 473 486 c 1,36,-1
EndSplineSet
EndChar

StartChar: Thorn
Encoding: 222 222 159
Width: 540
GlyphClass: 2
Flags: HW
LayerCount: 2
Fore
SplineSet
146 471 m 1,0,-1
 323 471 l 2,1,2
 409 471 409 471 457 431 c 128,-1,3
 505 391 505 391 505 314.5 c 0,4,5
 505 238 505 238 457 197.5 c 128,-1,6
 409 157 409 157 322 157 c 2,7,-1
 146 157 l 1,8,-1
 146 30 l 2,9,10
 146 -7 146 -7 115 -7 c 0,11,12
 84 -7 84 -7 84 30 c 2,13,-1
 84 573 l 2,14,15
 84 611 84 611 115 611 c 128,-1,16
 146 611 146 611 146 573 c 2,17,-1
 146 471 l 1,0,-1
275 409 m 2,18,-1
 146 409 l 1,19,-1
 146 213 l 1,20,-1
 274 213 l 2,21,22
 372 213 372 213 407 232 c 128,-1,23
 442 251 442 251 442 310.5 c 0,24,25
 442 370 442 370 406 389.5 c 128,-1,26
 370 409 370 409 275 409 c 2,18,-1
EndSplineSet
EndChar

StartChar: germandbls
Encoding: 223 223 160
Width: 485
GlyphClass: 2
Flags: HW
LayerCount: 2
Fore
SplineSet
164 347 m 1,0,-1
 164 406 l 1,1,2
 316 406 316 406 316 517 c 0,3,4
 316 543 316 543 294.5 558.5 c 128,-1,5
 273 574 273 574 224 574 c 128,-1,6
 175 574 175 574 150 553.5 c 128,-1,7
 125 533 125 533 125 461 c 2,8,-1
 125 34 l 2,9,10
 125 -7 125 -7 92 -7 c 0,11,12
 63 -7 63 -7 63 33 c 2,13,-1
 63 402 l 1,14,15
 32 404 32 404 32 433 c 0,16,17
 32 457 32 457 63 461 c 1,18,19
 66.979880775 568.456780924 66.979880775 568.456780924 119.5 604.5 c 0,20,21
 165.4 636 165.4 636 235.2 636 c 128,-1,22
 305 636 305 636 341.5 600 c 128,-1,23
 378 564 378 564 378 515 c 0,24,25
 378 431 378 431 310 382 c 1,26,27
 446 339 446 339 446 197 c 0,28,29
 446 66.2941176471 446 66.2941176471 390.5 19.5 c 0,30,31
 343.651162791 -20 343.651162791 -20 291.325581395 -20 c 128,-1,32
 239 -20 239 -20 195.5 10.5 c 128,-1,33
 152 41 152 41 152 96 c 0,34,35
 152 137 152 137 187 137 c 128,-1,36
 222 137 222 137 222 98 c 0,37,38
 222 68 222 68 244.5 55 c 128,-1,39
 267 42 267 42 297 42 c 0,40,41
 384 42 384 42 384 199 c 0,42,43
 384 272.744680851 384 272.744680851 322.5 312 c 0,44,45
 267.666666667 347 267.666666667 347 164 347 c 1,0,-1
EndSplineSet
EndChar

StartChar: ae
Encoding: 230 230 167
Width: 964
GlyphClass: 2
Flags: HW
AnchorPoint: "Anchor-1" 459 0 basechar 0
AnchorPoint: "Anchor-0" 484 510 basechar 0
LayerCount: 2
Fore
SplineSet
288 238 m 2,0,1
 190 238 190 238 156 217.5 c 128,-1,2
 122 197 122 197 122 121 c 0,3,4
 122 98 122 98 138 80 c 128,-1,5
 154 62 154 62 172 62 c 2,6,-1
 265 62 l 2,7,8
 358 62 358 62 396 109 c 128,-1,9
 434 156 434 156 434 228 c 1,10,-1
 432 238 l 1,11,-1
 288 238 l 2,0,1
677 399 m 2,12,-1
 669 399 l 2,13,14
 572 399 572 399 536 380.5 c 128,-1,15
 500 362 500 362 497 300 c 1,16,-1
 842 300 l 1,17,18
 839 362 839 362 804 380.5 c 128,-1,19
 769 399 769 399 677 399 c 2,12,-1
904 284 m 2,20,-1
 904 238 l 1,21,-1
 497 238 l 1,22,-1
 499 179 l 1,23,24
 499 103 499 103 533.5 82.5 c 128,-1,25
 568 62 568 62 669 62 c 2,26,-1
 792 62 l 2,27,28
 821 62 821 62 831.5 74.5 c 128,-1,29
 842 87 842 87 842 122 c 0,30,31
 842 157 842 157 873 157 c 128,-1,32
 904 157 904 157 904 110.5 c 0,33,34
 904 64 904 64 883 32 c 128,-1,35
 862 0 862 0 799 0 c 2,36,-1
 669 0 l 2,37,38
 586 0 586 0 534.5 15.5 c 128,-1,39
 483 31 483 31 458 74 c 1,40,41
 427 39 427 39 370 19.5 c 128,-1,42
 313 0 313 0 265 0 c 2,43,-1
 172 0 l 2,44,45
 123 0 123 0 91.5 34.5 c 128,-1,46
 60 69 60 69 60 126 c 0,47,48
 60 227 60 227 116 263.5 c 128,-1,49
 172 300 172 300 288 300 c 2,50,-1
 432 300 l 1,51,-1
 432 350 l 2,52,53
 432 378 432 378 421 388.5 c 128,-1,54
 410 399 410 399 380 399 c 2,55,-1
 239 399 l 2,56,57
 122 399 122 399 122 344 c 0,58,59
 122 304 122 304 91 304 c 0,60,61
 60 304 60 304 60 344 c 0,62,63
 60 404 60 404 107.5 432.5 c 128,-1,64
 155 461 155 461 232 461 c 2,65,-1
 387 461 l 2,66,67
 460 461 460 461 482 418 c 1,68,69
 532 461 532 461 669 461 c 2,70,-1
 677 461 l 2,71,72
 794 461 794 461 849 425 c 128,-1,73
 904 389 904 389 904 284 c 2,20,-1
EndSplineSet
EndChar

StartChar: ccedilla
Encoding: 231 231 168
Width: 604
GlyphClass: 2
Flags: HW
LayerCount: 2
Fore
SplineSet
269 0 m 1,0,1
 161 3 161 3 111.5 40.5 c 128,-1,2
 62 78 62 78 62 177 c 2,3,-1
 62 284 l 2,4,5
 62 389 62 389 118.5 425 c 128,-1,6
 175 461 175 461 300 461 c 2,7,-1
 441 461 l 2,8,9
 507.888888889 461 507.888888889 461 529 423 c 0,10,11
 546 392.4 546 392.4 546 348.2 c 128,-1,12
 546 304 546 304 515 304 c 128,-1,13
 484 304 484 304 484 339.5 c 128,-1,14
 484 375 484 375 473.5 387 c 128,-1,15
 463 399 463 399 434 399 c 2,16,-1
 300 399 l 2,17,18
 194 399 194 399 159 378.5 c 128,-1,19
 124 358 124 358 124 282 c 2,20,-1
 124 179 l 2,21,22
 124 103 124 103 159 82.5 c 128,-1,23
 194 62 194 62 300 62 c 2,24,-1
 434 62 l 2,25,26
 463 62 463 62 473.5 74.5 c 128,-1,27
 484 87 484 87 484 122 c 128,-1,28
 484 157 484 157 515 157 c 128,-1,29
 546 157 546 157 546 110.5 c 128,-1,30
 546 64 546 64 525 32 c 128,-1,31
 504 0 504 0 441 0 c 2,32,-1
 332 0 l 1,33,34
 336.962085308 -18.1943127962 336.962085308 -18.1943127962 369.5 -38 c 0,35,36
 381 -45 381 -45 390.5 -59.5 c 128,-1,37
 400 -74 400 -74 400 -94 c 0,38,39
 400 -133 400 -133 370 -156.5 c 128,-1,40
 340 -180 340 -180 306 -180 c 128,-1,41
 272 -180 272 -180 243.5 -167 c 128,-1,42
 215 -154 215 -154 215 -125 c 0,43,44
 215 -114 215 -114 221 -108 c 128,-1,45
 227 -102 227 -102 236 -102 c 128,-1,46
 245 -102 245 -102 267 -111 c 128,-1,47
 289 -120 289 -120 306.5 -120 c 0,48,49
 338 -120 338 -120 338 -99 c 0,50,51
 338 -90 338 -90 322 -78.5 c 0,52,53
 273.879245283 -43.9132075472 273.879245283 -43.9132075472 269 0 c 1,0,1
EndSplineSet
EndChar

StartChar: eth
Encoding: 240 240 177
Width: 584
GlyphClass: 2
Flags: HW
LayerCount: 2
Fore
SplineSet
243 561 m 1,0,1
 199 573 199 573 160 573 c 128,-1,2
 121 573 121 573 121 603 c 0,3,4
 121 636 121 636 157 636 c 0,5,6
 230 636 230 636 296 611 c 1,7,-1
 328 641 l 2,8,9
 343 654 343 654 356.5 654 c 128,-1,10
 370 654 370 654 380.5 646 c 128,-1,11
 391 638 391 638 391 624.5 c 128,-1,12
 391 611 391 611 376 596 c 1,13,-1
 359 581 l 1,14,15
 530 475 530 475 530 223 c 0,16,17
 530 125 530 125 470 54.5 c 128,-1,18
 410 -16 410 -16 299.5 -16 c 128,-1,19
 189 -16 189 -16 117.5 47 c 128,-1,20
 46 110 46 110 46 220 c 128,-1,21
 46 330 46 330 117.5 393 c 128,-1,22
 189 456 189 456 305 456 c 0,23,24
 372 456 372 456 422 427 c 1,25,26
 384 495 384 495 310 535 c 1,27,-1
 260 490 l 2,28,29
 247 477 247 477 233.5 477 c 128,-1,30
 220 477 220 477 208.5 485.5 c 128,-1,31
 197 494 197 494 197 506.5 c 128,-1,32
 197 519 197 519 213 535 c 1,33,-1
 243 561 l 1,0,1
426.5 100.5 m 128,-1,35
 468 155 468 155 468 224 c 128,-1,36
 468 293 468 293 428 343.5 c 128,-1,37
 388 394 388 394 301.5 394 c 128,-1,38
 215 394 215 394 161.5 346.5 c 128,-1,39
 108 299 108 299 108 221 c 128,-1,40
 108 143 108 143 160.5 94.5 c 128,-1,41
 213 46 213 46 299 46 c 128,-1,34
 385 46 385 46 426.5 100.5 c 128,-1,35
EndSplineSet
EndChar

StartChar: divide
Encoding: 247 247 184
Width: 439
GlyphClass: 2
Flags: HW
LayerCount: 2
Fore
SplineSet
95 262 m 2,0,-1
 340 262 l 2,1,2
 379 262 379 262 379 229 c 0,3,4
 379 215 379 215 367.5 207 c 128,-1,5
 356 199 356 199 340 199 c 2,6,-1
 95 199 l 2,7,8
 59 199 59 199 59 231 c 0,9,10
 59 243 59 243 67.5 252.5 c 128,-1,11
 76 262 76 262 95 262 c 2,0,-1
271 128 m 128,-1,13
 271 109 271 109 252.5 95.5 c 128,-1,14
 234 82 234 82 214.5 82 c 0,15,16
 195 82 195 82 177 95 c 128,-1,17
 159 108 159 108 159 127.5 c 0,18,19
 159 147 159 147 177.5 160.5 c 128,-1,20
 196 174 196 174 214.5 174 c 0,21,22
 233 174 233 174 252 160.5 c 128,-1,12
 271 147 271 147 271 128 c 128,-1,13
271 333 m 128,-1,24
 271 314 271 314 252.5 300.5 c 128,-1,25
 234 287 234 287 214.5 287 c 0,26,27
 195 287 195 287 177 300 c 128,-1,28
 159 313 159 313 159 332.5 c 0,29,30
 159 352 159 352 177.5 365.5 c 128,-1,31
 196 379 196 379 214.5 379 c 0,32,33
 233 379 233 379 252 365.5 c 128,-1,23
 271 352 271 352 271 333 c 128,-1,24
EndSplineSet
EndChar

StartChar: oslash
Encoding: 248 248 185
Width: 628
GlyphClass: 2
Flags: HW
AnchorPoint: "Anchor-1" 314 0 basechar 0
AnchorPoint: "Anchor-0" 314 510 basechar 0
LayerCount: 2
Fore
SplineSet
300 62 m 2,0,-1
 329 62 l 2,1,2
 433 62 433 62 468.5 82 c 128,-1,3
 504 102 504 102 504 179 c 2,4,-1
 504 282 l 2,5,6
 504 322 504 322 496 343 c 1,7,-1
 176 74 l 1,8,9
 210 62 210 62 300 62 c 2,0,-1
329 0 m 2,10,-1
 300 0 l 2,11,12
 178 0 178 0 125 31 c 1,13,-1
 113 21 l 1,14,15
 98 10 98 10 86 10 c 0,16,17
 74 10 74 10 65.5 20.5 c 128,-1,18
 57 31 57 31 57 43.5 c 0,19,20
 57 56 57 56 73 69 c 2,21,-1
 82 77 l 1,22,23
 62 115 62 115 62 177 c 2,24,-1
 62 284 l 2,25,26
 62 389 62 389 118.5 425 c 128,-1,27
 175 461 175 461 300 461 c 2,28,-1
 329 461 l 2,29,30
 450 461 450 461 503 430 c 1,31,-1
 515 440 l 2,32,33
 529 451 529 451 541 451 c 128,-1,34
 553 451 553 451 562 441.5 c 128,-1,35
 571 432 571 432 571 418.5 c 0,36,37
 571 405 571 405 555 392 c 2,38,-1
 546 384 l 1,39,40
 566 346 566 346 566 284 c 2,41,-1
 566 177 l 2,42,43
 566 72 566 72 509.5 36 c 128,-1,44
 453 0 453 0 329 0 c 2,10,-1
132 118 m 1,45,-1
 452 387 l 1,46,47
 418 399 418 399 329 399 c 2,48,-1
 300 399 l 2,49,50
 194 399 194 399 159 378.5 c 128,-1,51
 124 358 124 358 124 282 c 2,52,-1
 124 179 l 2,53,54
 124 139 124 139 132 118 c 1,45,-1
EndSplineSet
EndChar

StartChar: thorn
Encoding: 254 254 191
Width: 641
GlyphClass: 2
Flags: HW
LayerCount: 2
Fore
SplineSet
517 282 m 2,0,1
 517 359 517 359 481.5 379 c 128,-1,2
 446 399 446 399 342 399 c 2,3,-1
 313 399 l 2,4,5
 137 399 137 399 137 232 c 2,6,-1
 137 62 l 1,7,-1
 344 62 l 2,8,9
 447 62 447 62 482 82 c 128,-1,10
 517 102 517 102 517 179 c 2,11,-1
 517 282 l 2,0,1
579 177 m 2,12,13
 579 72 579 72 523 36 c 128,-1,14
 467 0 467 0 344 0 c 2,15,-1
 137 0 l 1,16,-1
 137 -142 l 2,17,18
 137 -182 137 -182 104 -182 c 0,19,20
 75 -182 75 -182 75 -142 c 2,21,-1
 75 603 l 2,22,23
 75 643 75 643 106 643 c 128,-1,24
 137 643 137 643 137 603 c 2,25,-1
 137 405 l 1,26,27
 197 461 197 461 313 461 c 2,28,-1
 342 461 l 2,29,30
 466 461 466 461 522.5 425 c 128,-1,31
 579 389 579 389 579 284 c 2,32,-1
 579 177 l 2,12,13
EndSplineSet
EndChar

StartChar: dcroat
Encoding: 273 273 210
Width: 641
GlyphClass: 2
Flags: HW
LayerCount: 2
Fore
SplineSet
62 284 m 2,0,1
 62 389 62 389 118 425 c 128,-1,2
 174 461 174 461 297 461 c 2,3,-1
 504 461 l 1,4,-1
 504 507 l 1,5,-1
 330 507 l 2,6,7
 294 507 294 507 294 539 c 0,8,9
 294 551 294 551 302.5 560.5 c 128,-1,10
 311 570 311 570 330 570 c 2,11,-1
 504 570 l 1,12,-1
 504 603 l 2,13,14
 504 643 504 643 537 643 c 0,15,16
 566 643 566 643 566 603 c 2,17,-1
 566 570 l 1,18,-1
 575 570 l 2,19,20
 614 570 614 570 614 537 c 0,21,22
 614 523 614 523 602.5 515 c 128,-1,23
 591 507 591 507 575 507 c 2,24,-1
 566 507 l 1,25,-1
 566 31 l 2,26,27
 566 -7 566 -7 535 -7 c 128,-1,28
 504 -7 504 -7 504 33 c 2,29,-1
 504 56 l 1,30,31
 444 0 444 0 328 0 c 2,32,-1
 299 0 l 2,33,34
 175 0 175 0 118.5 36 c 128,-1,35
 62 72 62 72 62 177 c 2,36,-1
 62 284 l 2,0,1
124 179 m 2,37,38
 124 102 124 102 159.5 82 c 128,-1,39
 195 62 195 62 299 62 c 2,40,-1
 328 62 l 2,41,42
 504 62 504 62 504 229 c 2,43,-1
 504 399 l 1,44,-1
 297 399 l 2,45,46
 194 399 194 399 159 379 c 128,-1,47
 124 359 124 359 124 282 c 2,48,-1
 124 179 l 2,37,38
EndSplineSet
EndChar

StartChar: Eogonek
Encoding: 280 280 215
Width: 616
GlyphClass: 2
Flags: HW
AnchorPoint: "Anchor-1" 333 0 basechar 0
AnchorPoint: "Anchor-0" 333 678 basechar 0
LayerCount: 2
Fore
SplineSet
146 327 m 1,0,-1
 146 62 l 1,1,-1
 529 62 l 2,2,3
 568 62 568 62 568 29 c 0,4,5
 568 0 568 0 529 0 c 2,6,-1
 367 0 l 1,7,8
 335 -19 335 -19 316.5 -51 c 128,-1,9
 298 -83 298 -83 298 -96 c 0,10,11
 298 -145 298 -145 335 -145 c 0,12,13
 350 -145 350 -145 372 -136.5 c 128,-1,14
 394 -128 394 -128 401 -128 c 0,15,16
 421 -128 421 -128 421 -153.5 c 0,17,18
 421 -179 421 -179 392.5 -192 c 128,-1,19
 364 -205 364 -205 329 -205 c 0,20,21
 294 -205 294 -205 265 -175 c 128,-1,22
 236 -145 236 -145 236 -102 c 0,23,24
 236 -59 236 -59 282 0 c 1,25,-1
 113 0 l 2,26,27
 84 0 84 0 84 40 c 2,28,-1
 84 601 l 2,29,30
 84 641 84 641 113 641 c 2,31,-1
 529 641 l 2,32,33
 568 641 568 641 568 608 c 0,34,35
 568 579 568 579 529 579 c 2,36,-1
 146 579 l 1,37,-1
 146 389 l 1,38,-1
 408 389 l 2,39,40
 451 389 451 389 451 356 c 0,41,42
 451 327 451 327 408 327 c 2,43,-1
 146 327 l 1,0,-1
EndSplineSet
EndChar

StartChar: eogonek
Encoding: 281 281 216
Width: 626
GlyphClass: 2
Flags: HW
AnchorPoint: "Anchor-1" 324 0 basechar 0
AnchorPoint: "Anchor-0" 324 510 basechar 0
LayerCount: 2
Fore
SplineSet
329 399 m 2,0,-1
 300 399 l 2,1,2
 198 399 198 399 162 381.5 c 128,-1,3
 126 364 126 364 124 302 c 1,4,-1
 504 302 l 1,5,6
 502 364 502 364 466 381.5 c 128,-1,7
 430 399 430 399 329 399 c 2,0,-1
566 284 m 2,8,-1
 566 240 l 1,9,-1
 124 240 l 1,10,-1
 124 179 l 2,11,12
 124 103 124 103 159 82.5 c 128,-1,13
 194 62 194 62 300 62 c 2,14,-1
 454 62 l 2,15,16
 483 62 483 62 493.5 74.5 c 128,-1,17
 504 87 504 87 504 122 c 0,18,19
 504 157 504 157 535 157 c 128,-1,20
 566 157 566 157 566 110.5 c 0,21,22
 566 64 566 64 545 32 c 128,-1,23
 524 0 524 0 461 0 c 2,24,-1
 392 0 l 1,25,26
 360 -19 360 -19 341.5 -51 c 128,-1,27
 323 -83 323 -83 323 -96 c 0,28,29
 323 -145 323 -145 360 -145 c 0,30,31
 376 -145 376 -145 398 -136.5 c 128,-1,32
 420 -128 420 -128 426 -128 c 0,33,34
 446 -128 446 -128 446 -153.5 c 0,35,36
 446 -179 446 -179 417.5 -192 c 128,-1,37
 389 -205 389 -205 354 -205 c 0,38,39
 319 -205 319 -205 290 -175 c 128,-1,40
 261 -145 261 -145 261 -102 c 0,41,42
 261 -59 261 -59 307 0 c 1,43,-1
 300 0 l 2,44,45
 175 0 175 0 118.5 36 c 128,-1,46
 62 72 62 72 62 177 c 2,47,-1
 62 284 l 2,48,49
 62 389 62 389 118.5 425 c 128,-1,50
 175 461 175 461 300 461 c 2,51,-1
 329 461 l 2,52,53
 453 461 453 461 509.5 425 c 128,-1,54
 566 389 566 389 566 284 c 2,8,-1
EndSplineSet
EndChar

StartChar: Hbar
Encoding: 294 294 229
Width: 656
GlyphClass: 2
Flags: HW
LayerCount: 2
Fore
SplineSet
54 508 m 2,0,1
 28 508 28 508 28 529.5 c 0,2,3
 28 551 28 551 54 551 c 2,4,-1
 86 551 l 1,5,-1
 86 604 l 2,6,7
 86 643 86 643 115 643 c 0,8,9
 148 643 148 643 148 604 c 2,10,-1
 148 551 l 1,11,-1
 508 551 l 1,12,-1
 508 604 l 2,13,14
 508 643 508 643 539 643 c 0,15,16
 570 643 570 643 570 604 c 2,17,-1
 570 551 l 1,18,-1
 599 551 l 2,19,20
 628 551 628 551 628 528 c 0,21,22
 628 508 628 508 599 508 c 2,23,-1
 570 508 l 1,24,-1
 570 31 l 2,25,26
 570 -7 570 -7 539 -7 c 0,27,28
 508 -7 508 -7 508 31 c 2,29,-1
 508 312 l 1,30,-1
 148 312 l 1,31,-1
 148 31 l 2,32,33
 148 -7 148 -7 117 -7 c 128,-1,34
 86 -7 86 -7 86 31 c 2,35,-1
 86 508 l 1,36,-1
 54 508 l 2,0,1
508 508 m 1,37,-1
 148 508 l 1,38,-1
 148 374 l 1,39,-1
 508 374 l 1,40,-1
 508 508 l 1,37,-1
EndSplineSet
EndChar

StartChar: hbar
Encoding: 295 295 230
Width: 648
GlyphClass: 2
Flags: HW
LayerCount: 2
Fore
SplineSet
75 495 m 1,0,1
 50 495 50 495 39 505 c 128,-1,2
 28 515 28 515 28 528 c 128,-1,3
 28 541 28 541 41 549.5 c 128,-1,4
 54 558 54 558 75 558 c 1,5,-1
 75 602 l 2,6,7
 75 643 75 643 104 643 c 0,8,9
 137 643 137 643 137 602 c 2,10,-1
 137 558 l 1,11,-1
 353 558 l 2,12,13
 378 558 378 558 389 548 c 128,-1,14
 400 538 400 538 400 525 c 128,-1,15
 400 512 400 512 387 503.5 c 128,-1,16
 374 495 374 495 353 495 c 2,17,-1
 137 495 l 1,18,-1
 137 405 l 1,19,20
 200 461 200 461 313 461 c 2,21,-1
 342 461 l 2,22,23
 466 461 466 461 522.5 425 c 128,-1,24
 579 389 579 389 579 284 c 2,25,-1
 579 31 l 2,26,27
 579 -7 579 -7 548 -7 c 0,28,29
 517 -7 517 -7 517 31 c 2,30,-1
 517 282 l 2,31,32
 517 359 517 359 481.5 379 c 128,-1,33
 446 399 446 399 342 399 c 2,34,-1
 313 399 l 2,35,36
 137 399 137 399 137 230 c 2,37,-1
 137 31 l 2,38,39
 137 -7 137 -7 106 -7 c 128,-1,40
 75 -7 75 -7 75 31 c 2,41,-1
 75 495 l 1,0,1
EndSplineSet
EndChar

StartChar: Iogonek
Encoding: 302 302 235
Width: 234
GlyphClass: 2
Flags: HW
AnchorPoint: "Anchor-1" 116 0 basechar 0
AnchorPoint: "Anchor-0" 116 678 basechar 0
LayerCount: 2
Fore
SplineSet
88 39 m 1,0,-1
 88 606 l 2,1,2
 88 643 88 643 119 643 c 128,-1,3
 150 643 150 643 150 606 c 2,4,-1
 150 29 l 2,5,6
 150 1 150 1 131 -5 c 1,7,8
 103 -24 103 -24 86.5 -54 c 128,-1,9
 70 -84 70 -84 70 -96 c 0,10,11
 70 -145 70 -145 107 -145 c 0,12,13
 122 -145 122 -145 144 -136.5 c 128,-1,14
 166 -128 166 -128 173 -128 c 0,15,16
 193 -128 193 -128 193 -153.5 c 0,17,18
 193 -179 193 -179 164.5 -192 c 128,-1,19
 136 -205 136 -205 101 -205 c 0,20,21
 66 -205 66 -205 37 -175 c 128,-1,22
 8 -145 8 -145 8 -96 c 0,23,24
 8 -68 8 -68 33.5 -29 c 128,-1,25
 59 10 59 10 88 39 c 1,0,-1
EndSplineSet
EndChar

StartChar: iogonek
Encoding: 303 303 236
Width: 214
GlyphClass: 2
Flags: HW
AnchorPoint: "Anchor-1" 104 0 basechar 0
AnchorPoint: "Anchor-0" 104 678 basechar 0
LayerCount: 2
Fore
SplineSet
165 601 m 128,-1,1
 165 582 165 582 146 568.5 c 128,-1,2
 127 555 127 555 108.5 555 c 0,3,4
 90 555 90 555 71.5 568.5 c 128,-1,5
 53 582 53 582 53 601.5 c 0,6,7
 53 621 53 621 71 634 c 128,-1,8
 89 647 89 647 108.5 647 c 0,9,10
 128 647 128 647 146.5 633.5 c 128,-1,0
 165 620 165 620 165 601 c 128,-1,1
114 -17 m 1,11,12
 92 -37 92 -37 79 -62 c 128,-1,13
 66 -87 66 -87 66 -97 c 0,14,15
 66 -146 66 -146 103 -146 c 0,16,17
 118 -146 118 -146 140 -137.5 c 128,-1,18
 162 -129 162 -129 169 -129 c 0,19,20
 189 -129 189 -129 189 -154.5 c 0,21,22
 189 -180 189 -180 160.5 -193 c 128,-1,23
 132 -206 132 -206 97 -206 c 0,24,25
 62 -206 62 -206 33 -176 c 128,-1,26
 4 -146 4 -146 4 -96.5 c 0,27,28
 4 -47 4 -47 78 32 c 1,29,-1
 78 440 l 2,30,31
 78 478 78 478 109 478 c 128,-1,32
 140 478 140 478 140 440 c 2,33,-1
 140 20 l 2,34,35
 140 -13 140 -13 114 -17 c 1,11,12
EndSplineSet
EndChar

StartChar: dotlessi
Encoding: 305 305 238
Width: 208
GlyphClass: 2
Flags: HW
AnchorPoint: "Anchor-1" 104 0 basechar 0
AnchorPoint: "Anchor-0" 104 510 basechar 0
LayerCount: 2
Fore
SplineSet
73 20 m 2,0,-1
 73 440 l 2,1,2
 73 478 73 478 104 478 c 128,-1,3
 135 478 135 478 135 440 c 2,4,-1
 135 20 l 2,5,6
 135 -17 135 -17 104 -17 c 0,7,8
 73 -17 73 -17 73 20 c 2,0,-1
EndSplineSet
EndChar

StartChar: Lslash
Encoding: 321 321 250
Width: 540
GlyphClass: 2
Flags: HW
LayerCount: 2
Fore
SplineSet
118 0 m 2,0,1
 89 0 89 0 89 39 c 2,2,-1
 89 296 l 1,3,-1
 50 276 l 2,4,5
 42 273 42 273 29.5 273 c 0,6,7
 17 273 17 273 9.5 284 c 128,-1,8
 2 295 2 295 2 308.5 c 0,9,10
 2 322 2 322 27 334 c 2,11,-1
 89 365 l 1,12,-1
 89 607 l 2,13,14
 89 643 89 643 120 643 c 128,-1,15
 151 643 151 643 151 607 c 2,16,-1
 151 397 l 1,17,-1
 197 420 l 2,18,19
 203 423 203 423 216.5 423 c 0,20,21
 230 423 230 423 239 414 c 128,-1,22
 248 405 248 405 248 389 c 0,23,24
 248 373 248 373 220 361 c 1,25,-1
 151 326 l 1,26,-1
 151 62 l 1,27,-1
 479 62 l 2,28,29
 517 62 517 62 517 31 c 0,30,31
 517 0 517 0 479 0 c 2,32,-1
 118 0 l 2,0,1
EndSplineSet
EndChar

StartChar: lslash
Encoding: 322 322 251
Width: 335
GlyphClass: 2
Flags: HW
LayerCount: 2
Fore
SplineSet
251 0 m 2,0,-1
 244 0 l 2,1,2
 183 0 183 0 161 30 c 128,-1,3
 139 60 139 60 139 130 c 2,4,-1
 139 303 l 1,5,-1
 85 276 l 2,6,7
 78 273 78 273 65 273 c 0,8,9
 52 273 52 273 44.5 284 c 128,-1,10
 37 295 37 295 37 308.5 c 0,11,12
 37 322 37 322 62 334 c 2,13,-1
 139 373 l 1,14,-1
 139 603 l 2,15,16
 139 643 139 643 170 643 c 128,-1,17
 201 643 201 643 201 603 c 2,18,-1
 201 404 l 1,19,-1
 232 420 l 2,20,21
 238 423 238 423 251.5 423 c 0,22,23
 265 423 265 423 274 414 c 128,-1,24
 283 405 283 405 283 389 c 0,25,26
 283 373 283 373 255 361 c 1,27,-1
 201 334 l 1,28,-1
 201 114 l 2,29,30
 201 84 201 84 211.5 73 c 128,-1,31
 222 62 222 62 251 62 c 0,32,33
 291 62 291 62 291 31 c 0,34,35
 291 0 291 0 251 0 c 2,0,-1
EndSplineSet
EndChar

StartChar: Eng
Encoding: 330 330 258
Width: 653
GlyphClass: 2
Flags: HW
LayerCount: 2
Fore
SplineSet
506 107 m 1,0,-1
 506 602 l 2,1,2
 506 643 506 643 537 643 c 128,-1,3
 568 643 568 643 568 604 c 2,4,-1
 568 0 l 2,5,6
 568 -109.580645161 568 -109.580645161 507 -145 c 0,7,8
 476 -163 476 -163 440 -169 c 128,-1,9
 404 -175 404 -175 350 -175 c 0,10,11
 309 -175 309 -175 309 -144 c 128,-1,12
 309 -113 309 -113 350 -113 c 0,13,14
 441 -113 441 -113 473.5 -93 c 128,-1,15
 506 -73 506 -73 506 0 c 2,16,-1
 506 12 l 1,17,-1
 146 530 l 1,18,-1
 146 29 l 2,19,20
 146 -7 146 -7 115 -7 c 128,-1,21
 84 -7 84 -7 84 31 c 2,22,-1
 84 604 l 2,23,24
 84 643 84 643 113 643 c 0,25,26
 133 643 133 643 147 622 c 2,27,-1
 506 107 l 1,0,-1
EndSplineSet
EndChar

StartChar: eng
Encoding: 331 331 259
Width: 649
GlyphClass: 2
Flags: HW
LayerCount: 2
Fore
SplineSet
312 399 m 2,0,1
 136 399 136 399 136 230 c 2,2,-1
 136 31 l 2,3,4
 136 -7 136 -7 105 -7 c 128,-1,5
 74 -7 74 -7 74 31 c 2,6,-1
 74 429 l 2,7,8
 74 468 74 468 103 468 c 0,9,10
 136 468 136 468 136 427 c 2,11,-1
 136 405 l 1,12,13
 196 461 196 461 312 461 c 2,14,-1
 341 461 l 2,15,16
 465 461 465 461 521.5 425 c 128,-1,17
 578 389 578 389 578 284 c 2,18,-1
 578 0 l 2,19,20
 578 -109.580645161 578 -109.580645161 517 -145 c 0,21,22
 486 -163 486 -163 450 -169 c 128,-1,23
 414 -175 414 -175 360 -175 c 0,24,25
 319 -175 319 -175 319 -144 c 128,-1,26
 319 -113 319 -113 360 -113 c 0,27,28
 451 -113 451 -113 483.5 -93 c 128,-1,29
 516 -73 516 -73 516 0 c 2,30,-1
 516 282 l 2,31,32
 516 359 516 359 480.5 379 c 128,-1,33
 445 399 445 399 341 399 c 2,34,-1
 312 399 l 2,0,1
EndSplineSet
EndChar

StartChar: OE
Encoding: 338 338 264
Width: 743
GlyphClass: 2
Flags: HW
AnchorPoint: "Anchor-1" 421 0 basechar 0
AnchorPoint: "Anchor-0" 421 678 basechar 0
LayerCount: 2
Fore
SplineSet
389 623 m 1,0,1
 397 636 397 636 415 636 c 2,2,-1
 660 636 l 2,3,4
 700 636 700 636 700 608 c 0,5,6
 700 576 700 576 660 576 c 2,7,-1
 449 576 l 1,8,-1
 449 389 l 1,9,-1
 540 389 l 2,10,11
 582 389 582 389 582 356 c 0,12,13
 582 327 582 327 540 327 c 2,14,-1
 449 327 l 1,15,-1
 449 62 l 1,16,-1
 657 62 l 2,17,18
 697 62 697 62 697 29 c 0,19,20
 697 0 697 0 657 0 c 2,21,-1
 421 0 l 2,22,23
 402 0 402 0 393 13 c 1,24,25
 346 -9 346 -9 285 -9 c 0,26,27
 203 -9 203 -9 133.5 57 c 128,-1,28
 64 123 64 123 64 229 c 2,29,-1
 64 407 l 2,30,31
 64 513 64 513 132.5 579 c 128,-1,32
 201 645 201 645 281 645 c 0,33,34
 344 645 344 645 389 623 c 1,0,1
175 101.5 m 128,-1,36
 224 53 224 53 287 53 c 128,-1,37
 350 53 350 53 387 83 c 1,38,-1
 387 553 l 1,39,40
 352 583 352 583 287.5 583 c 128,-1,41
 223 583 223 583 174.5 534 c 128,-1,42
 126 485 126 485 126 405 c 2,43,-1
 126 231 l 2,44,35
 126 150 126 150 175 101.5 c 128,-1,36
EndSplineSet
EndChar

StartChar: oe
Encoding: 339 339 265
Width: 767
GlyphClass: 2
Flags: HW
AnchorPoint: "Anchor-1" 396 0 basechar 0
AnchorPoint: "Anchor-0" 396 510 basechar 0
LayerCount: 2
Fore
SplineSet
619 381 m 128,-1,1
 594 399 594 399 537 399 c 128,-1,2
 480 399 480 399 453.5 381 c 128,-1,3
 427 363 427 363 426 302 c 1,4,-1
 645 302 l 1,5,0
 644 363 644 363 619 381 c 128,-1,1
340.5 372.5 m 128,-1,7
 317 399 317 399 242 399 c 128,-1,8
 167 399 167 399 145.5 372.5 c 128,-1,9
 124 346 124 346 124 282 c 2,10,-1
 124 179 l 2,11,12
 124 115 124 115 145.5 88.5 c 128,-1,13
 167 62 167 62 242 62 c 128,-1,14
 317 62 317 62 340.5 88.5 c 128,-1,15
 364 115 364 115 364 179 c 2,16,-1
 364 282 l 2,17,6
 364 346 364 346 340.5 372.5 c 128,-1,7
396 64 m 1,18,19
 353 0 353 0 248.5 0 c 128,-1,20
 144 0 144 0 103 42.5 c 128,-1,21
 62 85 62 85 62 177 c 2,22,-1
 62 284 l 2,23,24
 62 375 62 375 103 418 c 128,-1,25
 144 461 144 461 245.5 461 c 128,-1,26
 347 461 347 461 394 400 c 1,27,28
 436 461 436 461 538 461 c 0,29,30
 618 461 618 461 662.5 424 c 128,-1,31
 707 387 707 387 707 284 c 2,32,-1
 707 240 l 1,33,-1
 426 240 l 1,34,-1
 426 179 l 2,35,36
 426 92.3333333333 426 92.3333333333 488.5 71.5 c 0,37,38
 517 62 517 62 557 62 c 0,39,40
 645 62 645 62 645 119 c 0,41,42
 645 157 645 157 676 157 c 128,-1,43
 707 157 707 157 707 118 c 128,-1,44
 707 79 707 79 694 54.5 c 128,-1,45
 681 30 681 30 657 19 c 0,46,47
 615.545454545 3.37507799486e-14 615.545454545 3.37507799486e-14 557 0 c 0,48,49
 439 0 439 0 396 64 c 1,18,19
EndSplineSet
EndChar

StartChar: Scedilla
Encoding: 350 350 276
Width: 628
GlyphClass: 2
Flags: HW
LayerCount: 2
Fore
SplineSet
147 549 m 128,-1,1
 123 516 123 516 123 478.5 c 128,-1,2
 123 441 123 441 139.5 414.5 c 128,-1,3
 156 388 156 388 179 382 c 1,4,-1
 435 332 l 2,5,6
 506 318 506 318 536.5 270 c 128,-1,7
 567 222 567 222 567 158 c 0,8,9
 567 94.2307692308 567 94.2307692308 530.5 46.5 c 0,10,11
 488.823529412 -8 488.823529412 -8 388 -8 c 2,12,-1
 317 -8 l 1,13,14
 323 -17 323 -17 340 -29 c 0,15,16
 381 -57.9411764706 381 -57.9411764706 381 -95.4705882353 c 128,-1,17
 381 -133 381 -133 351 -156.5 c 128,-1,18
 321 -180 321 -180 287 -180 c 128,-1,19
 253 -180 253 -180 224.5 -167 c 128,-1,20
 196 -154 196 -154 196 -125 c 0,21,22
 196 -114 196 -114 202 -108 c 128,-1,23
 208 -102 208 -102 217 -102 c 128,-1,24
 226 -102 226 -102 248 -111 c 128,-1,25
 270 -120 270 -120 287.5 -120 c 0,26,27
 319 -120 319 -120 319 -99 c 0,28,29
 319 -91 319 -91 304.5 -79.5 c 128,-1,30
 290 -68 290 -68 272.5 -50 c 128,-1,31
 255 -32 255 -32 251 -7 c 1,32,33
 153 -2 153 -2 107 37.5 c 128,-1,34
 61 77 61 77 61 177 c 0,35,36
 61 215 61 215 94 215 c 0,37,38
 108 215 108 215 116 204.5 c 128,-1,39
 124 194 124 194 124 177 c 0,40,41
 124 97 124 97 158.5 75.5 c 128,-1,42
 193 54 193 54 298 54 c 2,43,-1
 408 54 l 2,44,45
 444 54 444 54 467.5 73.5 c 0,46,47
 505 104.617021277 505 104.617021277 505 155.808510638 c 128,-1,48
 505 207 505 207 486.5 235.5 c 128,-1,49
 468 264 468 264 449 268 c 2,50,-1
 195 320 l 2,51,52
 123 335 123 335 92 373 c 128,-1,53
 61 411 61 411 61 479.5 c 128,-1,54
 61 548 61 548 105.5 596 c 128,-1,55
 150 644 150 644 253 644 c 2,56,-1
 329 644 l 2,57,58
 391 644 391 644 430.5 637.5 c 128,-1,59
 470 631 470 631 503.5 612 c 0,60,61
 567 575.985074627 567 575.985074627 567 461 c 0,62,63
 567 423 567 423 535 423 c 0,64,65
 521 423 521 423 512.5 433.5 c 128,-1,66
 504 444 504 444 504 473.5 c 128,-1,67
 504 503 504 503 496.5 527 c 128,-1,68
 489 551 489 551 465.5 563.5 c 128,-1,69
 442 576 442 576 413.5 579 c 128,-1,70
 385 582 385 582 329 582 c 2,71,-1
 227 582 l 2,72,0
 171 582 171 582 147 549 c 128,-1,1
EndSplineSet
EndChar

StartChar: scedilla
Encoding: 351 351 277
Width: 606
GlyphClass: 2
Flags: HW
LayerCount: 2
Fore
SplineSet
165 0 m 2,0,1
 102 0 102 0 81 32 c 128,-1,2
 60 64 60 64 60 110.5 c 128,-1,3
 60 157 60 157 91 157 c 128,-1,4
 122 157 122 157 122 122 c 128,-1,5
 122 87 122 87 132.5 74.5 c 128,-1,6
 143 62 143 62 172 62 c 2,7,-1
 430 62 l 2,8,9
 484 62 484 62 484 129 c 0,10,11
 484 163 484 163 469 184 c 128,-1,12
 454 205 454 205 430 205 c 2,13,-1
 194 205 l 2,14,15
 124 205 124 205 92 241 c 128,-1,16
 60 277 60 277 60 337.5 c 128,-1,17
 60 398 60 398 94 429.5 c 128,-1,18
 128 461 128 461 214 461 c 2,19,-1
 439 461 l 2,20,21
 505.888888889 461 505.888888889 461 527 423 c 0,22,23
 544 392.4 544 392.4 544 348.2 c 128,-1,24
 544 304 544 304 513 304 c 128,-1,25
 482 304 482 304 482 339.5 c 128,-1,26
 482 375 482 375 471.5 387 c 128,-1,27
 461 399 461 399 432 399 c 2,28,-1
 176 399 l 2,29,30
 122 399 122 399 122 337 c 0,31,32
 122 303 122 303 137 285 c 128,-1,33
 152 267 152 267 176 267 c 2,34,-1
 413 267 l 2,35,36
 485 267 485 267 515.5 227.5 c 128,-1,37
 546 188 546 188 546 127 c 128,-1,38
 546 66 546 66 512 33 c 128,-1,39
 478 0 478 0 393 0 c 2,40,-1
 322 0 l 1,41,42
 326.962085308 -18.1943127962 326.962085308 -18.1943127962 359.5 -38 c 0,43,44
 371 -45 371 -45 380.5 -59.5 c 128,-1,45
 390 -74 390 -74 390 -94 c 0,46,47
 390 -133 390 -133 360 -156.5 c 128,-1,48
 330 -180 330 -180 296 -180 c 128,-1,49
 262 -180 262 -180 233.5 -167 c 128,-1,50
 205 -154 205 -154 205 -125 c 0,51,52
 205 -114 205 -114 211 -108 c 128,-1,53
 217 -102 217 -102 226 -102 c 128,-1,54
 235 -102 235 -102 257 -111 c 128,-1,55
 279 -120 279 -120 296.5 -120 c 0,56,57
 328 -120 328 -120 328 -99 c 0,58,59
 328 -90 328 -90 312 -78 c 0,60,61
 263.636363636 -41.7272727273 263.636363636 -41.7272727273 259 0 c 1,62,-1
 165 0 l 2,0,1
EndSplineSet
EndChar

StartChar: Tcommaaccent
Encoding: 354 354 280
Width: 500
GlyphClass: 2
Flags: HW
LayerCount: 2
Fore
SplineSet
216 10 m 2,0,-1
 216 574 l 1,1,-1
 64 574 l 2,2,3
 26 574 26 574 26 605 c 128,-1,4
 26 636 26 636 64 636 c 2,5,-1
 435 636 l 2,6,7
 473 636 473 636 473 605 c 128,-1,8
 473 574 473 574 435 574 c 2,9,-1
 285 574 l 1,10,-1
 285 6 l 2,11,12
 285 -8 285 -8 300.5 -20.5 c 128,-1,13
 316 -33 316 -33 331.5 -50.5 c 128,-1,14
 347 -68 347 -68 347 -100.5 c 128,-1,15
 347 -133 347 -133 317 -156.5 c 128,-1,16
 287 -180 287 -180 253 -180 c 128,-1,17
 219 -180 219 -180 190.5 -167 c 128,-1,18
 162 -154 162 -154 162 -125 c 0,19,20
 162 -114 162 -114 168 -108 c 128,-1,21
 174 -102 174 -102 183 -102 c 128,-1,22
 192 -102 192 -102 214 -111 c 128,-1,23
 236 -120 236 -120 253.5 -120 c 0,24,25
 285 -120 285 -120 285 -99 c 0,26,27
 285 -91 285 -91 274 -81.5 c 128,-1,28
 263 -72 263 -72 250.5 -62.5 c 128,-1,29
 238 -53 238 -53 227 -33.5 c 128,-1,30
 216 -14 216 -14 216 10 c 2,0,-1
EndSplineSet
EndChar

StartChar: tcommaaccent
Encoding: 355 355 281
Width: 357
GlyphClass: 2
Flags: HW
LayerCount: 2
Fore
SplineSet
139 179 m 2,0,1
 139 103 139 103 172 82.5 c 128,-1,2
 205 62 205 62 295 62 c 0,3,4
 335 62 335 62 335 33 c 0,5,6
 335 0 335 0 295 0 c 0,7,8
 268 0 268 0 255 1 c 1,9,10
 258 -13 258 -13 275.5 -25 c 128,-1,11
 293 -37 293 -37 308 -53 c 128,-1,12
 323 -69 323 -69 323 -101 c 128,-1,13
 323 -133 323 -133 293 -156.5 c 128,-1,14
 263 -180 263 -180 229 -180 c 128,-1,15
 195 -180 195 -180 166.5 -167 c 128,-1,16
 138 -154 138 -154 138 -125 c 0,17,18
 138 -114 138 -114 144 -108 c 128,-1,19
 150 -102 150 -102 159 -102 c 128,-1,20
 168 -102 168 -102 190 -111 c 128,-1,21
 212 -120 212 -120 229.5 -120 c 0,22,23
 261 -120 261 -120 261 -99 c 0,24,25
 261 -91 261 -91 250 -81.5 c 128,-1,26
 239 -72 239 -72 226.5 -62.5 c 128,-1,27
 214 -53 214 -53 203 -33.5 c 128,-1,28
 192 -14 192 -14 192 10 c 1,29,30
 135 23 135 23 106 62 c 128,-1,31
 77 101 77 101 77 177 c 2,32,-1
 77 402 l 1,33,34
 46 404 46 404 46 433 c 0,35,36
 46 457 46 457 77 461 c 1,37,-1
 77 560 l 2,38,39
 77 601 77 601 106 601 c 0,40,41
 139 601 139 601 139 560 c 2,42,-1
 139 461 l 1,43,-1
 272 461 l 2,44,45
 313 461 313 461 313 428 c 0,46,47
 313 399 313 399 272 399 c 2,48,-1
 139 399 l 1,49,-1
 139 179 l 2,0,1
EndSplineSet
EndChar

StartChar: Tbar
Encoding: 358 358 284
Width: 500
GlyphClass: 2
Flags: HW
LayerCount: 2
Fore
SplineSet
435 636 m 2,0,1
 473 636 473 636 473 605 c 0,2,3
 473 574 473 574 435 574 c 2,4,-1
 285 574 l 1,5,-1
 285 371 l 1,6,-1
 369 371 l 2,7,8
 408 371 408 371 408 338 c 0,9,10
 408 324 408 324 396.5 316 c 128,-1,11
 385 308 385 308 369 308 c 2,12,-1
 285 308 l 1,13,-1
 285 29 l 2,14,15
 285 9 285 9 274 1 c 128,-1,16
 263 -7 263 -7 249 -7 c 0,17,18
 216 -7 216 -7 216 29 c 2,19,-1
 216 308 l 1,20,-1
 124 308 l 2,21,22
 88 308 88 308 88 340 c 0,23,24
 88 352 88 352 96.5 361.5 c 128,-1,25
 105 371 105 371 124 371 c 2,26,-1
 216 371 l 1,27,-1
 216 574 l 1,28,-1
 64 574 l 2,29,30
 26 574 26 574 26 605 c 128,-1,31
 26 636 26 636 64 636 c 2,32,-1
 435 636 l 2,0,1
EndSplineSet
EndChar

StartChar: tbar
Encoding: 359 359 285
Width: 368
GlyphClass: 2
Flags: HW
LayerCount: 2
Fore
SplineSet
141 179 m 2,0,1
 141 103 141 103 174 82.5 c 128,-1,2
 207 62 207 62 297 62 c 0,3,4
 337 62 337 62 337 33 c 0,5,6
 337 0 337 0 297 0 c 0,7,8
 187 0 187 0 133 36.5 c 128,-1,9
 79 73 79 73 79 177 c 2,10,-1
 79 265 l 1,11,12
 43 265 43 265 43 297 c 0,13,14
 43 309 43 309 51.5 318.5 c 128,-1,15
 60 328 60 328 79 328 c 1,16,-1
 79 402 l 1,17,18
 48 404 48 404 48 433 c 0,19,20
 48 457 48 457 79 461 c 1,21,-1
 79 560 l 2,22,23
 79 601 79 601 108 601 c 0,24,25
 141 601 141 601 141 560 c 2,26,-1
 141 461 l 1,27,-1
 274 461 l 2,28,29
 315 461 315 461 315 428 c 0,30,31
 315 399 315 399 274 399 c 2,32,-1
 141 399 l 1,33,-1
 141 328 l 1,34,-1
 310 328 l 2,35,36
 349 328 349 328 349 295 c 0,37,38
 349 281 349 281 337.5 273 c 128,-1,39
 326 265 326 265 310 265 c 2,40,-1
 141 265 l 1,41,-1
 141 179 l 2,0,1
EndSplineSet
EndChar

StartChar: Uogonek
Encoding: 370 370 296
Width: 641
GlyphClass: 2
Flags: HW
AnchorPoint: "Anchor-1" 320 0 basechar 0
AnchorPoint: "Anchor-0" 320 678 basechar 0
LayerCount: 2
Fore
SplineSet
500 607 m 2,0,1
 500 643 500 643 531 643 c 0,2,3
 562 643 562 643 562 606 c 2,4,-1
 562 229 l 2,5,6
 562 128 562 128 505.5 66 c 128,-1,7
 449 4 449 4 355 -7 c 1,8,9
 328 -26 328 -26 312.5 -55.5 c 128,-1,10
 297 -85 297 -85 297 -96 c 0,11,12
 297 -145 297 -145 334 -145 c 0,13,14
 350 -145 350 -145 372 -136.5 c 128,-1,15
 394 -128 394 -128 400 -128 c 0,16,17
 420 -128 420 -128 420 -153.5 c 0,18,19
 420 -179 420 -179 391.5 -192 c 128,-1,20
 363 -205 363 -205 328 -205 c 0,21,22
 293 -205 293 -205 264 -175 c 128,-1,23
 235 -145 235 -145 235 -96 c 0,24,25
 235 -63 235 -63 277 -6 c 1,26,27
 186 6 186 6 132 68 c 128,-1,28
 78 130 78 130 78 229 c 2,29,-1
 78 606 l 2,30,31
 78 643 78 643 109 643 c 128,-1,32
 140 643 140 643 140 607 c 2,33,-1
 140 231 l 2,34,35
 140 146 140 146 186 99.5 c 128,-1,36
 232 53 232 53 320 53 c 128,-1,37
 408 53 408 53 454 99.5 c 128,-1,38
 500 146 500 146 500 231 c 2,39,-1
 500 607 l 2,0,1
EndSplineSet
EndChar

StartChar: uogonek
Encoding: 371 371 297
Width: 647
GlyphClass: 2
Flags: HW
AnchorPoint: "Anchor-1" 321 0 basechar 0
AnchorPoint: "Anchor-0" 321 510 basechar 0
LayerCount: 2
Fore
SplineSet
335 62 m 2,0,1
 511 62 511 62 511 231 c 2,2,-1
 511 430 l 2,3,4
 511 468 511 468 542 468 c 128,-1,5
 573 468 573 468 573 430 c 2,6,-1
 573 32 l 2,7,8
 573 1 573 1 555 -5 c 1,9,10
 536 -19 536 -19 521 -40 c 0,11,12
 494 -77.8 494 -77.8 494 -96 c 0,13,14
 494 -145 494 -145 531 -145 c 0,15,16
 546 -145 546 -145 568 -136.5 c 128,-1,17
 590 -128 590 -128 597 -128 c 0,18,19
 617 -128 617 -128 617 -153.5 c 128,-1,20
 617 -179 617 -179 588.5 -192 c 128,-1,21
 560 -205 560 -205 525 -205 c 128,-1,22
 490 -205 490 -205 461 -175 c 128,-1,23
 432 -145 432 -145 432 -96 c 0,24,25
 432 -69 432 -69 457 -30.5 c 128,-1,26
 482 8 482 8 511 38 c 1,27,-1
 511 56 l 1,28,29
 451 0 451 0 335 0 c 2,30,-1
 306 0 l 2,31,32
 182 0 182 0 125.5 36 c 128,-1,33
 69 72 69 72 69 177 c 2,34,-1
 69 430 l 2,35,36
 69 468 69 468 100 468 c 128,-1,37
 131 468 131 468 131 430 c 2,38,-1
 131 179 l 2,39,40
 131 102 131 102 166.5 82 c 128,-1,41
 202 62 202 62 306 62 c 2,42,-1
 335 62 l 2,0,1
EndSplineSet
EndChar

StartChar: florin
Encoding: 402 402 309
Width: 354
GlyphClass: 2
Flags: HW
LayerCount: 2
Fore
SplineSet
151 48 m 2,0,1
 151 -45 151 -45 114 -75 c 128,-1,2
 77 -105 77 -105 -8 -105 c 0,3,4
 -49 -105 -49 -105 -49 -74 c 128,-1,5
 -49 -43 -49 -43 -8 -43 c 0,6,7
 54 -43 54 -43 67 -26 c 128,-1,8
 80 -9 80 -9 80 76 c 2,9,-1
 80 402 l 1,10,11
 49 406 49 406 49 431.5 c 128,-1,12
 49 457 49 457 80 461 c 1,13,14
 83.945474373 569.500545256 83.945474373 569.500545256 151 605 c 0,15,16
 185 623 185 623 223.5 629.5 c 128,-1,17
 262 636 262 636 318 636 c 0,18,19
 359 636 359 636 359 603 c 0,20,21
 359 574 359 574 318 574 c 0,22,23
 226 574 226 574 189.5 554 c 128,-1,24
 153 534 153 534 151 461 c 1,25,-1
 295 461 l 2,26,27
 336 461 336 461 336 428 c 0,28,29
 336 399 336 399 295 399 c 2,30,-1
 151 399 l 1,31,-1
 151 48 l 2,0,1
EndSplineSet
EndChar

StartChar: Ohorn
Encoding: 416 416 310
Width: 639
GlyphClass: 2
Flags: HW
AnchorPoint: "Anchor-1" 307 0 basechar 0
AnchorPoint: "Anchor-0" 307 678 basechar 0
LayerCount: 2
Fore
SplineSet
307 583 m 128,-1,1
 220 583 220 583 173.5 536 c 128,-1,2
 127 489 127 489 127 405 c 2,3,-1
 127 231 l 2,4,5
 127 146 127 146 173 99.5 c 128,-1,6
 219 53 219 53 307 53 c 128,-1,7
 395 53 395 53 441 99.5 c 128,-1,8
 487 146 487 146 487 231 c 2,9,-1
 487 405 l 2,10,11
 487 489 487 489 440.5 536 c 128,-1,0
 394 583 394 583 307 583 c 128,-1,1
481.5 54.5 m 128,-1,13
 414 -9 414 -9 306.5 -9 c 128,-1,14
 199 -9 199 -9 132 54.5 c 128,-1,15
 65 118 65 118 65 229 c 2,16,-1
 65 407 l 2,17,18
 65 518 65 518 132 581.5 c 128,-1,19
 199 645 199 645 307 645 c 0,20,21
 437 645 437 645 503 557 c 1,22,23
 548 558 548 558 566 568 c 128,-1,24
 584 578 584 578 584 596.5 c 128,-1,25
 584 615 584 615 565 629 c 128,-1,26
 546 643 546 643 546 659.5 c 128,-1,27
 546 676 546 676 556.5 683.5 c 128,-1,28
 567 691 567 691 578.5 691 c 128,-1,29
 590 691 590 691 602 679 c 1,30,31
 648 640 648 640 648 596 c 0,32,33
 648 511 648 511 534 498 c 1,34,35
 549 453 549 453 549 407 c 2,36,-1
 549 229 l 2,37,12
 549 118 549 118 481.5 54.5 c 128,-1,13
EndSplineSet
EndChar

StartChar: ohorn
Encoding: 417 417 311
Width: 660
GlyphClass: 2
Flags: HW
AnchorPoint: "Anchor-1" 314 0 basechar 0
AnchorPoint: "Anchor-0" 314 510 basechar 0
LayerCount: 2
Fore
SplineSet
300 62 m 2,0,-1
 329 62 l 2,1,2
 433 62 433 62 468.5 82 c 128,-1,3
 504 102 504 102 504 179 c 2,4,-1
 504 282 l 2,5,6
 504 359 504 359 468.5 379 c 128,-1,7
 433 399 433 399 329 399 c 2,8,-1
 300 399 l 2,9,10
 194 399 194 399 159 378.5 c 128,-1,11
 124 358 124 358 124 282 c 2,12,-1
 124 179 l 2,13,14
 124 103 124 103 159 82.5 c 128,-1,15
 194 62 194 62 300 62 c 2,0,-1
329 0 m 2,16,-1
 300 0 l 2,17,18
 175 0 175 0 118.5 36 c 128,-1,19
 62 72 62 72 62 177 c 2,20,-1
 62 284 l 2,21,22
 62 389 62 389 118.5 425 c 128,-1,23
 175 461 175 461 300 461 c 2,24,-1
 329 461 l 2,25,26
 424 461 424 461 477.5 442 c 128,-1,27
 531 423 531 423 552 370 c 1,28,29
 581 374 581 374 593 383.5 c 128,-1,30
 605 393 605 393 605 409.5 c 0,31,32
 605 426 605 426 586 440 c 0,33,34
 567 454 567 454 567 470.5 c 0,35,36
 567 487 567 487 577.5 494.5 c 128,-1,37
 588 502 588 502 599.5 502 c 0,38,39
 611 502 611 502 623 490 c 1,40,41
 669 451 669 451 669 407 c 0,42,43
 669 327 669 327 565 311 c 1,44,45
 566 303 566 303 566 284 c 2,46,-1
 566 177 l 2,47,48
 566 72 566 72 509.5 36 c 128,-1,49
 453 0 453 0 329 0 c 2,16,-1
EndSplineSet
EndChar

StartChar: Uhorn
Encoding: 431 431 312
Width: 680
GlyphClass: 2
Flags: HW
AnchorPoint: "Anchor-1" 320 0 basechar 0
AnchorPoint: "Anchor-0" 320 678 basechar 0
LayerCount: 2
Fore
SplineSet
500 607 m 2,0,1
 500 643 500 643 531 643 c 0,2,3
 562 643 562 643 562 606 c 2,4,-1
 562 553 l 1,5,6
 599 555 599 555 614 565 c 128,-1,7
 629 575 629 575 629 592.5 c 0,8,9
 629 610 629 610 610 624 c 0,10,11
 591 638 591 638 591 654.5 c 0,12,13
 591 671 591 671 601.5 678.5 c 128,-1,14
 612 686 612 686 623.5 686 c 0,15,16
 635 686 635 686 647 674 c 1,17,18
 693 635 693 635 693 591 c 0,19,20
 693 500 693 500 562 492 c 1,21,-1
 562 229 l 2,22,23
 562 118 562 118 494.5 54.5 c 128,-1,24
 427 -9 427 -9 319.5 -9 c 0,25,26
 212 -9 212 -9 145 54.5 c 128,-1,27
 78 118 78 118 78 229 c 2,28,-1
 78 606 l 2,29,30
 78 643 78 643 109 643 c 128,-1,31
 140 643 140 643 140 607 c 2,32,-1
 140 231 l 2,33,34
 140 146 140 146 186 99.5 c 128,-1,35
 232 53 232 53 320 53 c 128,-1,36
 408 53 408 53 454 99.5 c 128,-1,37
 500 146 500 146 500 231 c 2,38,-1
 500 607 l 2,0,1
EndSplineSet
EndChar

StartChar: uhorn
Encoding: 432 432 313
Width: 681
GlyphClass: 2
Flags: HW
AnchorPoint: "Anchor-1" 321 0 basechar 0
AnchorPoint: "Anchor-0" 321 510 basechar 0
LayerCount: 2
Fore
SplineSet
335 62 m 2,0,1
 511 62 511 62 511 231 c 2,2,-1
 511 430 l 2,3,4
 511 468 511 468 542 468 c 128,-1,5
 573 468 573 468 573 430 c 2,6,-1
 573 376 l 1,7,8
 607 379 607 379 620 389 c 128,-1,9
 633 399 633 399 633 416 c 0,10,11
 633 433 633 433 614 447 c 0,12,13
 595 461 595 461 595 477.5 c 0,14,15
 595 494 595 494 605.5 501.5 c 128,-1,16
 616 509 616 509 627.5 509 c 0,17,18
 639 509 639 509 651 497 c 1,19,20
 697 458 697 458 697 414 c 0,21,22
 697 324 697 324 573 315 c 1,23,-1
 573 32 l 2,24,25
 573 -7 573 -7 544 -7 c 0,26,27
 511 -7 511 -7 511 34 c 2,28,-1
 511 56 l 1,29,30
 451 0 451 0 335 0 c 2,31,-1
 306 0 l 2,32,33
 182 0 182 0 125.5 36 c 128,-1,34
 69 72 69 72 69 177 c 2,35,-1
 69 430 l 2,36,37
 69 468 69 468 100 468 c 0,38,39
 131 468 131 468 131 430 c 2,40,-1
 131 179 l 2,41,42
 131 102 131 102 166.5 82 c 128,-1,43
 202 62 202 62 306 62 c 2,44,-1
 335 62 l 2,0,1
EndSplineSet
EndChar

StartChar: uni01EA
Encoding: 490 490 314
Width: 614
GlyphClass: 2
Flags: HW
AnchorPoint: "Anchor-1" 307 0 basechar 0
AnchorPoint: "Anchor-0" 307 678 basechar 0
LayerCount: 2
Fore
SplineSet
307 583 m 128,-1,1
 220 583 220 583 173.5 536 c 128,-1,2
 127 489 127 489 127 405 c 2,3,-1
 127 231 l 2,4,5
 127 146 127 146 173 99.5 c 128,-1,6
 219 53 219 53 307 53 c 128,-1,7
 395 53 395 53 441 99.5 c 128,-1,8
 487 146 487 146 487 231 c 2,9,-1
 487 405 l 2,10,11
 487 489 487 489 440.5 536 c 128,-1,0
 394 583 394 583 307 583 c 128,-1,1
342 -7 m 1,12,13
 315 -26 315 -26 299.5 -55.5 c 128,-1,14
 284 -85 284 -85 284 -96 c 0,15,16
 284 -145 284 -145 321 -145 c 0,17,18
 336 -145 336 -145 358 -136.5 c 128,-1,19
 380 -128 380 -128 387 -128 c 0,20,21
 407 -128 407 -128 407 -153.5 c 0,22,23
 407 -179 407 -179 378.5 -192 c 128,-1,24
 350 -205 350 -205 315 -205 c 0,25,26
 280 -205 280 -205 251 -175 c 128,-1,27
 222 -145 222 -145 222 -96 c 0,28,29
 222 -62 222 -62 263 -6 c 1,30,31
 173 6 173 6 119 68 c 128,-1,32
 65 130 65 130 65 229 c 2,33,-1
 65 407 l 2,34,35
 65 518 65 518 132 581.5 c 128,-1,36
 199 645 199 645 306.5 645 c 0,37,38
 414 645 414 645 481.5 581.5 c 128,-1,39
 549 518 549 518 549 407 c 2,40,-1
 549 229 l 2,41,42
 549 128 549 128 492.5 65.5 c 128,-1,43
 436 3 436 3 342 -7 c 1,12,13
EndSplineSet
EndChar

StartChar: uni01EB
Encoding: 491 491 315
Width: 628
GlyphClass: 2
Flags: HW
AnchorPoint: "Anchor-1" 314 0 basechar 0
AnchorPoint: "Anchor-0" 314 510 basechar 0
LayerCount: 2
Fore
SplineSet
300 62 m 2,0,-1
 329 62 l 2,1,2
 433 62 433 62 468.5 82 c 128,-1,3
 504 102 504 102 504 179 c 2,4,-1
 504 282 l 2,5,6
 504 359 504 359 468.5 379 c 128,-1,7
 433 399 433 399 329 399 c 2,8,-1
 300 399 l 2,9,10
 194 399 194 399 159 378.5 c 128,-1,11
 124 358 124 358 124 282 c 2,12,-1
 124 179 l 2,13,14
 124 103 124 103 159 82.5 c 128,-1,15
 194 62 194 62 300 62 c 2,0,-1
359 0 m 1,16,17
 328 -19 328 -19 310 -50.5 c 128,-1,18
 292 -82 292 -82 292 -95 c 0,19,20
 292 -144 292 -144 328 -144 c 0,21,22
 344 -144 344 -144 366 -135.5 c 128,-1,23
 388 -127 388 -127 394 -127 c 0,24,25
 414 -127 414 -127 414 -152.5 c 0,26,27
 414 -178 414 -178 385.5 -191 c 128,-1,28
 357 -204 357 -204 322 -204 c 0,29,30
 287 -204 287 -204 258.5 -174 c 128,-1,31
 230 -144 230 -144 230 -101 c 0,32,33
 230 -58 230 -58 275 0 c 1,34,35
 164 2 164 2 113 39.5 c 128,-1,36
 62 77 62 77 62 177 c 2,37,-1
 62 284 l 2,38,39
 62 389 62 389 118.5 425 c 128,-1,40
 175 461 175 461 300 461 c 2,41,-1
 329 461 l 2,42,43
 453 461 453 461 509.5 425 c 128,-1,44
 566 389 566 389 566 284 c 2,45,-1
 566 177 l 2,46,47
 566 78 566 78 516 40.5 c 128,-1,48
 466 3 466 3 359 0 c 1,16,17
EndSplineSet
EndChar

StartChar: uni0237
Encoding: 567 567 320
Width: 212
GlyphClass: 2
Flags: HW
AnchorPoint: "Anchor-1" 105 -175 basechar 0
AnchorPoint: "Anchor-0" 107 510 basechar 0
LayerCount: 2
Fore
SplineSet
137 0 m 2,0,1
 137 -109.580645161 137 -109.580645161 76 -145 c 0,2,3
 45 -163 45 -163 9 -169 c 128,-1,4
 -27 -175 -27 -175 -81 -175 c 0,5,6
 -122 -175 -122 -175 -122 -144 c 128,-1,7
 -122 -113 -122 -113 -81 -113 c 0,8,9
 10 -113 10 -113 42.5 -93 c 128,-1,10
 75 -73 75 -73 75 0 c 2,11,-1
 75 427 l 2,12,13
 75 468 75 468 106 468 c 128,-1,14
 137 468 137 468 137 427 c 2,15,-1
 137 0 l 2,0,1
EndSplineSet
EndChar

StartChar: circumflex
Encoding: 710 710 321
Width: 402
GlyphClass: 2
Flags: HW
LayerCount: 2
Fore
SplineSet
62 554 m 2,0,-1
 169 678 l 1,1,-1
 232 678 l 1,2,-1
 341 554 l 2,3,4
 348 547 348 547 348 533 c 0,5,6
 348 505 348 505 320 505 c 0,7,8
 306.375 505 306.375 505 295 518 c 2,9,-1
 288 527 l 1,10,-1
 201 609 l 1,11,-1
 115 527 l 1,12,-1
 108 518 l 2,13,14
 96.625 505 96.625 505 83 505 c 0,15,16
 55 505 55 505 55 533 c 0,17,18
 55 547 55 547 62 554 c 2,0,-1
EndSplineSet
EndChar

StartChar: caron
Encoding: 711 711 322
Width: 373
GlyphClass: 2
Flags: HW
LayerCount: 2
Fore
SplineSet
219 517 m 1,0,-1
 159 517 l 1,1,-1
 53 628 l 2,2,3
 45 636 45 636 45 646 c 128,-1,4
 45 656 45 656 52 663.5 c 128,-1,5
 59 671 59 671 72.5 671 c 0,6,7
 86 671 86 671 108 653 c 2,8,-1
 189 586 l 1,9,-1
 270 653 l 2,10,11
 292 671 292 671 305.5 671 c 0,12,13
 319 671 319 671 326 663.5 c 128,-1,14
 333 656 333 656 333 646 c 128,-1,15
 333 636 333 636 325 628 c 2,16,-1
 219 517 l 1,0,-1
EndSplineSet
EndChar

StartChar: breve
Encoding: 728 728 323
Width: 428
GlyphClass: 2
Flags: HW
LayerCount: 2
Fore
SplineSet
89 724 m 1,0,-1
 152 724 l 1,1,2
 152 701 152 701 166 684 c 128,-1,3
 180 667 180 667 214 667 c 128,-1,4
 248 667 248 667 262 684 c 128,-1,5
 276 701 276 701 276 724 c 1,6,-1
 339 724 l 1,7,8
 339 690 339 690 325.5 665 c 128,-1,9
 312 640 312 640 291.5 627.5 c 0,10,11
 251.32 603 251.32 603 210.16 603 c 128,-1,12
 169 603 169 603 129 631.5 c 128,-1,13
 89 660 89 660 89 724 c 1,0,-1
EndSplineSet
EndChar

StartChar: dotaccent
Encoding: 729 729 324
Width: 221
GlyphClass: 2
Flags: HW
LayerCount: 2
Fore
SplineSet
167 630 m 128,-1,1
 167 611 167 611 148.5 597.5 c 128,-1,2
 130 584 130 584 110.5 584 c 0,3,4
 91 584 91 584 73 597 c 128,-1,5
 55 610 55 610 55 629.5 c 0,6,7
 55 649 55 649 73.5 662.5 c 128,-1,8
 92 676 92 676 110.5 676 c 0,9,10
 129 676 129 676 148 662.5 c 128,-1,0
 167 649 167 649 167 630 c 128,-1,1
EndSplineSet
EndChar

StartChar: ring
Encoding: 730 730 325
Width: 282
GlyphClass: 2
Flags: HW
LayerCount: 2
Fore
SplineSet
103 594 m 128,-1,1
 103 578 103 578 114 567 c 128,-1,2
 125 556 125 556 141 556 c 128,-1,3
 157 556 157 556 168 567 c 128,-1,4
 179 578 179 578 179 594 c 128,-1,5
 179 610 179 610 168 621 c 128,-1,6
 157 632 157 632 141 632 c 128,-1,7
 125 632 125 632 114 621 c 128,-1,0
 103 610 103 610 103 594 c 128,-1,1
59 594 m 128,-1,9
 59 628 59 628 83 652 c 128,-1,10
 107 676 107 676 141 676 c 128,-1,11
 175 676 175 676 199 652 c 128,-1,12
 223 628 223 628 223 594 c 128,-1,13
 223 560 223 560 199 536 c 128,-1,14
 175 512 175 512 141 512 c 128,-1,15
 107 512 107 512 83 536 c 128,-1,8
 59 560 59 560 59 594 c 128,-1,9
EndSplineSet
EndChar

StartChar: ogonek
Encoding: 731 731 326
Width: 234
GlyphClass: 2
Flags: HW
LayerCount: 2
Fore
SplineSet
166 0 m 1,0,1
 134 -19 134 -19 115.5 -51 c 128,-1,2
 97 -83 97 -83 97 -96 c 0,3,4
 97 -145 97 -145 134 -145 c 0,5,6
 150 -145 150 -145 172 -136.5 c 128,-1,7
 194 -128 194 -128 200 -128 c 0,8,9
 220 -128 220 -128 220 -153.5 c 0,10,11
 220 -179 220 -179 191.5 -192 c 128,-1,12
 163 -205 163 -205 128 -205 c 0,13,14
 93 -205 93 -205 64 -175 c 128,-1,15
 35 -145 35 -145 35 -96 c 0,16,17
 35 -67 35 -67 63 -25.5 c 128,-1,18
 91 16 91 16 120 44 c 1,19,-1
 166 0 l 1,0,1
EndSplineSet
EndChar

StartChar: tilde
Encoding: 732 732 327
Width: 401
GlyphClass: 2
Flags: HW
LayerCount: 2
Fore
SplineSet
247 241 m 2,0,1
 252 239 252 239 255 239 c 128,-1,2
 258 239 258 239 260 241 c 2,3,-1
 291 269 l 2,4,5
 301 279 301 279 314 279 c 0,6,7
 327 279 327 279 336.5 271 c 128,-1,8
 346 263 346 263 346 248 c 0,9,10
 346 233 346 233 330 220 c 2,11,-1
 285 182 l 1,12,13
 271 172 271 172 261.5 172 c 0,14,15
 252 172 252 172 248 174 c 2,16,-1
 154 210 l 2,17,18
 149 212 149 212 146 212 c 128,-1,19
 143 212 143 212 141 210 c 2,20,-1
 110 182 l 2,21,22
 100 172 100 172 87 172 c 0,23,24
 74 172 74 172 64.5 180 c 128,-1,25
 55 188 55 188 55 203 c 0,26,27
 55 218 55 218 71 231 c 2,28,-1
 116 269 l 1,29,30
 130 279 130 279 139.5 279 c 0,31,32
 149 279 149 279 153 277 c 2,33,-1
 247 241 l 2,0,1
EndSplineSet
EndChar

StartChar: hungarumlaut
Encoding: 733 733 328
Width: 353
GlyphClass: 2
Flags: HW
LayerCount: 2
Fore
SplineSet
83 517 m 2,0,1
 68 500 68 500 56 500 c 0,2,3
 44 500 44 500 34 508.5 c 128,-1,4
 24 517 24 517 24 530.5 c 0,5,6
 24 544 24 544 34 556 c 2,7,-1
 130 671 l 2,8,9
 145 688 145 688 157.5 688 c 0,10,11
 170 688 170 688 179.5 679.5 c 128,-1,12
 189 671 189 671 189 657 c 128,-1,13
 189 643 189 643 179 632 c 2,14,-1
 83 517 l 2,0,1
223 517 m 2,15,16
 208 500 208 500 196 500 c 0,17,18
 184 500 184 500 174 508.5 c 128,-1,19
 164 517 164 517 164 530.5 c 0,20,21
 164 544 164 544 174 556 c 2,22,-1
 270 671 l 2,23,24
 285 688 285 688 297.5 688 c 0,25,26
 310 688 310 688 319.5 679.5 c 128,-1,27
 329 671 329 671 329 657 c 128,-1,28
 329 643 329 643 319 632 c 2,29,-1
 223 517 l 2,15,16
EndSplineSet
EndChar

StartChar: gravecomb
Encoding: 768 768 329
Width: 0
GlyphClass: 4
Flags: HW
AnchorPoint: "Anchor-0" -268 480 mark 0
LayerCount: 2
Fore
SplineSet
-321 626 m 2,0,-1
 -251 557 l 1,1,2
 -238 542 -238 542 -238 530 c 0,3,4
 -238 518 -238 518 -246.5 509 c 128,-1,5
 -255 500 -255 500 -269.5 500 c 0,6,7
 -284 500 -284 500 -297 515 c 1,8,-1
 -366 583 l 1,9,10
 -380 599 -380 599 -380 610 c 0,11,12
 -380 621 -380 621 -370.5 631 c 128,-1,13
 -361 641 -361 641 -348.5 641 c 0,14,15
 -336 641 -336 641 -321 626 c 2,0,-1
EndSplineSet
EndChar

StartChar: acutecomb
Encoding: 769 769 330
Width: 0
GlyphClass: 4
Flags: HW
AnchorPoint: "Anchor-0" -349 480 mark 0
LayerCount: 2
Fore
SplineSet
-297 626 m 2,0,1
 -282 641 -282 641 -269.5 641 c 0,2,3
 -257 641 -257 641 -247.5 631 c 128,-1,4
 -238 621 -238 621 -238 610 c 0,5,6
 -238 599 -238 599 -252 583 c 1,7,-1
 -321 515 l 1,8,9
 -334 500 -334 500 -348.5 500 c 0,10,11
 -363 500 -363 500 -371.5 509 c 128,-1,12
 -380 518 -380 518 -380 530 c 0,13,14
 -380 542 -380 542 -367 557 c 1,15,-1
 -297 626 l 2,0,1
EndSplineSet
EndChar

StartChar: uni0302
Encoding: 770 770 331
Width: 0
GlyphClass: 4
Flags: HW
AnchorPoint: "Anchor-0" -302 480 mark 0
LayerCount: 2
Fore
SplineSet
-441 554 m 2,0,-1
 -334 678 l 1,1,-1
 -271 678 l 1,2,-1
 -162 554 l 2,3,4
 -155 547 -155 547 -155 533 c 0,5,6
 -155 505 -155 505 -183 505 c 0,7,8
 -196.625 505 -196.625 505 -208 518 c 2,9,-1
 -215 527 l 1,10,-1
 -302 609 l 1,11,-1
 -388 527 l 1,12,-1
 -395 518 l 2,13,14
 -406.375 505 -406.375 505 -420 505 c 0,15,16
 -448 505 -448 505 -448 533 c 0,17,18
 -448 547 -448 547 -441 554 c 2,0,-1
EndSplineSet
EndChar

StartChar: uni0307
Encoding: 775 775 335
Width: 0
GlyphClass: 4
Flags: HW
AnchorPoint: "Anchor-0" -306 480 mark 0
LayerCount: 2
Fore
SplineSet
-251 558 m 128,-1,1
 -251 539 -251 539 -270 525.5 c 128,-1,2
 -289 512 -289 512 -307.5 512 c 0,3,4
 -326 512 -326 512 -344.5 525.5 c 128,-1,5
 -363 539 -363 539 -363 558.5 c 0,6,7
 -363 578 -363 578 -345 591 c 128,-1,8
 -327 604 -327 604 -307.5 604 c 0,9,10
 -288 604 -288 604 -269.5 590.5 c 128,-1,0
 -251 577 -251 577 -251 558 c 128,-1,1
EndSplineSet
EndChar

StartChar: hookabovecomb
Encoding: 777 777 337
Width: 0
GlyphClass: 4
Flags: HW
AnchorPoint: "Anchor-0" -293 480 mark 0
LayerCount: 2
Fore
SplineSet
-283 603 m 0,0,1
 -303 603 -303 603 -303 592 c 0,2,3
 -303 569 -303 569 -328 569 c 2,4,-1
 -329 569 l 2,5,6
 -342 569 -342 569 -348.5 576.5 c 128,-1,7
 -355 584 -355 584 -355 592 c 0,8,9
 -355 624 -355 624 -331 639.5 c 128,-1,10
 -307 655 -307 655 -278 655 c 128,-1,11
 -249 655 -249 655 -231 634 c 128,-1,12
 -213 613 -213 613 -213 588.5 c 128,-1,13
 -213 564 -213 564 -221.5 552 c 128,-1,14
 -230 540 -230 540 -240 535.5 c 0,15,16
 -267 523.35 -267 523.35 -267 514 c 0,17,18
 -267 490 -267 490 -292 490 c 0,19,20
 -306 490 -306 490 -313.5 497.5 c 128,-1,21
 -321 505 -321 505 -321 520.5 c 128,-1,22
 -321 536 -321 536 -312.5 548.5 c 128,-1,23
 -304 561 -304 561 -294 564 c 0,24,25
 -267 572.1 -267 572.1 -267 587 c 0,26,27
 -267 595 -267 595 -272.5 599 c 128,-1,28
 -278 603 -278 603 -283 603 c 0,0,1
EndSplineSet
EndChar

StartChar: uni030A
Encoding: 778 778 338
Width: 0
GlyphClass: 4
Flags: HW
AnchorPoint: "Anchor-0" -307 480 mark 0
LayerCount: 2
Fore
SplineSet
-345 582 m 128,-1,1
 -345 566 -345 566 -334 555 c 128,-1,2
 -323 544 -323 544 -307 544 c 128,-1,3
 -291 544 -291 544 -280 555 c 128,-1,4
 -269 566 -269 566 -269 582 c 128,-1,5
 -269 598 -269 598 -280 609 c 128,-1,6
 -291 620 -291 620 -307 620 c 128,-1,7
 -323 620 -323 620 -334 609 c 128,-1,0
 -345 598 -345 598 -345 582 c 128,-1,1
-389 582 m 128,-1,9
 -389 616 -389 616 -365 640 c 128,-1,10
 -341 664 -341 664 -307 664 c 128,-1,11
 -273 664 -273 664 -249 640 c 128,-1,12
 -225 616 -225 616 -225 582 c 128,-1,13
 -225 548 -225 548 -249 524 c 128,-1,14
 -273 500 -273 500 -307 500 c 128,-1,15
 -341 500 -341 500 -365 524 c 128,-1,8
 -389 548 -389 548 -389 582 c 128,-1,9
EndSplineSet
EndChar

StartChar: uni030C
Encoding: 780 780 340
Width: 0
GlyphClass: 4
Flags: HW
AnchorPoint: "Anchor-0" -298 480 mark 0
LayerCount: 2
Fore
SplineSet
-269 517 m 1,0,-1
 -329 517 l 1,1,-1
 -435 628 l 2,2,3
 -443 636 -443 636 -443 646 c 128,-1,4
 -443 656 -443 656 -436 663.5 c 128,-1,5
 -429 671 -429 671 -415.5 671 c 0,6,7
 -402 671 -402 671 -380 653 c 2,8,-1
 -299 586 l 1,9,-1
 -218 653 l 2,10,11
 -196 671 -196 671 -182.5 671 c 0,12,13
 -169 671 -169 671 -162 663.5 c 128,-1,14
 -155 656 -155 656 -155 646 c 128,-1,15
 -155 636 -155 636 -163 628 c 2,16,-1
 -269 517 l 1,0,-1
EndSplineSet
EndChar

StartChar: uni0311
Encoding: 785 785 341
Width: 0
GlyphClass: 4
Flags: HW
AnchorPoint: "Anchor-0" -305 480 mark 0
LayerCount: 2
Fore
SplineSet
-179 501 m 1,0,-1
 -242 501 l 1,1,2
 -242 524 -242 524 -256 541 c 128,-1,3
 -270 558 -270 558 -304 558 c 128,-1,4
 -338 558 -338 558 -352 541 c 128,-1,5
 -366 524 -366 524 -366 501 c 1,6,-1
 -429 501 l 1,7,8
 -429 535 -429 535 -415.5 560 c 128,-1,9
 -402 585 -402 585 -381.5 597.5 c 0,10,11
 -341.32 622 -341.32 622 -300.16 622 c 128,-1,12
 -259 622 -259 622 -219 593.5 c 128,-1,13
 -179 565 -179 565 -179 501 c 1,0,-1
EndSplineSet
EndChar

StartChar: commaturnedabovecmb
Encoding: 786 786 342
Width: 0
GlyphClass: 4
Flags: HW
AnchorPoint: "Anchor-0" -234 480 mark 0
LayerCount: 2
Fore
SplineSet
-266 567 m 1,0,-1
 -226 650 l 2,1,2
 -212 677 -212 677 -196 677 c 0,3,4
 -169 677 -169 677 -169 647 c 0,5,6
 -169 642 -169 642 -172 630 c 2,7,-1
 -196 544 l 1,8,9
 -205 516 -205 516 -226 516 c 0,10,11
 -240 516 -240 516 -256 523 c 128,-1,12
 -272 530 -272 530 -272 543.5 c 0,13,14
 -272 557 -272 557 -266 567 c 1,0,-1
EndSplineSet
EndChar

StartChar: uni0313
Encoding: 787 787 343
Width: 0
GlyphClass: 4
Flags: HW
AnchorPoint: "Anchor-0" -268 480 mark 0
LayerCount: 2
Fore
SplineSet
-292 588.5 m 128,-1,1
 -305 603 -305 603 -305 625 c 128,-1,2
 -305 647 -305 647 -286 661.5 c 128,-1,3
 -267 676 -267 676 -247 676 c 128,-1,4
 -227 676 -227 676 -210 659.5 c 128,-1,5
 -193 643 -193 643 -193 614.5 c 128,-1,6
 -193 586 -193 586 -220.5 541 c 128,-1,7
 -248 496 -248 496 -266 496 c 128,-1,8
 -284 496 -284 496 -284 512 c 0,9,10
 -284 519 -284 519 -272.5 537.5 c 128,-1,11
 -261 556 -261 556 -261 570 c 1,12,0
 -279 574 -279 574 -292 588.5 c 128,-1,1
EndSplineSet
EndChar

StartChar: uni031B
Encoding: 795 795 344
Width: 109
GlyphClass: 2
Flags: HW
LayerCount: 2
Fore
SplineSet
-62 557 m 1,0,1
 -10 557 -10 557 10 567 c 128,-1,2
 30 577 30 577 30 596 c 0,3,4
 30 615 30 615 11 629 c 0,5,6
 -8 643 -8 643 -8 659.5 c 0,7,8
 -8 676 -8 676 2.5 683.5 c 128,-1,9
 13 691 13 691 24.5 691 c 0,10,11
 36 691 36 691 48 679 c 1,12,13
 94 640 94 640 94 596 c 0,14,15
 94 496 94 496 -62 496 c 1,16,-1
 -62 557 l 1,0,1
EndSplineSet
EndChar

StartChar: dotbelowcomb
Encoding: 803 803 345
Width: 0
GlyphClass: 4
Flags: HW
AnchorPoint: "Anchor-1" -307 0 mark 0
LayerCount: 2
Fore
SplineSet
-251 -98 m 128,-1,1
 -251 -117 -251 -117 -270 -130.5 c 128,-1,2
 -289 -144 -289 -144 -307.5 -144 c 0,3,4
 -326 -144 -326 -144 -344.5 -130.5 c 128,-1,5
 -363 -117 -363 -117 -363 -97.5 c 0,6,7
 -363 -78 -363 -78 -345 -65 c 128,-1,8
 -327 -52 -327 -52 -307.5 -52 c 0,9,10
 -288 -52 -288 -52 -269.5 -65.5 c 128,-1,0
 -251 -79 -251 -79 -251 -98 c 128,-1,1
EndSplineSet
EndChar

StartChar: uni0327
Encoding: 807 807 347
Width: 0
GlyphClass: 4
Flags: HW
AnchorPoint: "Anchor-1" -296 0 mark 0
LayerCount: 2
Fore
SplineSet
-269 10 m 1,0,1
 -269 -15.68 -269 -15.68 -234.5 -35 c 0,2,3
 -222 -42 -222 -42 -211 -57.5 c 128,-1,4
 -200 -73 -200 -73 -200 -94 c 0,5,6
 -200 -133 -200 -133 -230 -156.5 c 128,-1,7
 -260 -180 -260 -180 -294 -180 c 128,-1,8
 -328 -180 -328 -180 -356.5 -167 c 128,-1,9
 -385 -154 -385 -154 -385 -125 c 0,10,11
 -385 -114 -385 -114 -379 -108 c 128,-1,12
 -373 -102 -373 -102 -364 -102 c 128,-1,13
 -355 -102 -355 -102 -333 -111 c 128,-1,14
 -311 -120 -311 -120 -293.5 -120 c 0,15,16
 -262 -120 -262 -120 -262 -99 c 0,17,18
 -262 -90 -262 -90 -279 -77.5 c 0,19,20
 -331 -39.2647058824 -331 -39.2647058824 -331 10 c 1,21,-1
 -269 10 l 1,0,1
EndSplineSet
EndChar

StartChar: uni0334
Encoding: 820 820 349
Width: 401
GlyphClass: 2
Flags: HW
LayerCount: 2
Fore
SplineSet
-111 252 m 0,0,1
 -111 229 -111 229 -153 201 c 128,-1,2
 -195 173 -195 173 -223 173 c 0,3,4
 -251 173 -251 173 -310 193 c 128,-1,5
 -369 213 -369 213 -385 213 c 0,6,7
 -401 213 -401 213 -425.5 192.5 c 128,-1,8
 -450 172 -450 172 -464.5 172 c 0,9,10
 -479 172 -479 172 -491.5 179 c 128,-1,11
 -504 186 -504 186 -504 204.5 c 0,12,13
 -504 223 -504 223 -462.5 251 c 128,-1,14
 -421 279 -421 279 -393.5 279 c 0,15,16
 -366 279 -366 279 -306.5 259 c 128,-1,17
 -247 239 -247 239 -231 239 c 0,18,19
 -215 239 -215 239 -190.5 259.5 c 128,-1,20
 -166 280 -166 280 -151 280 c 0,21,22
 -136 280 -136 280 -123.5 273 c 128,-1,23
 -111 266 -111 266 -111 252 c 0,0,1
EndSplineSet
EndChar

StartChar: uni0337
Encoding: 823 823 351
Width: 0
GlyphClass: 2
Flags: HW
LayerCount: 2
Fore
SplineSet
-206 251 m 1,0,-1
 -376 166 l 2,1,2
 -384 163 -384 163 -396.5 163 c 0,3,4
 -409 163 -409 163 -416.5 174 c 128,-1,5
 -424 185 -424 185 -424 198.5 c 0,6,7
 -424 212 -424 212 -399 224 c 2,8,-1
 -229 310 l 2,9,10
 -223 313 -223 313 -209.5 313 c 0,11,12
 -196 313 -196 313 -187 304 c 128,-1,13
 -178 295 -178 295 -178 279 c 0,14,15
 -178 263 -178 263 -206 251 c 1,0,-1
EndSplineSet
EndChar

StartChar: uni037A
Encoding: 890 890 352
Width: 276
GlyphClass: 2
Flags: HW
LayerCount: 2
Fore
SplineSet
197 -179 m 2,0,-1
 190 -179 l 2,1,2
 129 -179 129 -179 107 -148.5 c 128,-1,3
 85 -118 85 -118 85 -45 c 2,4,-1
 85 -11 l 2,5,6
 85 19 85 19 116 19 c 128,-1,7
 147 19 147 19 147 -11 c 2,8,-1
 147 -63 l 2,9,10
 147 -94 147 -94 157 -105.5 c 128,-1,11
 167 -117 167 -117 197 -117 c 0,12,13
 237 -117 237 -117 237 -148 c 0,14,15
 237 -179 237 -179 197 -179 c 2,0,-1
EndSplineSet
EndChar

StartChar: questiongreek
Encoding: 894 894 353
Width: 261
GlyphClass: 2
Flags: HW
LayerCount: 2
Fore
SplineSet
177 71 m 1,0,-1
 137 -12 l 2,1,2
 124 -39 124 -39 107 -39 c 0,3,4
 80 -39 80 -39 80 -9 c 0,5,6
 80 -4 80 -4 83 8 c 2,7,-1
 107 95 l 2,8,9
 115 122 115 122 137 122 c 0,10,11
 151 122 151 122 167 115 c 128,-1,12
 183 108 183 108 183 94.5 c 0,13,14
 183 81 183 81 177 71 c 1,0,-1
185 433 m 128,-1,16
 185 414 185 414 166.5 400.5 c 128,-1,17
 148 387 148 387 128.5 387 c 0,18,19
 109 387 109 387 91 400 c 128,-1,20
 73 413 73 413 73 432.5 c 0,21,22
 73 452 73 452 91.5 465.5 c 128,-1,23
 110 479 110 479 128.5 479 c 0,24,25
 147 479 147 479 166 465.5 c 128,-1,15
 185 452 185 452 185 433 c 128,-1,16
EndSplineSet
EndChar

StartChar: tonos
Encoding: 900 900 354
Width: 255
GlyphClass: 2
Flags: HW
LayerCount: 2
Fore
SplineSet
156 691 m 0,0,1
 169 691 169 691 177 681.5 c 128,-1,2
 185 672 185 672 185 660 c 0,3,4
 185 648 185 648 182 639 c 2,5,-1
 133 504 l 2,6,7
 124 477 124 477 101 477 c 0,8,9
 88 477 88 477 79 485 c 128,-1,10
 70 493 70 493 70 504.5 c 0,11,12
 70 516 70 516 74 525 c 2,13,-1
 123 661 l 2,14,15
 134 691 134 691 156 691 c 0,0,1
EndSplineSet
EndChar

StartChar: anoteleia
Encoding: 903 903 357
Width: 246
GlyphClass: 2
Flags: HW
LayerCount: 2
Fore
SplineSet
179 387 m 128,-1,1
 179 368 179 368 160.5 354.5 c 128,-1,2
 142 341 142 341 122.5 341 c 0,3,4
 103 341 103 341 85 354 c 128,-1,5
 67 367 67 367 67 386.5 c 0,6,7
 67 406 67 406 85.5 419.5 c 128,-1,8
 104 433 104 433 122.5 433 c 0,9,10
 141 433 141 433 160 419.5 c 128,-1,0
 179 406 179 406 179 387 c 128,-1,1
EndSplineSet
EndChar

StartChar: Gamma
Encoding: 915 915 367
Width: 576
GlyphClass: 2
Flags: HW
LayerCount: 2
Fore
SplineSet
194 574 m 2,0,1
 165 574 165 574 154.5 562.5 c 128,-1,2
 144 551 144 551 144 521 c 2,3,-1
 144 31 l 2,4,5
 144 -7 144 -7 113 -7 c 0,6,7
 82 -7 82 -7 82 31 c 2,8,-1
 82 506 l 2,9,10
 82 576 82 576 104 606 c 128,-1,11
 126 636 126 636 187 636 c 2,12,-1
 512 636 l 2,13,14
 552 636 552 636 552 605 c 128,-1,15
 552 574 552 574 512 574 c 2,16,-1
 194 574 l 2,0,1
EndSplineSet
EndChar

StartChar: Delta
Encoding: 916 916 368
Width: 572
GlyphClass: 2
Flags: HW
LayerCount: 2
Fore
SplineSet
515 0 m 2,0,-1
 57 0 l 2,1,2
 43 0 43 0 34 8.5 c 128,-1,3
 25 17 25 17 25 27 c 0,4,5
 25 37 25 37 28 46 c 2,6,-1
 251 618 l 1,7,8
 260 644 260 644 286 644 c 128,-1,9
 312 644 312 644 321 618 c 1,10,-1
 544 46 l 2,11,12
 547 37 547 37 547 27 c 0,13,14
 547 17 547 17 538 8.5 c 128,-1,15
 529 0 529 0 515 0 c 2,0,-1
286 545 m 1,16,-1
 100 63 l 1,17,-1
 472 63 l 1,18,-1
 286 545 l 1,16,-1
EndSplineSet
EndChar

StartChar: Theta
Encoding: 920 920 372
Width: 614
GlyphClass: 2
Flags: HW
LayerCount: 2
Fore
SplineSet
215 286 m 2,0,1
 198 286 198 286 187.5 295 c 128,-1,2
 177 304 177 304 177 318 c 0,3,4
 177 349 177 349 215 349 c 2,5,-1
 396 349 l 2,6,7
 437 349 437 349 437 318 c 0,8,9
 437 304 437 304 425 295 c 128,-1,10
 413 286 413 286 396 286 c 2,11,-1
 215 286 l 2,0,1
481.5 54.5 m 128,-1,13
 414 -9 414 -9 306.5 -9 c 128,-1,14
 199 -9 199 -9 132 54.5 c 128,-1,15
 65 118 65 118 65 229 c 2,16,-1
 65 407 l 2,17,18
 65 518 65 518 132 581.5 c 128,-1,19
 199 645 199 645 306.5 645 c 128,-1,20
 414 645 414 645 481.5 581.5 c 128,-1,21
 549 518 549 518 549 407 c 2,22,-1
 549 229 l 2,23,12
 549 118 549 118 481.5 54.5 c 128,-1,13
307 583 m 128,-1,25
 220 583 220 583 173.5 536 c 128,-1,26
 127 489 127 489 127 405 c 2,27,-1
 127 231 l 2,28,29
 127 146 127 146 173 99.5 c 128,-1,30
 219 53 219 53 307 53 c 128,-1,31
 395 53 395 53 441 99.5 c 128,-1,32
 487 146 487 146 487 231 c 2,33,-1
 487 405 l 2,34,35
 487 489 487 489 440.5 536 c 128,-1,24
 394 583 394 583 307 583 c 128,-1,25
EndSplineSet
EndChar

StartChar: Lambda
Encoding: 923 923 375
Width: 588
GlyphClass: 2
Flags: HW
LayerCount: 2
Fore
SplineSet
23 4 m 0,0,1
 23 10 23 10 26 25 c 1,2,-1
 262 636 l 1,3,-1
 326 636 l 1,4,-1
 562 25 l 1,5,6
 565 10 565 10 565 4 c 0,7,8
 565 -16 565 -16 538.5 -16 c 0,9,10
 512 -16 512 -16 502 4 c 1,11,-1
 293 543 l 1,12,-1
 86 4 l 1,13,14
 76 -16 76 -16 49.5 -16 c 0,15,16
 23 -16 23 -16 23 4 c 0,0,1
EndSplineSet
EndChar

StartChar: Xi
Encoding: 926 926 378
Width: 624
GlyphClass: 2
Flags: HW
LayerCount: 2
Fore
SplineSet
205 286 m 2,0,1
 188 286 188 286 177.5 295 c 128,-1,2
 167 304 167 304 167 318 c 0,3,4
 167 349 167 349 205 349 c 2,5,-1
 416 349 l 2,6,7
 457 349 457 349 457 318 c 0,8,9
 457 304 457 304 445 295 c 128,-1,10
 433 286 433 286 416 286 c 2,11,-1
 205 286 l 2,0,1
86 585 m 2,12,13
 50 585 50 585 50 616 c 0,14,15
 50 628 50 628 58.5 637.5 c 128,-1,16
 67 647 67 647 86 647 c 2,17,-1
 536 647 l 2,18,19
 575 647 575 647 575 614 c 0,20,21
 575 585 575 585 536 585 c 2,22,-1
 86 585 l 2,12,13
86 0 m 2,23,24
 50 0 50 0 50 31 c 0,25,26
 50 43 50 43 58.5 52.5 c 128,-1,27
 67 62 67 62 86 62 c 2,28,-1
 536 62 l 2,29,30
 575 62 575 62 575 29 c 0,31,32
 575 0 575 0 536 0 c 2,33,-1
 86 0 l 2,23,24
EndSplineSet
EndChar

StartChar: Pi
Encoding: 928 928 380
Width: 644
GlyphClass: 2
Flags: HW
LayerCount: 2
Fore
SplineSet
85 636 m 1,0,-1
 559 636 l 1,1,-1
 559 31 l 2,2,3
 559 -7 559 -7 528 -7 c 0,4,5
 497 -7 497 -7 497 31 c 2,6,-1
 497 574 l 1,7,-1
 147 574 l 1,8,-1
 147 31 l 2,9,10
 147 -7 147 -7 116 -7 c 128,-1,11
 85 -7 85 -7 85 31 c 2,12,-1
 85 636 l 1,0,-1
EndSplineSet
EndChar

StartChar: Sigma
Encoding: 931 931 382
Width: 597
GlyphClass: 2
Flags: HW
LayerCount: 2
Fore
SplineSet
31 617 m 0,0,1
 31 647 31 647 67 647 c 2,2,-1
 517 647 l 2,3,4
 556 647 556 647 556 614 c 0,5,6
 556 585 556 585 517 585 c 2,7,-1
 129 585 l 1,8,-1
 352 348 l 1,9,10
 365 328 365 328 365 320 c 0,11,12
 365 312 365 312 353 298 c 2,13,-1
 129 62 l 1,14,-1
 517 62 l 2,15,16
 556 62 556 62 556 29 c 0,17,18
 556 0 556 0 517 0 c 2,19,-1
 61 0 l 2,20,21
 49 0 49 0 40 8.5 c 128,-1,22
 31 17 31 17 31 29.5 c 0,23,24
 31 42 31 42 42 55 c 2,25,-1
 287 323 l 1,26,-1
 42 591 l 2,27,28
 31 604 31 604 31 617 c 0,0,1
EndSplineSet
EndChar

StartChar: Phi
Encoding: 934 934 385
Width: 568
GlyphClass: 2
Flags: HW
LayerCount: 2
Fore
SplineSet
319 29 m 2,0,1
 319 -7 319 -7 285 -7 c 0,2,3
 272 -7 272 -7 262.5 1.5 c 128,-1,4
 253 10 253 10 253 29 c 2,5,-1
 253 75 l 1,6,7
 157 84 157 84 99.5 146 c 128,-1,8
 42 208 42 208 42 312 c 2,9,-1
 42 324 l 2,10,11
 42 428 42 428 99.5 490 c 128,-1,12
 157 552 157 552 253 561 c 1,13,-1
 253 606 l 2,14,15
 253 643 253 643 286 643 c 128,-1,16
 319 643 319 643 319 606 c 2,17,-1
 319 561 l 1,18,19
 413 550 413 550 469.5 488 c 128,-1,20
 526 426 526 426 526 324 c 2,21,-1
 526 312 l 2,22,23
 526 210 526 210 469.5 148 c 128,-1,24
 413 86 413 86 319 75 c 1,25,-1
 319 29 l 2,0,1
464 324 m 2,26,27
 464 401 464 401 426.5 448.5 c 128,-1,28
 389 496 389 496 319 505 c 1,29,-1
 319 131 l 1,30,31
 389 139 389 139 426.5 186.5 c 128,-1,32
 464 234 464 234 464 312 c 2,33,-1
 464 324 l 2,26,27
104 312 m 2,34,35
 104 234 104 234 141.5 186.5 c 128,-1,36
 179 139 179 139 253 130 c 1,37,-1
 253 506 l 1,38,39
 181 498 181 498 142.5 450.5 c 128,-1,40
 104 403 104 403 104 324 c 2,41,-1
 104 312 l 2,34,35
EndSplineSet
EndChar

StartChar: Psi
Encoding: 936 936 387
Width: 580
GlyphClass: 2
Flags: HW
LayerCount: 2
Fore
SplineSet
470 605 m 2,0,1
 470 643 470 643 501 643 c 0,2,3
 532 643 532 643 532 606 c 2,4,-1
 532 455 l 2,5,6
 532 353 532 353 474 290.5 c 128,-1,7
 416 228 416 228 322 218 c 1,8,-1
 322 29 l 2,9,10
 322 -7 322 -7 291 -7 c 0,11,12
 260 -7 260 -7 260 29 c 2,13,-1
 260 218 l 1,14,15
 164 227 164 227 106 289.5 c 128,-1,16
 48 352 48 352 48 455 c 2,17,-1
 48 606 l 2,18,19
 48 643 48 643 79 643 c 128,-1,20
 110 643 110 643 110 605 c 2,21,-1
 110 449 l 2,22,23
 110 294 110 294 260 277 c 1,24,-1
 260 605 l 2,25,26
 260 643 260 643 291 643 c 128,-1,27
 322 643 322 643 322 605 c 2,28,-1
 322 278 l 1,29,30
 470 295 470 295 470 449 c 2,31,-1
 470 605 l 2,0,1
EndSplineSet
EndChar

StartChar: Omega
Encoding: 937 937 388
Width: 612
GlyphClass: 2
Flags: HW
LayerCount: 2
Fore
SplineSet
349 151 m 1,0,1
 486 181 486 181 486 325 c 2,2,-1
 486 405 l 2,3,4
 486 489 486 489 439 536 c 128,-1,5
 392 583 392 583 306 583 c 128,-1,6
 220 583 220 583 173 536 c 128,-1,7
 126 489 126 489 126 405 c 2,8,-1
 126 325 l 2,9,10
 126 285 126 285 137.5 253.5 c 128,-1,11
 149 222 149 222 163 205 c 128,-1,12
 177 188 177 188 199.5 175 c 0,13,14
 228.870229008 158.030534351 228.870229008 158.030534351 263 150 c 1,15,-1
 263 102 l 2,16,17
 263 32 263 32 245.5 16 c 128,-1,18
 228 0 228 0 161 0 c 2,19,-1
 104 0 l 2,20,21
 64 0 64 0 64 31 c 128,-1,22
 64 62 64 62 104 62 c 2,23,-1
 154 62 l 2,24,25
 185 62 185 62 190.5 65.5 c 128,-1,26
 196 69 196 69 196 89 c 2,27,-1
 196 111 l 1,28,29
 134 137 134 137 99 192.5 c 128,-1,30
 64 248 64 248 64 327 c 2,31,-1
 64 407 l 2,32,33
 64 518 64 518 131 581.5 c 128,-1,34
 198 645 198 645 305.5 645 c 128,-1,35
 413 645 413 645 480.5 581.5 c 128,-1,36
 548 518 548 518 548 407 c 2,37,-1
 548 327 l 2,38,39
 548 248 548 248 513 192.5 c 128,-1,40
 478 137 478 137 416 111 c 1,41,-1
 416 88 l 2,42,43
 416 68 416 68 421.5 65 c 128,-1,44
 427 62 427 62 458 62 c 2,45,-1
 508 62 l 2,46,47
 548 62 548 62 548 31 c 128,-1,48
 548 0 548 0 508 0 c 2,49,-1
 451 0 l 2,50,51
 384 0 384 0 366.5 16 c 128,-1,52
 349 32 349 32 349 102 c 2,53,-1
 349 151 l 1,0,1
EndSplineSet
EndChar

StartChar: alpha
Encoding: 945 945 396
Width: 604
GlyphClass: 2
Flags: HW
LayerCount: 2
Fore
SplineSet
534 0 m 2,0,-1
 527 0 l 2,1,2
 450 0 450 0 430 55 c 1,3,4
 371 0 371 0 265.5 0 c 0,5,6
 160 0 160 0 109.5 44.5 c 128,-1,7
 59 89 59 89 59 197 c 2,8,-1
 59 264 l 2,9,10
 59 372 59 372 109.5 416.5 c 128,-1,11
 160 461 160 461 261 461 c 0,12,13
 362 461 362 461 420 414 c 1,14,-1
 420 428 l 2,15,16
 420 468 420 468 452 468 c 0,17,18
 484 468 484 468 484 430 c 2,19,-1
 484 114 l 2,20,21
 484 84 484 84 494 73 c 128,-1,22
 504 62 504 62 534 62 c 0,23,24
 574 62 574 62 574 31 c 0,25,26
 574 0 574 0 534 0 c 2,0,-1
267 399 m 0,27,28
 182 399 182 399 151.5 372 c 128,-1,29
 121 345 121 345 121 264 c 2,30,-1
 121 197 l 2,31,32
 121 116 121 116 151.5 89 c 128,-1,33
 182 62 182 62 267 62 c 0,34,35
 420 62 420 62 420 197 c 2,36,-1
 420 264 l 2,37,38
 420 399 420 399 267 399 c 0,27,28
EndSplineSet
EndChar

StartChar: beta
Encoding: 946 946 397
Width: 507
GlyphClass: 2
Flags: HW
LayerCount: 2
Fore
SplineSet
137 41 m 1,0,-1
 137 -106 l 2,1,2
 137 -147 137 -147 104 -147 c 0,3,4
 75 -147 75 -147 75 -106 c 2,5,-1
 75 461 l 1,6,7
 76 562 76 562 122 599 c 128,-1,8
 168 636 168 636 243.5 636 c 128,-1,9
 319 636 319 636 366 595 c 128,-1,10
 413 554 413 554 413 487 c 0,11,12
 413 403 413 403 346 354 c 1,13,14
 388 339 388 339 414 308 c 0,15,16
 458 255.538461538 458 255.538461538 458 180 c 0,17,18
 458 -7 458 -7 278 -7 c 0,19,20
 192 -7 192 -7 137 41 c 1,0,-1
137 461 m 2,21,-1
 137 130 l 1,22,23
 202 53 202 53 276 53 c 0,24,25
 340.2 53 340.2 53 365.5 80.5 c 0,26,27
 396 113.652173913 396 113.652173913 396 182 c 0,28,29
 396 320 396 320 197 320 c 1,30,-1
 197 380 l 1,31,32
 351 380 351 380 351 489 c 0,33,34
 351 529 351 529 319.5 551.5 c 128,-1,35
 288 574 288 574 237 574 c 128,-1,36
 186 574 186 574 161.5 553.5 c 128,-1,37
 137 533 137 533 137 461 c 2,21,-1
EndSplineSet
EndChar

StartChar: gamma
Encoding: 947 947 398
Width: 547
GlyphClass: 2
Flags: HW
LayerCount: 2
Fore
SplineSet
62 399 m 0,0,1
 24 399 24 399 24 430 c 128,-1,2
 24 461 24 461 62 461 c 0,3,4
 123 461 123 461 151 410.5 c 0,5,6
 179.329799764 359.405182568 179.329799764 359.405182568 275 55 c 1,7,-1
 457 444 l 2,8,9
 469 468 469 468 490 468 c 0,10,11
 501 468 501 468 510 460.5 c 128,-1,12
 519 453 519 453 519 444.5 c 128,-1,13
 519 436 519 436 516 427 c 1,14,-1
 302 -22 l 1,15,-1
 302 -142 l 2,16,17
 302 -182 302 -182 267 -182 c 0,18,19
 236 -182 236 -182 236 -142 c 2,20,-1
 236 -23 l 1,21,22
 153 235 153 235 120 317 c 128,-1,23
 87 399 87 399 62 399 c 0,0,1
EndSplineSet
EndChar

StartChar: delta
Encoding: 948 948 399
Width: 585
GlyphClass: 2
Flags: HW
LayerCount: 2
Fore
SplineSet
114 576 m 1,0,1
 95 585 95 585 95 601.5 c 0,2,3
 95 637 95 637 131 637 c 2,4,-1
 464 637 l 2,5,6
 503 637 503 637 503 604 c 0,7,8
 503 591 503 591 492 582.5 c 128,-1,9
 481 574 481 574 464 574 c 2,10,-1
 282 574 l 1,11,12
 534 471 534 471 534 206 c 0,13,14
 534 107 534 107 468.5 50 c 128,-1,15
 403 -7 403 -7 292 -7 c 0,16,17
 230 -7 230 -7 181 15 c 128,-1,18
 132 37 132 37 103 73.5 c 0,19,20
 45 146.5 45 146.5 45 228.25 c 128,-1,21
 45 310 45 310 88 363 c 128,-1,22
 131 416 131 416 187 438.5 c 128,-1,23
 243 461 243 461 288.5 461 c 128,-1,24
 334 461 334 461 365 452 c 1,25,26
 307 505 307 505 205 542 c 1,27,-1
 114 576 l 1,0,1
158 107.5 m 128,-1,29
 208 56 208 56 295.5 56 c 128,-1,30
 383 56 383 56 427 96.5 c 128,-1,31
 471 137 471 137 471 216 c 128,-1,32
 471 295 471 295 426 347 c 128,-1,33
 381 399 381 399 306.5 399 c 128,-1,34
 232 399 232 399 170 355.5 c 128,-1,35
 108 312 108 312 108 235.5 c 128,-1,28
 108 159 108 159 158 107.5 c 128,-1,29
EndSplineSet
EndChar

StartChar: epsilon
Encoding: 949 949 400
Width: 623
GlyphClass: 2
Flags: HW
LayerCount: 2
Fore
SplineSet
332 207 m 2,0,-1
 246 207 l 2,1,2
 183 207 183 207 153 186 c 128,-1,3
 123 165 123 165 123 117 c 0,4,5
 123 62 123 62 250 62 c 2,6,-1
 373 62 l 2,7,8
 406.538461538 62 406.538461538 62 439.769230769 71 c 0,9,10
 503 88.125 503 88.125 503 134 c 0,11,12
 503 174 503 174 534 174 c 128,-1,13
 565 174 565 174 565 134 c 0,14,15
 565 63 565 63 513.5 31.5 c 128,-1,16
 462 0 462 0 380 0 c 2,17,-1
 243 0 l 2,18,19
 162 0 162 0 111.5 30.5 c 128,-1,20
 61 61 61 61 61 130 c 128,-1,21
 61 199 61 199 115 236 c 1,22,23
 61 262 61 262 61 331 c 128,-1,24
 61 400 61 400 111.5 430.5 c 128,-1,25
 162 461 162 461 243 461 c 2,26,-1
 380 461 l 2,27,28
 462 461 462 461 513.5 429.5 c 128,-1,29
 565 398 565 398 565 327 c 0,30,31
 565 287 565 287 534 287 c 128,-1,32
 503 287 503 287 503 327 c 0,33,34
 503 350 503 350 488 365.5 c 128,-1,35
 473 381 473 381 449 387.5 c 0,36,37
 406.538461538 399 406.538461538 399 373 399 c 2,38,-1
 250 399 l 2,39,40
 122 399 122 399 122 344 c 0,41,42
 122 300 122 300 149 284.5 c 128,-1,43
 176 269 176 269 246 269 c 2,44,-1
 332 269 l 2,45,46
 373 269 373 269 373 236 c 0,47,48
 373 207 373 207 332 207 c 2,0,-1
EndSplineSet
EndChar

StartChar: zeta
Encoding: 950 950 401
Width: 523
GlyphClass: 2
Flags: HW
LayerCount: 2
Fore
SplineSet
419.5 -19.5 m 128,-1,1
 391 -7 391 -7 286.5 -7 c 128,-1,2
 182 -7 182 -7 116.5 50 c 128,-1,3
 51 107 51 107 51 206 c 0,4,5
 51 473 51 473 306 574 c 1,6,-1
 121 574 l 2,7,8
 104 574 104 574 93 582.5 c 128,-1,9
 82 591 82 591 82 604 c 0,10,11
 82 637 82 637 121 637 c 2,12,-1
 454 637 l 2,13,14
 473 637 473 637 481.5 627.5 c 128,-1,15
 490 618 490 618 490 606 c 0,16,17
 490 580 490 580 471 571 c 0,18,19
 464 568 464 568 432.5 557.5 c 128,-1,20
 401 547 401 547 379.5 539 c 128,-1,21
 358 531 358 531 322 514 c 128,-1,22
 286 497 286 497 260.5 479.5 c 128,-1,23
 235 462 235 462 205.5 434 c 128,-1,24
 176 406 176 406 157.5 375.5 c 0,25,26
 114 303.783783784 114 303.783783784 114 220.891891892 c 0,27,28
 114 56 114 56 292 56 c 0,29,30
 413.647058824 56 413.647058824 56 451.5 36.5 c 0,31,32
 492.227848101 15.5189873418 492.227848101 15.5189873418 503.5 -23.5 c 0,33,34
 510 -46 510 -46 510 -82 c 128,-1,35
 510 -118 510 -118 483 -148.5 c 128,-1,36
 456 -179 456 -179 430 -179 c 0,37,38
 418 -179 418 -179 410 -169.5 c 128,-1,39
 402 -160 402 -160 402 -146.5 c 128,-1,40
 402 -133 402 -133 425 -115.5 c 128,-1,41
 448 -98 448 -98 448 -81 c 0,42,0
 448 -32 448 -32 419.5 -19.5 c 128,-1,1
EndSplineSet
EndChar

StartChar: eta
Encoding: 951 951 402
Width: 649
GlyphClass: 2
Flags: HW
LayerCount: 2
Fore
SplineSet
312 399 m 2,0,1
 136 399 136 399 136 230 c 2,2,-1
 136 31 l 2,3,4
 136 -7 136 -7 105 -7 c 128,-1,5
 74 -7 74 -7 74 31 c 2,6,-1
 74 429 l 2,7,8
 74 468 74 468 103 468 c 0,9,10
 136 468 136 468 136 427 c 2,11,-1
 136 405 l 1,12,13
 196 461 196 461 312 461 c 2,14,-1
 341 461 l 2,15,16
 465 461 465 461 521.5 425 c 128,-1,17
 578 389 578 389 578 282 c 2,18,-1
 578 -165 l 2,19,20
 578 -205 578 -205 547 -205 c 0,21,22
 516 -205 516 -205 516 -165 c 2,23,-1
 516 280 l 2,24,25
 516 357 516 357 480.5 378 c 128,-1,26
 445 399 445 399 341 399 c 2,27,-1
 312 399 l 2,0,1
EndSplineSet
EndChar

StartChar: theta
Encoding: 952 952 403
Width: 545
GlyphClass: 2
Flags: HW
LayerCount: 2
Fore
SplineSet
273 583 m 128,-1,1
 128 583 128 583 128 407 c 2,2,-1
 128 349 l 1,3,-1
 418 349 l 1,4,-1
 418 407 l 2,5,0
 418 583 418 583 273 583 c 128,-1,1
273 -9 m 0,6,7
 66 -9 66 -9 66 229 c 2,8,-1
 66 407 l 2,9,10
 66 645 66 645 273 645 c 0,11,12
 377 645 377 645 428.5 583.5 c 128,-1,13
 480 522 480 522 480 407 c 2,14,-1
 480 229 l 2,15,16
 480 114 480 114 428.5 52.5 c 128,-1,17
 377 -9 377 -9 273 -9 c 0,6,7
418 229 m 2,18,-1
 418 286 l 1,19,-1
 128 286 l 1,20,-1
 128 229 l 2,21,22
 128 53 128 53 273 53 c 128,-1,23
 418 53 418 53 418 229 c 2,18,-1
EndSplineSet
EndChar

StartChar: iota
Encoding: 953 953 404
Width: 239
GlyphClass: 2
Flags: HW
LayerCount: 2
Fore
SplineSet
183 0 m 2,0,-1
 176 0 l 2,1,2
 115 0 115 0 93 29 c 128,-1,3
 71 58 71 58 71 128 c 2,4,-1
 71 430 l 2,5,6
 71 468 71 468 102 468 c 128,-1,7
 133 468 133 468 133 430 c 2,8,-1
 133 114 l 2,9,10
 133 84 133 84 143.5 73 c 128,-1,11
 154 62 154 62 183 62 c 0,12,13
 223 62 223 62 223 31 c 0,14,15
 223 0 223 0 183 0 c 2,0,-1
EndSplineSet
EndChar

StartChar: kappa
Encoding: 954 954 405
Width: 479
GlyphClass: 2
Flags: HW
LayerCount: 2
Fore
SplineSet
431 50 m 2,0,1
 447 38 447 38 447 26 c 128,-1,2
 447 14 447 14 439 3.5 c 128,-1,3
 431 -7 431 -7 417.5 -7 c 128,-1,4
 404 -7 404 -7 392 2 c 2,5,-1
 135 200 l 1,6,-1
 135 28 l 2,7,8
 135 -7 135 -7 104 -7 c 128,-1,9
 73 -7 73 -7 73 28 c 2,10,-1
 73 432 l 2,11,12
 73 468 73 468 104 468 c 128,-1,13
 135 468 135 468 135 432 c 2,14,-1
 135 264 l 1,15,-1
 391 461 l 2,16,17
 403 471 403 471 416.5 471 c 128,-1,18
 430 471 430 471 438.5 461 c 128,-1,19
 447 451 447 451 447 438 c 128,-1,20
 447 425 447 425 430 413 c 2,21,-1
 185 232 l 1,22,-1
 431 50 l 2,0,1
EndSplineSet
EndChar

StartChar: lambda
Encoding: 955 955 406
Width: 599
GlyphClass: 2
Flags: HW
LayerCount: 2
Fore
SplineSet
423 75 m 2,0,-1
 272 411 l 1,1,-1
 89 17 l 2,2,3
 78 -7 78 -7 56 -7 c 0,4,5
 45 -7 45 -7 36 0.5 c 128,-1,6
 27 8 27 8 27 16.5 c 0,7,8
 27 25 27 25 30 34 c 1,9,-1
 235 469 l 1,10,-1
 214 518 l 2,11,12
 203 543 203 543 181.5 558.5 c 128,-1,13
 160 574 160 574 141 574 c 0,14,15
 122 574 122 574 111 582.5 c 128,-1,16
 100 591 100 591 100 604 c 0,17,18
 100 637 100 637 139 637 c 128,-1,19
 178 637 178 637 212.5 615 c 128,-1,20
 247 593 247 593 265 556 c 2,21,-1
 475 111 l 2,22,23
 487 87 487 87 506.5 72 c 128,-1,24
 526 57 526 57 544 57 c 0,25,26
 562 57 562 57 573 48.5 c 128,-1,27
 584 40 584 40 584 27 c 0,28,29
 584 -6 584 -6 545.5 -6 c 0,30,31
 507 -6 507 -6 473.5 15.5 c 128,-1,32
 440 37 440 37 423 75 c 2,0,-1
EndSplineSet
EndChar

StartChar: mu
Encoding: 956 956 407
Width: 584
GlyphClass: 2
Flags: HW
LayerCount: 2
Fore
SplineSet
449 438 m 2,0,1
 449 478 449 478 480 478 c 0,2,3
 511 478 511 478 511 438 c 2,4,-1
 511 24 l 2,5,6
 511 -17 511 -17 480 -17 c 0,7,8
 449 -17 449 -17 449 24 c 2,9,-1
 449 46 l 1,10,11
 389 -10 389 -10 293 -10 c 128,-1,12
 197 -10 197 -10 137 46 c 1,13,-1
 137 -169 l 2,14,15
 137 -210 137 -210 104 -210 c 0,16,17
 75 -210 75 -210 75 -169 c 2,18,-1
 75 438 l 2,19,20
 75 478 75 478 106 478 c 0,21,22
 137 478 137 478 137 438 c 2,23,-1
 137 228 l 2,24,25
 137 143 137 143 177 97.5 c 128,-1,26
 217 52 217 52 293 52 c 128,-1,27
 369 52 369 52 409 97.5 c 128,-1,28
 449 143 449 143 449 228 c 2,29,-1
 449 438 l 2,0,1
EndSplineSet
EndChar

StartChar: nu
Encoding: 957 957 408
Width: 521
GlyphClass: 2
Flags: HW
LayerCount: 2
Fore
SplineSet
431 454 m 2,0,1
 442 478 442 478 464 478 c 0,2,3
 493 478 493 478 493 451 c 0,4,5
 493 443 493 443 489 434 c 2,6,-1
 293 -10 l 1,7,-1
 217 -10 l 1,8,-1
 33 434 l 2,9,10
 29 444 29 444 29 450 c 0,11,12
 29 478 29 478 58 478 c 0,13,14
 78 478 78 478 91 453 c 1,15,-1
 258 63 l 1,16,-1
 431 454 l 2,0,1
EndSplineSet
EndChar

StartChar: xi
Encoding: 958 958 409
Width: 524
GlyphClass: 2
Flags: HW
LayerCount: 2
Fore
SplineSet
246 59.5 m 128,-1,1
 271 56 271 56 304 56 c 128,-1,2
 337 56 337 56 361 55 c 128,-1,3
 385 54 385 54 413 49.5 c 128,-1,4
 441 45 441 45 457.5 36.5 c 128,-1,5
 474 28 474 28 488.5 13.5 c 0,6,7
 516 -14 516 -14 516 -77 c 0,8,9
 516 -118 516 -118 489 -148.5 c 128,-1,10
 462 -179 462 -179 436 -179 c 0,11,12
 424 -179 424 -179 416 -169.5 c 128,-1,13
 408 -160 408 -160 408 -146.5 c 128,-1,14
 408 -133 408 -133 431 -115.5 c 128,-1,15
 454 -98 454 -98 454 -81 c 0,16,17
 454 -32 454 -32 425.5 -19.5 c 128,-1,18
 397 -7 397 -7 328.5 -7 c 128,-1,19
 260 -7 260 -7 229 -4 c 128,-1,20
 198 -1 198 -1 164.5 10 c 128,-1,21
 131 21 131 21 109 40 c 0,22,23
 59 83.1818181818 59 83.1818181818 59 174 c 0,24,25
 59 215 59 215 79 257.5 c 128,-1,26
 99 300 99 300 125 323 c 1,27,28
 99 341 99 341 79 380.5 c 128,-1,29
 59 420 59 420 59 462 c 0,30,31
 59 532 59 532 110 574 c 1,32,-1
 76 574 l 2,33,34
 40 574 40 574 40 605 c 128,-1,35
 40 636 40 636 76 636 c 2,36,-1
 407 636 l 2,37,38
 446 636 446 636 446 604 c 0,39,40
 446 591 446 591 435 582.5 c 128,-1,41
 424 574 424 574 407 574 c 0,42,43
 120 574 120 574 120 462 c 0,44,45
 120 413 120 413 149 387.5 c 128,-1,46
 178 362 178 362 230 362 c 2,47,-1
 324 362 l 2,48,49
 369 362 369 362 369 329 c 0,50,51
 369 301 369 301 324 301 c 2,52,-1
 230 301 l 2,53,54
 182 301 182 301 151.5 260 c 128,-1,55
 121 219 121 219 121 174.5 c 128,-1,56
 121 130 121 130 139.5 106.5 c 128,-1,57
 158 83 158 83 189.5 73 c 128,-1,0
 221 63 221 63 246 59.5 c 128,-1,1
EndSplineSet
EndChar

StartChar: pi
Encoding: 960 960 411
Width: 628
GlyphClass: 2
Flags: HW
LayerCount: 2
Fore
SplineSet
440 399 m 1,0,-1
 152 399 l 1,1,-1
 152 31 l 2,2,3
 152 -7 152 -7 121 -7 c 128,-1,4
 90 -7 90 -7 90 31 c 2,5,-1
 90 399 l 1,6,-1
 80 399 l 2,7,8
 42 399 42 399 42 430 c 128,-1,9
 42 461 42 461 80 461 c 2,10,-1
 514 461 l 2,11,12
 552 461 552 461 552 430 c 0,13,14
 552 399 552 399 514 399 c 2,15,-1
 504 399 l 1,16,-1
 504 113 l 2,17,18
 504 84 504 84 514.5 73 c 128,-1,19
 525 62 525 62 554 62 c 0,20,21
 594 62 594 62 594 31 c 0,22,23
 594 0 594 0 554 0 c 2,24,-1
 546 0 l 2,25,26
 485 0 485 0 462.5 29.5 c 128,-1,27
 440 59 440 59 440 128 c 2,28,-1
 440 399 l 1,0,-1
EndSplineSet
EndChar

StartChar: rho
Encoding: 961 961 412
Width: 630
GlyphClass: 2
Flags: HW
LayerCount: 2
Fore
SplineSet
506 282 m 2,0,1
 506 359 506 359 470.5 379 c 128,-1,2
 435 399 435 399 331 399 c 2,3,-1
 302 399 l 2,4,5
 126 399 126 399 126 232 c 2,6,-1
 126 62 l 1,7,-1
 333 62 l 2,8,9
 436 62 436 62 471 82 c 128,-1,10
 506 102 506 102 506 179 c 2,11,-1
 506 282 l 2,0,1
302 461 m 2,12,-1
 331 461 l 2,13,14
 455 461 455 461 511.5 425 c 128,-1,15
 568 389 568 389 568 284 c 2,16,-1
 568 177 l 2,17,18
 568 72 568 72 512 36 c 128,-1,19
 456 0 456 0 333 0 c 2,20,-1
 126 0 l 1,21,-1
 126 -142 l 2,22,23
 126 -182 126 -182 93 -182 c 0,24,25
 64 -182 64 -182 64 -142 c 2,26,-1
 64 214 l 2,27,28
 64 344 64 344 124.5 402.5 c 128,-1,29
 185 461 185 461 302 461 c 2,12,-1
EndSplineSet
EndChar

StartChar: sigma1
Encoding: 962 962 413
Width: 509
GlyphClass: 2
Flags: HW
LayerCount: 2
Fore
SplineSet
109 229 m 0,0,1
 109 56 109 56 252 56 c 0,2,3
 343.6 56 343.6 56 380.8 47 c 128,-1,4
 418 38 418 38 434 24 c 0,5,6
 472 -9.25 472 -9.25 472 -77 c 0,7,8
 472 -118 472 -118 445 -148.5 c 128,-1,9
 418 -179 418 -179 392 -179 c 0,10,11
 380 -179 380 -179 372 -169.5 c 128,-1,12
 364 -160 364 -160 364 -146.5 c 128,-1,13
 364 -133 364 -133 387 -115.5 c 128,-1,14
 410 -98 410 -98 410 -81 c 0,15,16
 410 -32 410 -32 381 -19.5 c 128,-1,17
 352 -7 352 -7 250.5 -7 c 128,-1,18
 149 -7 149 -7 97.5 57.5 c 128,-1,19
 46 122 46 122 46 230 c 128,-1,20
 46 338 46 338 143 403 c 128,-1,21
 240 468 240 468 432 468 c 0,22,23
 449 468 449 468 460 459.5 c 128,-1,24
 471 451 471 451 471 438 c 0,25,26
 471 405 471 405 432 405 c 0,27,28
 240.888888889 405 240.888888889 405 170 347 c 0,29,30
 109 297.090909091 109 297.090909091 109 229 c 0,0,1
EndSplineSet
EndChar

StartChar: sigma
Encoding: 963 963 414
Width: 643
GlyphClass: 2
Flags: HW
LayerCount: 2
Fore
SplineSet
568 461 m 2,0,1
 608 461 608 461 608 430 c 128,-1,2
 608 399 608 399 568 399 c 2,3,-1
 490 399 l 1,4,5
 546 342 546 342 546 251 c 2,6,-1
 546 177 l 2,7,8
 546 70 546 70 496.5 35 c 128,-1,9
 447 0 447 0 329 0 c 2,10,-1
 300 0 l 2,11,12
 175 0 175 0 118.5 36 c 128,-1,13
 62 72 62 72 62 177 c 2,14,-1
 62 284 l 2,15,16
 62 389 62 389 118.5 425 c 128,-1,17
 175 461 175 461 300 461 c 2,18,-1
 568 461 l 2,0,1
300 399 m 2,19,20
 194 399 194 399 159 378.5 c 128,-1,21
 124 358 124 358 124 282 c 2,22,-1
 124 179 l 2,23,24
 124 103 124 103 159 82.5 c 128,-1,25
 194 62 194 62 300 62 c 2,26,-1
 329 62 l 2,27,28
 427 62 427 62 455.5 81.5 c 128,-1,29
 484 101 484 101 484 179 c 2,30,-1
 484 251 l 2,31,32
 484 323 484 323 438.5 361 c 128,-1,33
 393 399 393 399 307 399 c 2,34,-1
 300 399 l 2,19,20
EndSplineSet
EndChar

StartChar: tau
Encoding: 964 964 415
Width: 498
GlyphClass: 2
Flags: HW
LayerCount: 2
Fore
SplineSet
279 113 m 2,0,1
 279 84 279 84 291 73 c 128,-1,2
 303 62 303 62 336 62 c 0,3,4
 369 62 369 62 382 55.5 c 128,-1,5
 395 49 395 49 395 31 c 0,6,7
 395 13 395 13 380.5 6.5 c 128,-1,8
 366 0 366 0 335 0 c 2,9,-1
 327 0 l 2,10,11
 259 0 259 0 235 29 c 128,-1,12
 211 58 211 58 211 128 c 2,13,-1
 210 399 l 1,14,-1
 58 399 l 2,15,16
 20 399 20 399 20 430 c 128,-1,17
 20 461 20 461 58 461 c 2,18,-1
 429 461 l 2,19,20
 467 461 467 461 467 430 c 0,21,22
 467 399 467 399 429 399 c 2,23,-1
 279 399 l 1,24,-1
 279 113 l 2,0,1
EndSplineSet
EndChar

StartChar: upsilon
Encoding: 965 965 416
Width: 623
GlyphClass: 2
Flags: HW
LayerCount: 2
Fore
SplineSet
335 0 m 2,0,-1
 307 0 l 2,1,2
 182 0 182 0 125.5 36 c 128,-1,3
 69 72 69 72 69 177 c 2,4,-1
 69 430 l 2,5,6
 69 468 69 468 100 468 c 0,7,8
 131 468 131 468 131 430 c 2,9,-1
 131 179 l 2,10,11
 131 103 131 103 166.5 82.5 c 128,-1,12
 202 62 202 62 307 62 c 2,13,-1
 335 62 l 2,14,15
 435 62 435 62 463 81.5 c 128,-1,16
 491 101 491 101 491 179 c 2,17,-1
 491 430 l 2,18,19
 491 468 491 468 522 468 c 128,-1,20
 553 468 553 468 553 430 c 2,21,-1
 553 177 l 2,22,23
 553 70 553 70 504.5 35 c 128,-1,24
 456 0 456 0 335 0 c 2,0,-1
EndSplineSet
EndChar

StartChar: phi
Encoding: 966 966 417
Width: 646
GlyphClass: 2
Flags: HW
LayerCount: 2
Fore
SplineSet
547.5 425 m 128,-1,1
 584 389 584 389 584 284 c 2,2,-1
 584 177 l 2,3,4
 584 87.05 584 87.05 538 44.5 c 0,5,6
 499.728653745 9.09900471451 499.728653745 9.09900471451 424.5 2.5 c 0,7,8
 396 0 396 0 355 0 c 1,9,-1
 355 -142 l 2,10,11
 355 -182 355 -182 322 -182 c 128,-1,12
 289 -182 289 -182 289 -142 c 2,13,-1
 289 0 l 1,14,15
 118.604289544 3.21501340483 118.604289544 3.21501340483 78.5 89.5 c 0,16,17
 62 125 62 125 62 177 c 2,18,-1
 62 305 l 2,19,20
 62 372 62 372 93 416.5 c 128,-1,21
 124 461 124 461 196 461 c 0,22,23
 240 461 240 461 240 430 c 128,-1,24
 240 399 240 399 196 399 c 2,25,-1
 178 399 l 2,26,27
 152 399 152 399 138 369 c 128,-1,28
 124 339 124 339 124 292 c 2,29,-1
 124 185 l 2,30,31
 124 112 124 112 160.5 88 c 128,-1,32
 197 64 197 64 289 62 c 1,33,-1
 289 206 l 2,34,35
 289 320.090909091 289 320.090909091 298 349.545454545 c 128,-1,36
 307 379 307 379 317.5 400.5 c 128,-1,37
 328 422 328 422 343 433.5 c 0,38,39
 378.869565217 461 378.869565217 461 444.934782609 461 c 128,-1,0
 511 461 511 461 547.5 425 c 128,-1,1
504 377.5 m 128,-1,41
 486 399 486 399 438.5 399 c 128,-1,42
 391 399 391 399 373 359.5 c 128,-1,43
 355 320 355 320 355 222 c 2,44,-1
 355 62 l 1,45,46
 450 62 450 62 486 83.5 c 128,-1,47
 522 105 522 105 522 185 c 2,48,-1
 522 276 l 2,49,40
 522 356 522 356 504 377.5 c 128,-1,41
EndSplineSet
EndChar

StartChar: chi
Encoding: 967 967 418
Width: 540
GlyphClass: 2
Flags: HW
LayerCount: 2
Fore
SplineSet
417 447 m 2,0,1
 430 468 430 468 443.5 468 c 128,-1,2
 457 468 457 468 467.5 459.5 c 128,-1,3
 478 451 478 451 478 439.5 c 128,-1,4
 478 428 478 428 470 416 c 2,5,-1
 309 159 l 1,6,-1
 411 -56 l 2,7,8
 423 -82 423 -82 442.5 -97 c 128,-1,9
 462 -112 462 -112 480 -112 c 128,-1,10
 498 -112 498 -112 509 -120.5 c 128,-1,11
 520 -129 520 -129 520 -142 c 0,12,13
 520 -175 520 -175 481.5 -175 c 128,-1,14
 443 -175 443 -175 409.5 -153.5 c 128,-1,15
 376 -132 376 -132 359 -94 c 2,16,-1
 268 102 l 1,17,-1
 109 -156 l 1,18,19
 99 -178 99 -178 84.5 -178 c 0,20,21
 48 -178 48 -178 48 -148 c 0,22,23
 48 -137 48 -137 56 -125 c 2,24,-1
 235 164 l 1,25,-1
 145 351 l 2,26,27
 134 375 134 375 114 390 c 128,-1,28
 94 405 94 405 76 405 c 128,-1,29
 58 405 58 405 47 413.5 c 128,-1,30
 36 422 36 422 36 435 c 0,31,32
 36 468 36 468 74.5 468 c 128,-1,33
 113 468 113 468 146.5 446.5 c 128,-1,34
 180 425 180 425 197 387 c 2,35,-1
 276 218 l 1,36,-1
 417 447 l 2,0,1
EndSplineSet
EndChar

StartChar: psi
Encoding: 968 968 419
Width: 610
GlyphClass: 2
Flags: HW
LayerCount: 2
Fore
SplineSet
485 430 m 2,0,1
 485 468 485 468 516 468 c 0,2,3
 547 468 547 468 547 432 c 2,4,-1
 547 228 l 2,5,6
 547 127 547 127 490 65 c 128,-1,7
 433 3 433 3 339 -7 c 1,8,-1
 339 -103 l 2,9,10
 339 -140 339 -140 306 -140 c 0,11,12
 273 -140 273 -140 273 -103 c 2,13,-1
 273 -7 l 1,14,15
 178 2 178 2 120.5 64 c 128,-1,16
 63 126 63 126 63 228 c 2,17,-1
 63 432 l 2,18,19
 63 468 63 468 94 468 c 128,-1,20
 125 468 125 468 125 430 c 2,21,-1
 125 238 l 2,22,23
 125 159 125 159 163 111.5 c 128,-1,24
 201 64 201 64 273 56 c 1,25,-1
 273 556 l 2,26,27
 273 594 273 594 306 594 c 128,-1,28
 339 594 339 594 339 556 c 2,29,-1
 339 57 l 1,30,31
 410 65 410 65 447.5 112 c 128,-1,32
 485 159 485 159 485 238 c 2,33,-1
 485 430 l 2,0,1
EndSplineSet
EndChar

StartChar: omega
Encoding: 969 969 420
Width: 685
GlyphClass: 2
Flags: HW
LayerCount: 2
Fore
SplineSet
343 50 m 1,0,1
 300 -7 300 -7 223.5 -7 c 128,-1,2
 147 -7 147 -7 104.5 40.5 c 128,-1,3
 62 88 62 88 62 149 c 2,4,-1
 62 310 l 2,5,6
 62 375 62 375 94.5 421.5 c 128,-1,7
 127 468 127 468 196 468 c 0,8,9
 239 468 239 468 239 437 c 128,-1,10
 239 406 239 406 196 406 c 0,11,12
 174 406 174 406 158 393.5 c 128,-1,13
 142 381 142 381 135.5 362 c 0,14,15
 124 328.384615385 124 328.384615385 124 302 c 2,16,-1
 124 157 l 2,17,18
 124 109 124 109 148 82 c 128,-1,19
 172 55 172 55 205 55 c 0,20,21
 307 55 307 55 307 159 c 2,22,-1
 307 260 l 2,23,24
 307 300 307 300 342.5 300 c 128,-1,25
 378 300 378 300 378 260 c 2,26,-1
 378 159 l 2,27,28
 378 55 378 55 480 55 c 0,29,30
 513 55 513 55 537 82 c 128,-1,31
 561 109 561 109 561 157 c 2,32,-1
 561 302 l 2,33,34
 561 328.384615385 561 328.384615385 552 354.692307692 c 0,35,36
 534.447368421 406 534.447368421 406 490.223684211 406 c 128,-1,37
 446 406 446 406 446 437 c 128,-1,38
 446 468 446 468 489 468 c 0,39,40
 558 468 558 468 590.5 421.5 c 128,-1,41
 623 375 623 375 623 310 c 2,42,-1
 623 149 l 2,43,44
 623 88 623 88 580.5 40.5 c 128,-1,45
 538 -7 538 -7 462 -7 c 128,-1,46
 386 -7 386 -7 343 50 c 1,0,1
EndSplineSet
EndChar

StartChar: Djecyrillic
Encoding: 1026 1026 428
Width: 722
GlyphClass: 2
Flags: HW
LayerCount: 2
Fore
SplineSet
428 636 m 2,0,1
 468 636 468 636 468 605 c 128,-1,2
 468 574 468 574 428 574 c 2,3,-1
 277 574 l 1,4,-1
 277 415 l 1,5,6
 340 471 340 471 448 471 c 128,-1,7
 556 471 556 471 610 434 c 128,-1,8
 664 397 664 397 664 290 c 2,9,-1
 664 -71 l 2,10,11
 664 -155 664 -155 635.5 -180 c 128,-1,12
 607 -205 607 -205 558 -205 c 128,-1,13
 509 -205 509 -205 509 -174 c 128,-1,14
 509 -143 509 -143 552 -143 c 0,15,16
 581 -143 581 -143 591.5 -131 c 128,-1,17
 602 -119 602 -119 602 -88 c 2,18,-1
 602 288 l 2,19,20
 602 366 602 366 568.5 387.5 c 128,-1,21
 535 409 535 409 448.5 409 c 0,22,23
 277 409 277 409 277 236 c 2,24,-1
 277 33 l 2,25,26
 277 -7 277 -7 245 -7 c 128,-1,27
 213 -7 213 -7 213 31 c 2,28,-1
 213 574 l 1,29,-1
 64 574 l 2,30,31
 26 574 26 574 26 605 c 128,-1,32
 26 636 26 636 64 636 c 2,33,-1
 428 636 l 2,0,1
EndSplineSet
EndChar

StartChar: Ie.ukran
Encoding: 1028 1028 430
Width: 609
GlyphClass: 2
Flags: HW
LayerCount: 2
Fore
SplineSet
450 636 m 2,0,1
 513 636 513 636 534 604 c 128,-1,2
 555 572 555 572 555 525.5 c 128,-1,3
 555 479 555 479 524 479 c 128,-1,4
 493 479 493 479 493 514 c 128,-1,5
 493 549 493 549 482.5 561.5 c 128,-1,6
 472 574 472 574 443 574 c 2,7,-1
 309 574 l 2,8,9
 204 574 204 574 168.5 553.5 c 128,-1,10
 133 533 133 533 133 457 c 2,11,-1
 133 364 l 1,12,-1
 397 364 l 2,13,14
 437 364 437 364 437 335 c 0,15,16
 437 302 437 302 397 302 c 2,17,-1
 133 302 l 1,18,-1
 133 181 l 2,19,20
 133 104 133 104 169 83 c 128,-1,21
 205 62 205 62 309 62 c 2,22,-1
 443 62 l 2,23,24
 472 62 472 62 482.5 74 c 128,-1,25
 493 86 493 86 493 121.5 c 128,-1,26
 493 157 493 157 524 157 c 128,-1,27
 555 157 555 157 555 117 c 0,28,29
 555 64 555 64 534 32 c 128,-1,30
 513 0 513 0 450 0 c 2,31,-1
 309 0 l 2,32,33
 247 0 247 0 206.5 7 c 128,-1,34
 166 14 166 14 133.5 33 c 0,35,36
 71 69.5384615385 71 69.5384615385 71 179 c 2,37,-1
 71 457 l 2,38,39
 71 566.461538462 71 566.461538462 133.5 603 c 0,40,41
 166 622 166 622 206.5 629 c 128,-1,42
 247 636 247 636 309 636 c 2,43,-1
 450 636 l 2,0,1
EndSplineSet
EndChar

